<?xml version="1.0" encoding="utf-8"?>
<!-- Generator: Adobe Illustrator 16.0.0, SVG Export Plug-In . SVG Version: 6.00 Build 0)  -->
<!DOCTYPE svg PUBLIC "-//W3C//DTD SVG 1.1//EN" "http://www.w3.org/Graphics/SVG/1.1/DTD/svg11.dtd">
<svg version="1.1" id="Layer_1" xmlns="http://www.w3.org/2000/svg" xmlns:xlink="http://www.w3.org/1999/xlink" x="0px" y="0px"
	 width="572.368px" height="139.264px" viewBox="0 0 572.368 139.264" enable-background="new 0 0 572.368 139.264"
	 xml:space="preserve">
<rect x="3.541" y="3.54" fill="#EEEEEE" width="94.416" height="132.184"/>
<g>
	<rect x="97.957" y="3.54" fill="#FAFAFA" width="94.416" height="132.184"/>
	<rect x="97.957" y="102.677" fill="#FAFAFA" width="75.533" height="33.047"/>
</g>
<g>
	<rect x="60.19" y="69.631" fill="#F5F5F5" width="75.533" height="33.046"/>
	<rect x="60.19" y="3.54" fill="#F5F5F5" width="75.533" height="33.046"/>
</g>
<g>
	<rect x="97.957" y="3.54" fill="#FFFFFF" width="37.767" height="33.046"/>
	<rect x="97.957" y="69.631" fill="#FFFFFF" width="37.767" height="33.046"/>
</g>
<rect x="3.541" y="3.54" fill="#FAFAFA" width="56.65" height="33.046"/>
<rect x="135.723" y="3.54" fill="#E0E0E0" width="56.649" height="33.046"/>
<rect x="3.541" y="69.631" fill="#FAFAFA" width="56.65" height="33.046"/>
<rect x="135.723" y="69.631" fill="#E0E0E0" width="56.649" height="33.046"/>
<g>
	<rect x="173.489" y="102.677" fill="#E9A440" width="18.883" height="33.047"/>
	<rect x="173.489" y="36.586" fill="#E9A440" width="18.883" height="33.045"/>
</g>
<rect x="22.424" y="102.677" fill="#E0E0E0" width="75.533" height="33.047"/>
<rect x="97.957" y="36.586" fill="#FAFAFA" width="75.533" height="33.045"/>
<rect x="22.424" y="36.586" fill="#E0E0E0" width="75.533" height="33.045"/>
<path fill="#2E2D31" d="M192.372,0H3.541C1.585,0,0,1.585,0,3.54v132.184c0,1.954,1.585,3.54,3.541,3.54h188.832
	c1.956,0,3.541-1.586,3.541-3.54V3.54C195.913,1.585,194.328,0,192.372,0z M139.263,99.137V73.172h49.568v25.966H139.263z
	 M63.73,99.137V73.172h68.452v25.966H63.73z M7.082,99.137V73.172H56.65v25.966H7.082z M94.416,40.127V66.09H25.964V40.127H94.416z
	 M169.949,40.127V66.09h-68.452V40.127H169.949z M188.832,40.127V66.09H177.03V40.127H188.832z M18.883,66.09H7.082V40.127h11.801
	V66.09z M188.832,33.046h-49.568V7.081h49.568V33.046L188.832,33.046z M132.182,7.081v25.964H63.73V7.081H132.182z M56.649,7.081
	v25.964H7.082V7.081H56.649z M7.082,106.218h11.801v25.965H7.082V106.218z M25.964,106.218h68.452v25.965H25.964V106.218z
	 M101.497,132.182v-25.965h68.452v25.965H101.497z M177.03,132.182v-25.965h11.802v25.965H177.03z"/>
<rect x="379.995" y="3.54" fill="#F7E3C6" width="94.416" height="132.184"/>
<g>
	<rect x="474.411" y="3.54" fill="#FAFAFA" width="94.416" height="132.184"/>
	<rect x="474.411" y="102.677" fill="#FAFAFA" width="75.533" height="33.047"/>
</g>
<g>
	<rect x="436.647" y="69.631" fill="#F5F5F5" width="75.531" height="33.046"/>
	<rect x="436.647" y="3.54" fill="#F5F5F5" width="75.531" height="33.046"/>
</g>
<g>
	<rect x="474.411" y="3.54" fill="#FFFFFF" width="37.768" height="33.046"/>
	<rect x="474.411" y="69.631" fill="#FFFFFF" width="37.768" height="33.046"/>
</g>
<rect x="379.995" y="3.54" fill="#FAFAFA" width="56.65" height="33.046"/>
<rect x="512.178" y="3.54" fill="#E0E0E0" width="56.648" height="33.046"/>
<rect x="379.995" y="69.631" fill="#FAFAFA" width="56.65" height="33.046"/>
<rect x="512.178" y="69.631" fill="#E0E0E0" width="56.648" height="33.046"/>
<g>
	<rect x="549.944" y="102.677" fill="#EEEEEE" width="18.883" height="33.047"/>
	<rect x="549.944" y="36.586" fill="#EEEEEE" width="18.883" height="33.045"/>
</g>
<rect x="398.877" y="102.677" fill="#E0E0E0" width="75.533" height="33.047"/>
<rect x="474.411" y="36.586" fill="#FAFAFA" width="75.533" height="33.045"/>
<rect x="398.877" y="36.586" fill="#E0E0E0" width="75.533" height="33.045"/>
<path fill="#2E2D31" d="M568.827,0H379.995c-1.955,0-3.541,1.585-3.541,3.54v132.184c0,1.954,1.586,3.54,3.541,3.54h188.832
	c1.955,0,3.541-1.586,3.541-3.54V3.54C572.368,1.585,570.782,0,568.827,0z M515.717,99.137V73.172h49.568v25.966H515.717z
	 M440.184,99.137V73.172h68.453v25.966H440.184z M383.536,99.137V73.172h49.568v25.966H383.536z M470.87,40.127V66.09h-68.451
	V40.127H470.87z M546.403,40.127V66.09h-68.451V40.127H546.403z M565.286,40.127V66.09h-11.801V40.127H565.286z M395.336,66.09
	h-11.801V40.127h11.801V66.09z M565.286,33.046h-49.568V7.081h49.568V33.046L565.286,33.046z M508.637,7.081v25.964h-68.453V7.081
	H508.637z M433.104,7.081v25.964h-49.568V7.081H433.104z M383.536,106.218h11.801v25.965h-11.801V106.218z M402.418,106.218h68.451
	v25.965h-68.451V106.218z M477.952,132.182v-25.965h68.451v25.965H477.952z M553.485,132.182v-25.965h11.801v25.965H553.485z"/>
<rect x="191.358" y="3.54" fill="#F7E3C6" width="94.416" height="132.184"/>
<g>
	<rect x="285.774" y="3.54" fill="#FAFAFA" width="94.416" height="132.184"/>
	<rect x="285.774" y="102.677" fill="#FAFAFA" width="75.533" height="33.047"/>
</g>
<g>
	<rect x="248.008" y="69.631" fill="#F5F5F5" width="75.534" height="33.046"/>
	<rect x="248.008" y="3.54" fill="#F5F5F5" width="75.534" height="33.046"/>
</g>
<g>
	<rect x="285.774" y="3.54" fill="#FFFFFF" width="37.768" height="33.046"/>
	<rect x="285.774" y="69.631" fill="#FFFFFF" width="37.768" height="33.046"/>
</g>
<rect x="191.358" y="3.54" fill="#FAFAFA" width="56.65" height="33.046"/>
<rect x="323.542" y="3.54" fill="#E0E0E0" width="56.648" height="33.046"/>
<rect x="191.358" y="69.631" fill="#FAFAFA" width="56.65" height="33.046"/>
<rect x="323.542" y="69.631" fill="#E0E0E0" width="56.648" height="33.046"/>
<g>
	<rect x="361.308" y="102.677" fill="#E9A440" width="18.883" height="33.047"/>
	<rect x="361.308" y="36.586" fill="#E9A440" width="18.883" height="33.045"/>
</g>
<rect x="210.242" y="102.677" fill="#E0E0E0" width="75.533" height="33.047"/>
<rect x="285.774" y="36.586" fill="#FAFAFA" width="75.533" height="33.045"/>
<rect x="210.242" y="36.586" fill="#E0E0E0" width="75.533" height="33.045"/>
<path fill="#2E2D31" d="M380.19,0H191.358c-1.956,0-3.541,1.585-3.541,3.54v132.184c0,1.954,1.585,3.54,3.541,3.54H380.19
	c1.955,0,3.541-1.586,3.541-3.54V3.54C383.731,1.585,382.146,0,380.19,0z M327.081,99.137V73.172h49.568v25.966H327.081z
	 M251.548,99.137V73.172H320v25.966H251.548z M194.899,99.137V73.172h49.568v25.966H194.899z M282.234,40.127V66.09h-68.452V40.127
	H282.234z M357.767,40.127V66.09h-68.451V40.127H357.767z M376.649,40.127V66.09h-11.801V40.127H376.649z M206.701,66.09H194.9
	V40.127h11.801V66.09z M376.649,33.046h-49.568V7.081h49.568V33.046L376.649,33.046z M320,7.081v25.964h-68.453V7.081H320z
	 M244.467,7.081v25.964h-49.568V7.081H244.467z M194.899,106.218H206.7v25.965h-11.801V106.218z M213.782,106.218h68.452v25.965
	h-68.452V106.218L213.782,106.218z M289.315,132.182v-25.965h68.451v25.965H289.315z M364.849,132.182v-25.965h11.801v25.965
	H364.849z"/>
<path fill="#2E2D31" d="M379.372,0H190.541C188.585,0,187,1.585,187,3.54v132.184c0,1.954,1.585,3.54,3.541,3.54h188.833
	c1.955,0,3.541-1.586,3.541-3.54V3.54C382.913,1.585,381.329,0,379.372,0z M326.263,99.137V73.172h49.567v25.966H326.263z
	 M250.73,99.137V73.172h68.452v25.966H250.73z M194.082,99.137V73.172h49.568v25.966H194.082z M281.416,40.127V66.09h-68.452V40.127
	H281.416z M356.95,40.127V66.09h-68.453V40.127H356.95z M375.833,40.127V66.09H364.03V40.127H375.833z M205.883,66.09h-11.801
	V40.127h11.801V66.09z M375.833,33.046h-49.568V7.081h49.568V33.046L375.833,33.046z M319.182,7.081v25.964H250.73V7.081H319.182z
	 M243.649,7.081v25.964h-49.567V7.081H243.649z M194.082,106.218h11.801v25.965h-11.801V106.218z M212.964,106.218h68.452v25.965
	h-68.452V106.218z M288.497,132.182v-25.965h68.453v25.965H288.497z M364.03,132.182v-25.965h11.803v25.965H364.03z"/>
<rect x="3.541" y="69.54" fill="#EEEEEE" width="94.416" height="132.184"/>
<g>
	<rect x="97.957" y="69.54" fill="#FAFAFA" width="94.416" height="132.184"/>
	<rect x="97.957" y="168.677" fill="#FAFAFA" width="75.533" height="33.047"/>
</g>
<g>
	<rect x="60.19" y="135.631" fill="#F5F5F5" width="75.533" height="33.046"/>
	<rect x="60.19" y="69.54" fill="#F5F5F5" width="75.533" height="33.046"/>
</g>
<g>
	<rect x="97.957" y="69.54" fill="#FFFFFF" width="37.767" height="33.046"/>
	<rect x="97.957" y="135.631" fill="#FFFFFF" width="37.767" height="33.046"/>
</g>
<rect x="3.541" y="69.54" fill="#FAFAFA" width="56.65" height="33.046"/>
<rect x="135.723" y="69.54" fill="#E0E0E0" width="56.649" height="33.046"/>
<rect x="3.541" y="135.631" fill="#FAFAFA" width="56.65" height="33.046"/>
<rect x="135.723" y="135.631" fill="#E0E0E0" width="56.649" height="33.046"/>
<g>
	<rect x="173.489" y="168.677" fill="#E9A440" width="18.883" height="33.047"/>
	<rect x="173.489" y="102.586" fill="#E9A440" width="18.883" height="33.045"/>
</g>
<rect x="22.424" y="168.677" fill="#E0E0E0" width="75.533" height="33.047"/>
<rect x="97.957" y="102.586" fill="#FAFAFA" width="75.533" height="33.045"/>
<rect x="22.424" y="102.586" fill="#E0E0E0" width="75.533" height="33.045"/>
<path fill="#2E2D31" d="M192.372,66H3.541C1.585,66,0,67.585,0,69.54v132.184c0,1.954,1.585,3.54,3.541,3.54h188.832
	c1.956,0,3.541-1.586,3.541-3.54V69.54C195.913,67.585,194.328,66,192.372,66z M139.263,165.137v-25.966h49.568v25.966H139.263z
	 M63.73,165.137v-25.966h68.452v25.966H63.73z M7.082,165.137v-25.966H56.65v25.966H7.082z M94.416,106.127v25.963H25.964v-25.963
	H94.416z M169.949,106.127v25.963h-68.452v-25.963H169.949z M188.832,106.127v25.963H177.03v-25.963H188.832z M18.883,132.09H7.082
	v-25.963h11.801V132.09z M188.832,99.046h-49.568V73.081h49.568V99.046L188.832,99.046z M132.182,73.081v25.964H63.73V73.081
	H132.182z M56.649,73.081v25.964H7.082V73.081H56.649z M7.082,172.218h11.801v25.965H7.082V172.218z M25.964,172.218h68.452v25.965
	H25.964V172.218z M101.497,198.182v-25.965h68.452v25.965H101.497z M177.03,198.182v-25.965h11.802v25.965H177.03z"/>
<rect x="379.995" y="69.54" fill="#F7E3C6" width="94.416" height="132.184"/>
<g>
	<rect x="474.411" y="69.54" fill="#FAFAFA" width="94.416" height="132.184"/>
	<rect x="474.411" y="168.677" fill="#FAFAFA" width="75.533" height="33.047"/>
</g>
<g>
	<rect x="436.647" y="135.631" fill="#F5F5F5" width="75.531" height="33.046"/>
	<rect x="436.647" y="69.54" fill="#F5F5F5" width="75.531" height="33.046"/>
</g>
<g>
	<rect x="474.411" y="69.54" fill="#FFFFFF" width="37.768" height="33.046"/>
	<rect x="474.411" y="135.631" fill="#FFFFFF" width="37.768" height="33.046"/>
</g>
<rect x="379.995" y="69.54" fill="#FAFAFA" width="56.65" height="33.046"/>
<rect x="512.178" y="69.54" fill="#E0E0E0" width="56.648" height="33.046"/>
<rect x="379.995" y="135.631" fill="#FAFAFA" width="56.65" height="33.046"/>
<rect x="512.178" y="135.631" fill="#E0E0E0" width="56.648" height="33.046"/>
<g>
	<rect x="549.944" y="168.677" fill="#EEEEEE" width="18.883" height="33.047"/>
	<rect x="549.944" y="102.586" fill="#EEEEEE" width="18.883" height="33.045"/>
</g>
<rect x="398.877" y="168.677" fill="#E0E0E0" width="75.533" height="33.047"/>
<rect x="474.411" y="102.586" fill="#FAFAFA" width="75.533" height="33.045"/>
<rect x="398.877" y="102.586" fill="#E0E0E0" width="75.533" height="33.045"/>
<path fill="#2E2D31" d="M568.827,66H379.995c-1.955,0-3.541,1.585-3.541,3.54v132.184c0,1.954,1.586,3.54,3.541,3.54h188.832
	c1.955,0,3.541-1.586,3.541-3.54V69.54C572.368,67.585,570.782,66,568.827,66z M515.717,165.137v-25.966h49.568v25.966H515.717z
	 M440.184,165.137v-25.966h68.453v25.966H440.184z M383.536,165.137v-25.966h49.568v25.966H383.536z M470.87,106.127v25.963h-68.451
	v-25.963H470.87z M546.403,106.127v25.963h-68.451v-25.963H546.403z M565.286,106.127v25.963h-11.801v-25.963H565.286z
	 M395.336,132.09h-11.801v-25.963h11.801V132.09z M565.286,99.046h-49.568V73.081h49.568V99.046L565.286,99.046z M508.637,73.081
	v25.964h-68.453V73.081H508.637z M433.104,73.081v25.964h-49.568V73.081H433.104z M383.536,172.218h11.801v25.965h-11.801V172.218z
	 M402.418,172.218h68.451v25.965h-68.451V172.218z M477.952,198.182v-25.965h68.451v25.965H477.952z M553.485,198.182v-25.965
	h11.801v25.965H553.485z"/>
<rect x="191.358" y="69.54" fill="#F7E3C6" width="94.416" height="132.184"/>
<g>
	<rect x="285.774" y="69.54" fill="#FAFAFA" width="94.416" height="132.184"/>
	<rect x="285.774" y="168.677" fill="#FAFAFA" width="75.533" height="33.047"/>
</g>
<g>
	<rect x="248.008" y="135.631" fill="#F5F5F5" width="75.534" height="33.046"/>
	<rect x="248.008" y="69.54" fill="#F5F5F5" width="75.534" height="33.046"/>
</g>
<g>
	<rect x="285.774" y="69.54" fill="#FFFFFF" width="37.768" height="33.046"/>
	<rect x="285.774" y="135.631" fill="#FFFFFF" width="37.768" height="33.046"/>
</g>
<rect x="191.358" y="69.54" fill="#FAFAFA" width="56.65" height="33.046"/>
<rect x="323.542" y="69.54" fill="#E0E0E0" width="56.648" height="33.046"/>
<rect x="191.358" y="135.631" fill="#FAFAFA" width="56.65" height="33.046"/>
<rect x="323.542" y="135.631" fill="#E0E0E0" width="56.648" height="33.046"/>
<g>
	<rect x="361.308" y="168.677" fill="#E9A440" width="18.883" height="33.047"/>
	<rect x="361.308" y="102.586" fill="#E9A440" width="18.883" height="33.045"/>
</g>
<rect x="210.242" y="168.677" fill="#E0E0E0" width="75.533" height="33.047"/>
<rect x="285.774" y="102.586" fill="#FAFAFA" width="75.533" height="33.045"/>
<rect x="210.242" y="102.586" fill="#E0E0E0" width="75.533" height="33.045"/>
<path fill="#2E2D31" d="M380.19,66H191.358c-1.956,0-3.541,1.585-3.541,3.54v132.184c0,1.954,1.585,3.54,3.541,3.54H380.19
	c1.955,0,3.541-1.586,3.541-3.54V69.54C383.731,67.585,382.146,66,380.19,66z M327.081,165.137v-25.966h49.568v25.966H327.081z
	 M251.548,165.137v-25.966H320v25.966H251.548z M194.899,165.137v-25.966h49.568v25.966H194.899z M282.234,106.127v25.963h-68.452
	v-25.963H282.234z M357.767,106.127v25.963h-68.451v-25.963H357.767z M376.649,106.127v25.963h-11.801v-25.963H376.649z
	 M206.701,132.09H194.9v-25.963h11.801V132.09z M376.649,99.046h-49.568V73.081h49.568V99.046L376.649,99.046z M320,73.081v25.964
	h-68.453V73.081H320z M244.467,73.081v25.964h-49.568V73.081H244.467z M194.899,172.218H206.7v25.965h-11.801V172.218z
	 M213.782,172.218h68.452v25.965h-68.452V172.218L213.782,172.218z M289.315,198.182v-25.965h68.451v25.965H289.315z
	 M364.849,198.182v-25.965h11.801v25.965H364.849z"/>
<path fill="#2E2D31" d="M379.372,66H190.541c-1.956,0-3.541,1.585-3.541,3.54v132.184c0,1.954,1.585,3.54,3.541,3.54h188.833
	c1.955,0,3.541-1.586,3.541-3.54V69.54C382.913,67.585,381.329,66,379.372,66z M326.263,165.137v-25.966h49.567v25.966H326.263z
	 M250.73,165.137v-25.966h68.452v25.966H250.73z M194.082,165.137v-25.966h49.568v25.966H194.082z M281.416,106.127v25.963h-68.452
	v-25.963H281.416z M356.95,106.127v25.963h-68.453v-25.963H356.95z M375.833,106.127v25.963H364.03v-25.963H375.833z
	 M205.883,132.09h-11.801v-25.963h11.801V132.09z M375.833,99.046h-49.568V73.081h49.568V99.046L375.833,99.046z M319.182,73.081
	v25.964H250.73V73.081H319.182z M243.649,73.081v25.964h-49.567V73.081H243.649z M194.082,172.218h11.801v25.965h-11.801V172.218z
	 M212.964,172.218h68.452v25.965h-68.452V172.218z M288.497,198.182v-25.965h68.453v25.965H288.497z M364.03,198.182v-25.965h11.803
	v25.965H364.03z"/>
<g>
	<rect x="365.03" y="171.508" fill="#F5F5F5" width="29.67" height="26.669"/>
	<rect x="365.03" y="106.084" fill="#F5F5F5" width="29.67" height="26.175"/>
</g>
<g>
	<rect x="177.03" y="171.508" fill="#F5F5F5" width="29.671" height="26.669"/>
	<rect x="177.03" y="106.084" fill="#F5F5F5" width="29.671" height="26.175"/>
</g>
<g>
	<rect x="177.03" y="105.508" fill="#F5F5F5" width="29.671" height="26.669"/>
	<rect x="177.03" y="40.084" fill="#F5F5F5" width="29.671" height="26.175"/>
</g>
<g>
	<rect x="365.03" y="105.508" fill="#F5F5F5" width="29.67" height="26.669"/>
	<rect x="365.03" y="40.084" fill="#F5F5F5" width="29.67" height="26.175"/>
</g>
</svg>
