<?xml version="1.0" encoding="utf-8"?>
<!-- Generator: Adobe Illustrator 16.0.0, SVG Export Plug-In . SVG Version: 6.00 Build 0)  -->
<!DOCTYPE svg PUBLIC "-//W3C//DTD SVG 1.0//EN" "http://www.w3.org/TR/2001/REC-SVG-20010904/DTD/svg10.dtd">
<svg version="1.0" id="Layer_1" xmlns="http://www.w3.org/2000/svg" xmlns:xlink="http://www.w3.org/1999/xlink" x="0px" y="0px"
	 width="572.368px" height="139.263px" viewBox="0 0 572.368 139.263" enable-background="new 0 0 572.368 139.263"
	 xml:space="preserve">
<rect x="3.541" y="3.54" fill="#F7E3C6" width="94.416" height="132.183"/>
<g>
	<rect x="97.957" y="3.54" fill="#EFC27B" width="94.416" height="132.183"/>
	<rect x="97.957" y="102.677" fill="#EFC27B" width="75.533" height="33.046"/>
</g>
<g>
	<rect x="60.19" y="69.631" fill="#F7E3C6" width="75.533" height="33.046"/>
	<rect x="60.19" y="3.54" fill="#F7E3C6" width="75.533" height="33.046"/>
</g>
<g>
	<rect x="97.957" y="3.54" fill="#F4D8AA" width="37.767" height="33.046"/>
	<rect x="97.957" y="69.631" fill="#F4D8AA" width="37.767" height="33.046"/>
</g>
<rect x="3.541" y="3.54" fill="#EFC27B" width="56.65" height="33.046"/>
<rect x="135.723" y="3.54" fill="#ECB45C" width="56.649" height="33.046"/>
<rect x="3.541" y="69.631" fill="#EFC27B" width="56.65" height="33.046"/>
<rect x="135.723" y="69.631" fill="#ECB45C" width="56.649" height="33.046"/>
<g>
	<rect x="173.489" y="102.677" fill="#E9A440" width="18.883" height="33.046"/>
	<rect x="173.489" y="36.586" fill="#E9A440" width="18.883" height="33.045"/>
</g>
<rect x="22.424" y="102.677" fill="#F4D8AA" width="75.533" height="33.046"/>
<rect x="97.957" y="36.586" fill="#EFC27B" width="75.533" height="33.045"/>
<rect x="22.424" y="36.586" fill="#F4D8AA" width="75.533" height="33.045"/>
<path fill="#2E2D31" d="M192.372,0H3.541C1.585,0,0,1.585,0,3.54v132.183c0,1.955,1.585,3.54,3.541,3.54h188.832
	c1.956,0,3.541-1.585,3.541-3.54V3.54C195.913,1.585,194.328,0,192.372,0z M139.263,99.137V73.172h49.568v25.965H139.263z
	 M63.73,99.137V73.172h68.452v25.965H63.73z M7.082,99.137V73.172h49.568v25.965H7.082z M94.416,40.127V66.09H25.964V40.127H94.416z
	 M169.949,40.127V66.09h-68.452V40.127H169.949z M188.832,40.127V66.09H177.03V40.127H188.832z M18.883,66.09H7.082V40.127h11.801
	V66.09z M188.832,33.046h-49.568V7.081h49.568V33.046L188.832,33.046z M132.182,7.081v25.964H63.73V7.081H132.182z M56.649,7.081
	v25.964H7.082V7.081H56.649z M7.082,106.218h11.801v25.964H7.082V106.218z M25.964,106.218h68.452v25.964H25.964V106.218z
	 M101.497,132.182v-25.964h68.452v25.964H101.497z M177.03,132.182v-25.964h11.802v25.964H177.03z"/>
<rect x="379.995" y="3.54" fill="#F7E3C6" width="94.416" height="132.183"/>
<g>
	<rect x="474.411" y="3.54" fill="#EFC27B" width="94.416" height="132.183"/>
	<rect x="474.411" y="102.677" fill="#EFC27B" width="75.533" height="33.046"/>
</g>
<g>
	<rect x="436.646" y="69.631" fill="#F7E3C6" width="75.533" height="33.046"/>
	<rect x="436.646" y="3.54" fill="#F7E3C6" width="75.533" height="33.046"/>
</g>
<g>
	<rect x="474.411" y="3.54" fill="#F4D8AA" width="37.768" height="33.046"/>
	<rect x="474.411" y="69.631" fill="#F4D8AA" width="37.768" height="33.046"/>
</g>
<rect x="379.995" y="3.54" fill="#EFC27B" width="56.65" height="33.046"/>
<rect x="512.179" y="3.54" fill="#ECB45C" width="56.648" height="33.046"/>
<rect x="379.995" y="69.631" fill="#EFC27B" width="56.65" height="33.046"/>
<rect x="512.179" y="69.631" fill="#ECB45C" width="56.648" height="33.046"/>
<g>
	<rect x="549.944" y="102.677" fill="#E9A440" width="18.883" height="33.046"/>
	<rect x="549.944" y="36.586" fill="#E9A440" width="18.883" height="33.045"/>
</g>
<rect x="398.878" y="102.677" fill="#F4D8AA" width="75.533" height="33.046"/>
<rect x="474.411" y="36.586" fill="#EFC27B" width="75.533" height="33.045"/>
<rect x="398.878" y="36.586" fill="#F4D8AA" width="75.533" height="33.045"/>
<path fill="#2E2D31" d="M568.827,0H379.995c-1.955,0-3.541,1.585-3.541,3.54v132.183c0,1.955,1.586,3.54,3.541,3.54h188.832
	c1.955,0,3.541-1.585,3.541-3.54V3.54C572.368,1.585,570.782,0,568.827,0z M515.718,99.137V73.172h49.568v25.965H515.718z
	 M440.185,99.137V73.172h68.453v25.965H440.185z M383.536,99.137V73.172h49.568v25.965H383.536z M470.87,40.127V66.09h-68.451
	V40.127H470.87z M546.403,40.127V66.09h-68.451V40.127H546.403z M565.286,40.127V66.09h-11.801V40.127H565.286z M395.337,66.09
	h-11.801V40.127h11.801V66.09z M565.286,33.046h-49.568V7.081h49.568V33.046L565.286,33.046z M508.638,7.081v25.964h-68.453V7.081
	H508.638z M433.104,7.081v25.964h-49.568V7.081H433.104z M383.536,106.218h11.801v25.964h-11.801V106.218z M402.419,106.218h68.451
	v25.964h-68.451V106.218z M477.952,132.182v-25.964h68.451v25.964H477.952z M553.485,132.182v-25.964h11.801v25.964H553.485z"/>
<rect x="191.358" y="3.54" fill="#F7E3C6" width="94.416" height="132.183"/>
<g>
	<rect x="285.774" y="3.54" fill="#EFC27B" width="94.416" height="132.183"/>
	<rect x="285.774" y="102.677" fill="#EFC27B" width="75.533" height="33.046"/>
</g>
<g>
	<rect x="248.008" y="69.631" fill="#F7E3C6" width="75.534" height="33.046"/>
	<rect x="248.008" y="3.54" fill="#F7E3C6" width="75.534" height="33.046"/>
</g>
<g>
	<rect x="285.774" y="3.54" fill="#F4D8AA" width="37.768" height="33.046"/>
	<rect x="285.774" y="69.631" fill="#F4D8AA" width="37.768" height="33.046"/>
</g>
<rect x="191.358" y="3.54" fill="#EFC27B" width="56.65" height="33.046"/>
<rect x="323.542" y="3.54" fill="#ECB45C" width="56.648" height="33.046"/>
<rect x="191.358" y="69.631" fill="#EFC27B" width="56.65" height="33.046"/>
<rect x="323.542" y="69.631" fill="#ECB45C" width="56.648" height="33.046"/>
<g>
	<rect x="361.308" y="102.677" fill="#E9A440" width="18.883" height="33.046"/>
	<rect x="361.308" y="36.586" fill="#E9A440" width="18.883" height="33.045"/>
</g>
<rect x="210.242" y="102.677" fill="#F4D8AA" width="75.533" height="33.046"/>
<rect x="285.774" y="36.586" fill="#EFC27B" width="75.533" height="33.045"/>
<rect x="210.242" y="36.586" fill="#F4D8AA" width="75.533" height="33.045"/>
<path fill="#2E2D31" d="M380.19,0H191.358c-1.956,0-3.541,1.585-3.541,3.54v132.183c0,1.955,1.585,3.54,3.541,3.54H380.19
	c1.955,0,3.541-1.585,3.541-3.54V3.54C383.731,1.585,382.146,0,380.19,0z M327.081,99.137V73.172h49.568v25.965H327.081z
	 M251.548,99.137V73.172h68.453v25.965H251.548z M194.899,99.137V73.172h49.568v25.965H194.899z M282.234,40.127V66.09h-68.452
	V40.127H282.234z M357.767,40.127V66.09h-68.451V40.127H357.767z M376.649,40.127V66.09h-11.801V40.127H376.649z M206.701,66.09
	h-11.801V40.127h11.801V66.09z M376.649,33.046h-49.568V7.081h49.568V33.046L376.649,33.046z M320.001,7.081v25.964h-68.453V7.081
	H320.001z M244.467,7.081v25.964h-49.568V7.081H244.467z M194.899,106.218h11.801v25.964h-11.801V106.218z M213.782,106.218h68.452
	v25.964h-68.452V106.218z M289.315,132.182v-25.964h68.451v25.964H289.315z M364.849,132.182v-25.964h11.801v25.964H364.849z"/>
<g>
	<rect x="177.03" y="105.508" fill="#E9A440" width="29.671" height="26.669"/>
	<rect x="177.03" y="40.084" fill="#E9A440" width="29.671" height="26.175"/>
</g>
<g>
	<rect x="365.03" y="105.508" fill="#E9A440" width="29.67" height="26.669"/>
	<rect x="365.03" y="40.084" fill="#E9A440" width="29.67" height="26.175"/>
</g>
</svg>
