<svg height="511pt" viewBox="-70 1 511 511.99949" width="511pt" xmlns="http://www.w3.org/2000/svg"><path d="m306.199219 263.777344c10.484375-10.484375 10.484375-27.484375 0-37.96875s-27.484375-10.484375-37.96875 0c10.484375-10.484375 10.484375-27.484375 0-37.96875s-27.484375-10.484375-37.96875 0l-22.707031-22.707032c10.484374-10.484374 10.484374-27.484374 0-37.96875-10.484376-10.484374-27.484376-10.484374-37.96875 0l-59.03125 59.03125 139.695312 139.695313" fill="#f9c991"/><path d="m160.566406 339.355469c-10.496094-31.78125-52.363281 9.289062-82.253906-5.757813-14.332031-7.230468-31.789062-1.460937-39.015625 12.875-7.21875 14.332032-1.445313 31.796875 12.882813 39.011719 16.019531 8.078125 27.941406 21.90625 33.566406 38.953125 0 0 15.058594 56.3125 58.554687 72.882812 40.457031 15.414063 90.363281 5.171876 124.414063-24.515624 19.574218-17.070313 31.601562-41.191407 33.945312-67.054688l.371094-4.09375" fill="#f9c991"/><g fill="#e8b182"><path d="m115.308594 361.84375c17.890625 17.890625 30.664062 83.523438 83.523437 83.523438 52.863281 0 12.472657-122.421876 12.472657-122.421876"/><path d="m279.996094 461.199219c-3.417969 4.144531-7.179688 8.03125-11.28125 11.605469-34.050782 29.6875-83.957032 39.933593-124.414063 24.515624-43.496093-16.570312-58.554687-72.882812-58.554687-72.882812-5.625-17.046875-17.546875-30.875-33.570313-38.953125-14.324219-7.214844-20.097656-24.679687-12.878906-39.011719 2.988281-5.929687 7.726563-10.394531 13.277344-13.074218-6.925781 14.253906-1.132813 31.46875 13.066406 38.625 16.019531 8.078124 27.941406 21.90625 33.570313 38.953124 0 0 15.054687 56.308594 58.554687 72.882813 39.605469 15.085937 88.25 5.597656 122.230469-22.660156zm0 0"/><path d="m207.554688 127.167969c10.484374 10.484375 10.484374 27.480469 0 37.964843l-9.445313-9.445312c8.851563-8.851562 10.230469-22.347656 4.128906-32.648438 1.894531 1.121094 3.683594 2.496094 5.316407 4.128907zm0 0"/><path d="m268.230469 187.839844c10.484375 10.484375 10.484375 27.484375 0 37.96875l-9.449219-9.445313c8.855469-8.855469 10.234375-22.351562 4.132812-32.648437 1.894532 1.121094 3.683594 2.496094 5.316407 4.125zm0 0"/><path d="m306.199219 225.808594c10.484375 10.484375 10.484375 27.484375 0 37.96875l-9.449219-9.445313c8.851562-8.855469 10.234375-22.351562 4.128906-32.648437 1.898438 1.121094 3.6875 2.496094 5.320313 4.125zm0 0"/></g><path d="m128.488281 115.945312-114.210937 114.210938c-8.25 8.25-8.25 21.628906 0 29.878906l200.25 200.246094c8.25 8.25 21.625 8.25 29.878906 0l114.207031-114.210938c8.25-8.25 8.25-21.625 0-29.878906l-200.246093-200.246094c-8.25-8.25-21.628907-8.25-29.878907 0zm0 0" fill="#565475"/><path d="m188.875 146.453125 141.191406 141.191406c6.152344 6.152344 5.085938 17.195313-2.382812 24.664063l-117.042969 117.046875c-4.082031 4.082031-9.242187 6.253906-14.082031 6.363281-4 .105469-7.796875-1.199219-10.582032-3.984375l-141.191406-141.191406c-6.15625-6.15625-5.085937-17.207031 2.375-24.667969l117.042969-117.046875c2.328125-2.328125 5.011719-4.03125 7.773437-5.082031 6.109376-2.347656 12.660157-1.53125 16.898438 2.707031zm0 0" fill="#fbf2dc"/><path d="m295.21875 387.707031c0 5.070313-4.109375 9.179688-9.175781 9.179688-5.070313 0-9.179688-4.109375-9.179688-9.179688 0-5.066406 4.109375-9.175781 9.179688-9.175781 5.066406 0 9.175781 4.109375 9.175781 9.175781zm0 0" fill="#2f2d50"/><path d="m171.980469 143.742188-24.074219 249.925781-50.480469-50.480469 13.59375-141.171875 53.1875-53.183594c2.332031-2.332031 5.003907-4.035156 7.773438-5.089843zm0 0" fill="#fff"/><path d="m203.203125 160.78125 31.164063 31.167969-22.765626 236.445312-.960937.960938c-4.082031 4.082031-9.242187 6.253906-14.078125 6.363281-4 .105469-7.796875-1.199219-10.585938-3.984375l-8.085937-8.085937zm0 0" fill="#fff"/><path d="m363.992188 310.816406-47.644532-47.644531c8.394532-13.308594 6.8125-31.15625-4.773437-42.738281-7.660157-7.664063-18.066407-10.949219-28.082031-9.867188.132812-1.234375.203124-2.484375.203124-3.742187 0-9.203125-3.582031-17.855469-10.089843-24.359375-11.585938-11.585938-29.429688-13.171875-42.738281-4.773438l-13.15625-13.15625c3.453124-5.453125 5.3125-11.773437 5.3125-18.386718 0-9.199219-3.585938-17.851563-10.09375-24.359376-6.503907-6.507812-15.15625-10.089843-24.359376-10.089843-6.609374 0-12.933593 1.859375-18.382812 5.3125l-6.445312-6.441407c-5.425782-5.425781-12.640626-8.414062-20.316407-8.414062-7.671875 0-14.886719 2.988281-20.3125 8.414062l-7.632812 7.632813c-2.96875 2.96875-2.96875 7.78125 0 10.75 2.96875 2.972656 7.78125 2.96875 10.75 0l7.632812-7.628906c2.554688-2.554688 5.953125-3.960938 9.5625-3.960938 3.613281 0 7.011719 1.40625 9.5625 3.960938l11.214844 11.214843c.003906 0 .003906 0 .003906.003907.003907 0 .003907.003906.007813.003906l4.144531 4.148437c-3.050781 1.234376-5.851563 3.082032-8.25 5.480469l-119.601563 119.605469c-2.433593 2.433594-4.257812 5.25-5.472656 8.257812l-15.382812-15.382812c-5.273438-5.269531-5.273438-13.851562 0-19.125l84.613281-84.613281c2.96875-2.96875 2.96875-7.78125 0-10.75-2.96875-2.972657-7.785156-2.972657-10.753906 0l-84.609375 84.609375c-11.203125 11.203125-11.203125 29.429687 0 40.632812l57.472656 57.476563c-4.226562-.128907-8.484375.476562-12.617188 1.839843-9.296874 3.070313-16.84375 9.578126-21.25 18.328126-4.40625 8.746093-5.140624 18.679687-2.070312 27.980468 3.066406 9.292969 9.574219 16.835938 18.316406 21.238282 14.152344 7.136718 24.695313 19.335937 29.710938 34.363281 1.089844 3.949219 13.472656 46.480469 46.542968 69.074219 1.308594.894531 2.804688 1.324218 4.28125 1.324218 2.425782 0 4.8125-1.160156 6.285157-3.316406 2.367187-3.464844 1.476562-8.195312-1.988281-10.566406-29.234376-19.972656-40.386719-60.28125-40.496094-60.679688-.035156-.140625-.078125-.28125-.125-.417968-6.261719-18.96875-19.53125-34.367188-37.371094-43.363282-5.113281-2.574218-8.921875-6.988281-10.71875-12.425781-1.796875-5.441406-1.367188-11.253906 1.210938-16.371094 2.582031-5.121093 6.996093-8.933593 12.4375-10.726562 5.4375-1.796875 11.246093-1.363281 16.371093 1.222656 28.0625 14.128906 48.949219 38.355469 58.8125 68.214844 1.316407 3.988281 5.617188 6.152343 9.605469 4.835937 3.628906-1.195312 5.738281-4.863281 5.097656-8.519531l31.089844 31.089844h.003906l29.644532 29.648437c5.425781 5.425782 12.640624 8.414063 20.316406 8.414063 7.675781 0 14.890625-2.988281 20.316406-8.417969l41.617188-41.617188c-5.011719 16.652344-14.492188 31.53125-27.679688 43.035157-29.148438 25.410156-71.09375 35.738281-106.855469 26.304687-4.058593-1.070312-8.21875 1.351563-9.289062 5.410156-1.074219 4.0625 1.351562 8.222657 5.410156 9.292969 10 2.636719 20.417969 3.917969 30.9375 3.917969 32.074219 0 65.058594-11.902344 89.789063-33.464844 20.996093-18.308594 33.964843-43.914062 36.519531-72.097656l.125-1.351562 53.632812-53.636719c11.203125-11.203125 11.203125-29.429688.003907-40.632813zm-63.167969-79.632812c5.59375 5.59375 7.007812 13.800781 4.261719 20.726562l-24.992188-24.992187c6.925781-2.746094 15.132812-1.328125 20.730469 4.265625zm-37.972657-37.96875c3.636719 3.636718 5.636719 8.46875 5.636719 13.609375 0 2.480469-.476562 4.886719-1.367187 7.125l-24.996094-24.996094c6.925781-2.75 15.132812-1.332031 20.726562 4.261719zm-74.28125-66.308594c5.140626 0 9.972657 2 13.609376 5.636719 3.632812 3.632812 5.636718 8.464843 5.636718 13.605469 0 2.480468-.476562 4.886718-1.367187 7.125l-25-25c2.234375-.890626 4.640625-1.367188 7.121093-1.367188zm-137.3125 159.359375c-3.785156-3.789063-3.785156-9.949219 0-13.734375l119.605469-119.601562c1.835938-1.835938 4.273438-2.84375 6.867188-2.84375s5.03125 1.007812 6.863281 2.84375l138.996094 138.992187c3.785156 3.785156 3.785156 9.949219 0 13.734375l-119.601563 119.601562c-3.789062 3.785157-9.945312 3.789063-13.734375.003907zm301.980469 54.429687-55.609375 55.609376c-.003906.003906-.007812.007812-.011718.011718l-58.589844 58.589844c-2.554688 2.554688-5.953125 3.960938-9.5625 3.960938-3.613282 0-7.011719-1.40625-9.5625-3.960938l-13.421875-13.421875c3.007812-1.214844 5.824219-3.035156 8.261719-5.472656l119.601562-119.601563c2.433594-2.433594 4.257812-5.253906 5.472656-8.261718l13.421875 13.421874c5.273438 5.273438 5.273438 13.851563 0 19.125zm0 0"/><path d="m286.042969 376.960938c-2.875 0-5.574219 1.117187-7.601563 3.148437-4.191406 4.191406-4.191406 11.011719 0 15.199219 2.027344 2.03125 4.726563 3.148437 7.601563 3.148437 2.871093 0 5.570312-1.117187 7.597656-3.148437 4.191406-4.191406 4.191406-11.007813 0-15.199219-2.027344-2.03125-4.726563-3.148437-7.597656-3.148437zm0 0"/><path d="m75.363281 210.78125 33.75-33.75c2.972657-2.96875 2.972657-7.78125 0-10.75-2.96875-2.972656-7.78125-2.972656-10.75 0l-33.75 33.75c-2.96875 2.96875-2.96875 7.78125 0 10.75 1.484375 1.488281 3.429688 2.230469 5.375 2.230469 1.945313 0 3.890625-.742188 5.375-2.230469zm0 0"/><path d="m63.980469 213.523438c-3.714844-5.445313-12.464844-3.824219-13.777344 2.726562-1.378906 6.90625 7.007813 11.835938 12.363281 7.289062 2.890625-2.453124 3.550782-6.855468 1.414063-10.015624zm0 0"/><path d="m181.070312 105.332031c1.484376 1.484375 3.433594 2.226563 5.378907 2.226563 1.945312 0 3.890625-.742188 5.375-2.226563 2.96875-2.96875 2.96875-7.785156 0-10.753906-26.6875-26.683594-70.109375-26.683594-96.796875 0-2.96875 2.972656-2.96875 7.785156 0 10.753906s7.785156 2.96875 10.753906 0c20.757812-20.757812 54.53125-20.757812 75.289062 0zm0 0"/><path d="m212.960938 81.046875c1.945312 0 3.890624-.742187 5.375-2.226563 2.96875-2.96875 2.96875-7.78125 0-10.75-20.007813-20.007812-46.613282-31.03125-74.90625-31.03125-28.300782 0-54.902344 11.019532-74.910157 31.03125-2.96875 2.96875-2.96875 7.78125 0 10.75s7.785157 2.96875 10.753907 0c17.132812-17.136718 39.917968-26.574218 64.152343-26.574218s47.019531 9.4375 64.15625 26.574218c1.484375 1.484376 3.429688 2.226563 5.378907 2.226563zm0 0"/><path d="m53.03125 52.582031c49.84375-49.84375 130.949219-49.84375 180.792969 0 1.480469 1.484375 3.429687 2.226563 5.375 2.226563 1.945312 0 3.890625-.742188 5.375-2.226563 2.96875-2.96875 2.96875-7.78125 0-10.753906-55.773438-55.769531-146.523438-55.769531-202.296875 0-2.96875 2.972656-2.96875 7.785156 0 10.753906 2.972656 2.96875 7.785156 2.96875 10.753906 0zm0 0"/></svg>