<?xml version="1.0" encoding="iso-8859-1"?>
<!-- Generator: Adobe Illustrator 21.0.0, SVG Export Plug-In . SVG Version: 6.00 Build 0)  -->
<svg version="1.1" id="Capa_1" xmlns="http://www.w3.org/2000/svg" xmlns:xlink="http://www.w3.org/1999/xlink" x="0px" y="0px"
	 viewBox="0 0 609.677 609.677" style="enable-background:new 0 0 609.677 609.677;" xml:space="preserve">
<g>
	<g>
		<g id="filled_outline_1_">
			<rect x="96.532" y="71.129" style="fill:#4398D1;" width="345.484" height="447.097"/>
			<polygon style="fill:#3E8CC7;" points="381.048,71.129 137.177,518.226 442.016,518.226 442.016,71.129 			"/>
			<path style="fill:#DADDDF;" d="M96.532,558.871c0,22.446,18.199,40.645,40.645,40.645h264.194
				c22.446,0,40.645-18.199,40.645-40.645v-40.645H96.532V558.871z"/>
			<path style="fill:#DADDDF;" d="M442.016,50.806c0-22.446-18.199-40.645-40.645-40.645H137.177
				c-22.446,0-40.645,18.199-40.645,40.645v20.323h345.484V50.806z"/>
			<rect x="259.113" y="548.71" style="fill:#BDBDBD;" width="20.323" height="20.323"/>
			<path style="fill:#5EB3D1;" d="M360.726,160.548v-16.705c0-5.599-3.81-10.466-9.237-11.828l-82.215-20.556l-82.215,20.556
				c-5.426,1.362-9.237,6.229-9.237,11.828v16.705c0,6.737,5.457,12.194,12.194,12.194l0,0h8.129v50.806h-20.323v20.323h182.903
				v-20.323h-20.323v-50.806h8.129C355.269,172.742,360.726,167.285,360.726,160.548L360.726,160.548z M279.435,172.742v50.806
				h-20.323v-50.806H279.435z M218.468,172.742h20.323v50.806h-20.323V172.742z M320.081,223.548h-20.323v-50.806h20.323V223.548z"
				/>
			<path style="fill:#87CED9;" d="M147.339,487.742V294.677c0-11.228,9.094-20.323,20.323-20.323h203.226
				c11.228,0,20.323,9.094,20.323,20.323v193.065"/>
			<rect x="147.339" y="345.484" style="fill:#5EB3D1;" width="243.871" height="20.323"/>
			<rect x="147.339" y="426.774" style="fill:#5EB3D1;" width="243.871" height="20.323"/>
			<rect x="177.823" y="304.839" style="fill:#5EB3D1;" width="20.323" height="20.323"/>
			<rect x="177.823" y="386.129" style="fill:#5EB3D1;" width="20.323" height="20.323"/>
			<rect x="177.823" y="467.419" style="fill:#5EB3D1;" width="20.323" height="20.323"/>
			<rect x="218.468" y="304.839" style="fill:#5EB3D1;" width="142.258" height="20.323"/>
			<rect x="218.468" y="386.129" style="fill:#5EB3D1;" width="101.613" height="20.323"/>
			<rect x="218.468" y="467.419" style="fill:#5EB3D1;" width="132.097" height="20.323"/>
			<rect x="127.016" y="101.613" style="fill:#5EB3D1;" width="20.323" height="20.323"/>
			<path style="fill:#FFB782;" d="M488.006,339.997l-45.99-55.481v132.097l-86.371-86.371
				c-14.256-13.799-37.007-13.433-50.806,0.823c-13.484,13.931-13.484,36.052,0,49.983l86.371,86.371l-8.363,14.642
				c-19.489,34.091-16.167,76.626,8.363,107.293v20.323h121.935V406.899C513.145,382.288,504.213,358.521,488.006,339.997z"/>
			<path style="fill:#F2A46F;" d="M472.5,457.258c-2.693,0-5.284-1.067-7.184-2.977l-30.484-30.484
				c-3.902-4.034-3.79-10.466,0.244-14.368c3.943-3.8,10.182-3.8,14.124,0l30.484,30.484c3.963,3.973,3.963,10.405,0,14.368
				C477.774,456.191,475.193,457.258,472.5,457.258z"/>
			<path d="M401.371,0H137.177c-28.045,0.03-50.776,22.761-50.806,50.806v508.065c0.03,28.045,22.761,50.776,50.806,50.806h264.194
				v-20.323c0-2.307-0.782-4.552-2.225-6.351c-22.05-27.354-25.027-65.459-7.479-95.902l8.363-14.642
				c2.256-3.973,1.585-8.962-1.636-12.194l-86.371-86.371c-9.907-10.222-9.643-26.531,0.579-36.438
				c9.989-9.684,25.871-9.684,35.859,0L455.155,444.15l14.368-14.368l-17.345-17.376v-99.713l28.177,33.99
				c14.581,16.664,22.629,38.064,22.629,60.216v202.779h20.323V406.899c0.02-26.978-9.724-53.042-27.436-73.385l-43.694-52.656
				V50.806C452.147,22.761,429.416,0.03,401.371,0z M137.177,20.323h264.194c16.837,0,30.484,13.647,30.484,30.484v10.161H106.694
				V50.806C106.694,33.969,120.34,20.323,137.177,20.323z M106.694,558.871v-30.484h253.544
				c-0.264,21.755,6.229,43.064,18.595,60.968H137.177C120.34,589.355,106.694,575.708,106.694,558.871z M157.5,365.806h127.92
				c1.717,7.56,5.345,14.551,10.517,20.323h-77.47v20.323h97.406l20.323,20.323H157.5V365.806z M360.726,321.341v-16.502H218.468
				v20.323h77.47c-5.172,5.772-8.8,12.763-10.517,20.323H157.5v-50.806c0-5.609,4.552-10.161,10.161-10.161h203.226
				c5.609,0,10.161,4.552,10.161,10.161v46.6l-18.219-18.219C362.179,322.408,361.407,321.95,360.726,321.341z M401.371,361.6
				v-66.922c0-16.837-13.647-30.484-30.484-30.484H167.661c-16.837,0-30.484,13.647-30.484,30.484v193.065H157.5v-40.645h199.019
				l22.02,22.02l-4.512,7.895c-5.497,9.674-9.44,20.15-11.696,31.053H106.694V81.29h325.161v310.793L401.371,361.6z"/>
			<rect x="259.113" y="548.71" width="20.323" height="20.323"/>
			<path d="M353.024,132.402l-81.29-20.323c-1.616-0.406-3.302-0.406-4.918,0l-81.29,20.323c-4.522,1.128-7.702,5.192-7.702,9.856
				v20.323c0,5.609,4.552,10.161,10.161,10.161h10.161v50.806h-20.323v20.323h182.903v-20.323h-20.323v-50.806h10.161
				c5.609,0,10.161-4.552,10.161-10.161v-20.323C360.726,137.594,357.545,133.53,353.024,132.402z M218.468,172.742h20.323v50.806
				h-20.323V172.742z M279.435,172.742v50.806h-20.323v-50.806H279.435z M320.081,223.548h-20.323v-50.806h20.323V223.548z
				 M340.403,152.419H198.145v-2.225l71.129-17.782l71.129,17.782V152.419z"/>
			<rect x="177.823" y="304.839" width="20.323" height="20.323"/>
			<rect x="177.823" y="386.129" width="20.323" height="20.323"/>
			<rect x="177.823" y="467.419" width="20.323" height="20.323"/>
			<rect x="218.468" y="467.419" width="132.097" height="20.323"/>
			<rect x="127.016" y="101.613" width="20.323" height="20.323"/>
		</g>
	</g>
</g>
<g>
</g>
<g>
</g>
<g>
</g>
<g>
</g>
<g>
</g>
<g>
</g>
<g>
</g>
<g>
</g>
<g>
</g>
<g>
</g>
<g>
</g>
<g>
</g>
<g>
</g>
<g>
</g>
<g>
</g>
</svg>
