<?xml version="1.0" encoding="iso-8859-1"?>
<!-- Generator: Adobe Illustrator 21.0.0, SVG Export Plug-In . SVG Version: 6.00 Build 0)  -->
<svg version="1.1" id="Capa_1" xmlns="http://www.w3.org/2000/svg" xmlns:xlink="http://www.w3.org/1999/xlink" x="0px" y="0px"
	 viewBox="0 0 609.677 609.677" style="enable-background:new 0 0 609.677 609.677;" xml:space="preserve">
<g>
	<g>
		<g id="filled_outline_25_">
			<path style="fill:#DADDDF;" d="M370.883,101.613c0-16.837-13.647-30.484-30.484-30.484H116.851
				c-16.837,0-30.484,13.647-30.484,30.484v20.323h284.516V101.613z"/>
			<path style="fill:#DADDDF;" d="M86.367,548.71c0,16.837,13.647,30.484,30.484,30.484h223.548
				c16.837,0,30.484-13.647,30.484-30.484v-20.323H86.367V548.71z"/>
			<rect x="86.367" y="121.935" style="fill:#4398D1;" width="284.516" height="406.452"/>
			<polygon style="fill:#3582BD;" points="86.367,467.419 86.367,528.387 370.883,528.387 370.883,182.903 			"/>
			<polygon style="fill:#87CED9;" points="309.915,193.065 289.593,182.903 269.27,193.065 248.948,182.903 228.625,193.065 
				208.303,182.903 187.98,193.065 167.657,182.903 147.335,193.065 127.012,182.903 127.012,497.903 330.238,497.903 
				330.238,182.903 			"/>
			<rect x="157.496" y="274.355" style="fill:#5EB3D1;" width="81.29" height="20.323"/>
			<rect x="259.109" y="274.355" style="fill:#5EB3D1;" width="40.645" height="20.323"/>
			<rect x="157.496" y="315" style="fill:#5EB3D1;" width="81.29" height="20.323"/>
			<rect x="259.109" y="315" style="fill:#5EB3D1;" width="40.645" height="20.323"/>
			<rect x="157.496" y="355.645" style="fill:#5EB3D1;" width="81.29" height="20.323"/>
			<rect x="157.496" y="396.29" style="fill:#5EB3D1;" width="81.29" height="20.323"/>
			<rect x="157.496" y="436.935" style="fill:#5EB3D1;" width="81.29" height="20.323"/>
			<rect x="157.496" y="477.581" style="fill:#5EB3D1;" width="81.29" height="20.323"/>
			<rect x="259.109" y="477.581" style="fill:#5EB3D1;" width="40.645" height="20.323"/>
			<rect x="187.98" y="233.71" style="fill:#5EB3D1;" width="91.452" height="20.323"/>
			<ellipse style="fill:#FDB62F;" cx="411.528" cy="124.964" rx="111.774" ry="114.802"/>
			<path style="fill:#FD7B2F;" d="M437.348,117.871l-46.742-11.665c-6.788-1.717-10.893-8.607-9.186-15.384
				c1.412-5.609,6.452-9.541,12.234-9.572h58.519V60.968H421.69V40.645h-20.323v20.323h-7.662
				c-18.219-0.112-33.075,14.561-33.187,32.78c-0.091,15.293,10.334,28.635,25.19,32.252l46.742,11.665
				c6.788,1.717,10.893,8.607,9.186,15.384c-1.412,5.609-6.452,9.541-12.234,9.572h-58.519v20.323h30.484v20.323h20.323v-20.363
				h7.662c18.219,0.112,33.075-14.561,33.187-32.78C462.629,134.83,452.204,121.488,437.348,117.871z"/>
			<path style="fill:#FFB782;" d="M412.128,375.704l-41.245-40.381v111.683l-79.35-79.685c-14.094-14.094-36.926-14.094-51.02,0
				s-14.094,36.926,0,51.02l0,0l89.287,89.287c-24.499,24.509-38.267,57.736-38.267,92.386v9.663h150.479V447.859
				C442.012,420.799,431.262,394.837,412.128,375.704z"/>
			<path style="fill:#F2A46F;" d="M391.206,477.581c-2.713-0.02-5.294-1.118-7.194-3.048l-20.323-20.414
				c-4.125-3.81-4.369-10.243-0.559-14.358c3.81-4.125,10.243-4.369,14.358-0.559c0.203,0.193,0.406,0.386,0.589,0.6l20.323,20.414
				c3.983,3.953,4.014,10.385,0.061,14.368C396.54,476.504,393.929,477.591,391.206,477.581z"/>
			<path d="M381.044,331.045v-66.851h-20.323v158.211l-20.323-20.414V254.032h-20.323v127.555l-21.339-21.45
				c-16.085-16.197-41.631-18.118-59.952-4.491h-81.29v20.323h65.53c-2.124,5.365-3.221,11.086-3.241,16.858
				c0,1.179,0.254,2.307,0.345,3.465h-62.634v20.323h69.097c1.89,3.231,4.176,6.229,6.788,8.911l52.005,52.056h-26.277v20.323h46.6
				l9.978,9.978c-2.886,3.333-5.589,6.798-8.129,10.344H96.528V132.097H269.27v-20.323H96.528v-10.161
				c0-11.228,9.094-20.323,20.323-20.323h162.581V60.968H116.851c-22.446,0-40.645,18.199-40.645,40.645V548.71
				c0,22.446,18.199,40.645,40.645,40.645H281.85c-0.264,3.536-0.478,7.113-0.478,10.659v9.663h20.323v-9.663
				c-0.081-31.978,12.63-62.655,35.3-85.202c3.963-3.963,3.963-10.405,0-14.368l-89.297-89.287
				c-10.121-10.121-10.121-26.531,0-36.652c10.263-9.765,26.379-9.765,36.642,0l99.672,100.099l14.388-14.348l-17.355-17.447
				v-83.323l23.899,23.371c17.294,17.203,26.978,40.604,26.907,64.992v161.829h20.323V447.849
				c0.081-29.813-11.787-58.407-32.943-79.41L381.044,331.045z M116.851,569.032c-11.228,0-20.323-9.094-20.323-20.323v-10.161
				h198.938c-4.684,9.714-8.231,19.947-10.547,30.484H116.851z"/>
			<path d="M269.27,181.704l-15.78-7.895c-2.855-1.433-6.229-1.433-9.084,0l-15.78,7.895l-15.78-7.895
				c-2.855-1.433-6.229-1.433-9.084,0l-15.781,7.895l-15.78-7.895c-2.855-1.433-6.229-1.433-9.084,0l-15.781,7.895l-15.78-7.895
				c-5.02-2.51-11.127-0.478-13.636,4.552c-0.701,1.402-1.067,2.967-1.067,4.542v315h20.323V199.344l5.619,2.815
				c2.855,1.433,6.229,1.433,9.084,0l15.78-7.895l15.78,7.895c2.855,1.433,6.229,1.433,9.084,0l15.78-7.895l15.78,7.895
				c2.855,1.433,6.229,1.433,9.084,0l15.78-7.895l15.78,7.895c2.855,1.433,6.229,1.433,9.084,0l10.161-5.081l-9.084-18.189
				L269.27,181.704z"/>
			<rect x="187.98" y="233.71" width="91.452" height="20.323"/>
			<rect x="157.496" y="274.355" width="81.29" height="20.323"/>
			<rect x="259.109" y="274.355" width="40.645" height="20.323"/>
			<rect x="157.496" y="315" width="81.29" height="20.323"/>
			<rect x="259.109" y="315" width="40.645" height="20.323"/>
			<rect x="157.496" y="436.935" width="81.29" height="20.323"/>
			<rect x="157.496" y="477.581" width="81.29" height="20.323"/>
			<path d="M411.528,0c-68.152,0.925-122.698,56.832-121.935,124.984c0,67.339,54.597,121.935,121.935,121.935
				s121.935-54.597,121.935-121.935C534.226,56.832,479.68,0.925,411.528,0z M411.528,229.645
				c-56.934-0.904-102.385-47.728-101.613-104.661c0-56.121,45.492-101.613,101.613-101.613s101.613,45.492,101.613,101.613
				C513.913,181.918,468.452,228.741,411.528,229.645z"/>
			<path d="M437.348,117.871l-46.742-11.665c-6.788-1.717-10.893-8.607-9.186-15.384c1.412-5.609,6.452-9.541,12.234-9.572h58.519
				V60.968H421.69V40.645h-20.323v20.323h-7.662c-18.219-0.112-33.075,14.561-33.187,32.78
				c-0.091,15.293,10.334,28.635,25.19,32.252l46.742,11.665c6.788,1.717,10.893,8.607,9.186,15.384
				c-1.412,5.609-6.452,9.541-12.234,9.572h-58.519v20.323h30.484v20.323h20.323v-20.363h7.662
				c18.219,0.112,33.075-14.561,33.187-32.78C462.629,134.83,452.204,121.488,437.348,117.871z"/>
		</g>
	</g>
</g>
<g>
</g>
<g>
</g>
<g>
</g>
<g>
</g>
<g>
</g>
<g>
</g>
<g>
</g>
<g>
</g>
<g>
</g>
<g>
</g>
<g>
</g>
<g>
</g>
<g>
</g>
<g>
</g>
<g>
</g>
</svg>
