<?xml version="1.0" encoding="iso-8859-1"?>
<!-- Generator: Adobe Illustrator 21.0.0, SVG Export Plug-In . SVG Version: 6.00 Build 0)  -->
<svg version="1.1" id="Capa_1" xmlns="http://www.w3.org/2000/svg" xmlns:xlink="http://www.w3.org/1999/xlink" x="0px" y="0px"
	 viewBox="0 0 609.677 609.677" style="enable-background:new 0 0 609.677 609.677;" xml:space="preserve">
<g>
	<g>
		<g id="filled_outline_20_">
			<rect x="132.097" y="71.129" style="fill:#87CED9;" width="345.484" height="447.097"/>
			<polygon style="fill:#71C4D1;" points="132.097,497.903 132.097,518.226 477.581,518.226 477.581,152.419 			"/>
			<path style="fill:#DADDDF;" d="M477.581,50.806c0-22.446-18.199-40.645-40.645-40.645H172.742
				c-22.446,0-40.645,18.199-40.645,40.645v20.323h345.484V50.806z"/>
			<path style="fill:#DADDDF;" d="M132.097,518.226v40.645c0,22.446,18.199,40.645,40.645,40.645h264.194
				c22.446,0,40.645-18.199,40.645-40.645v-40.645H132.097z"/>
			<rect x="294.677" y="548.71" style="fill:#C1C7C9;" width="20.323" height="20.323"/>
			<path style="fill:#4398D1;" d="M10.161,355.645V172.742c0-22.446,18.199-40.645,40.645-40.645h325.161
				c22.446,0,40.645,18.199,40.645,40.645v182.903c0,22.446-18.199,40.645-40.645,40.645H50.806
				C28.36,396.29,10.161,378.091,10.161,355.645z"/>
			<path style="fill:#3E8CC7;" d="M375.968,132.097L111.774,396.29h264.194c22.446,0,40.645-18.199,40.645-40.645V172.742
				C416.613,150.296,398.414,132.097,375.968,132.097z"/>
			<path style="fill:#71C4D1;" d="M412.955,156.077c2.398,5.233,3.648,10.913,3.658,16.665v182.903
				c0,22.446-18.199,40.645-40.645,40.645H132.097v20.323H396.29c22.446,0,40.645-18.199,40.645-40.645V193.065
				C436.915,177.091,427.526,162.611,412.955,156.077z"/>
			<rect x="50.806" y="172.742" style="fill:#FDB62F;" width="60.968" height="60.968"/>
			<rect x="50.806" y="264.194" style="fill:#5EB3D1;" width="40.645" height="20.323"/>
			<rect x="50.806" y="315" style="fill:#5EB3D1;" width="40.645" height="20.323"/>
			<rect x="223.548" y="315" style="fill:#5EB3D1;" width="40.645" height="20.323"/>
			<rect x="111.774" y="264.194" style="fill:#5EB3D1;" width="40.645" height="20.323"/>
			<rect x="172.742" y="264.194" style="fill:#5EB3D1;" width="40.645" height="20.323"/>
			<rect x="233.71" y="264.194" style="fill:#5EB3D1;" width="40.645" height="20.323"/>
			<rect x="294.677" y="264.194" style="fill:#5EB3D1;" width="40.645" height="20.323"/>
			<rect x="355.645" y="172.742" style="fill:#5EB3D1;" width="20.323" height="20.323"/>
			<rect x="315" y="172.742" style="fill:#5EB3D1;" width="20.323" height="20.323"/>
			<rect x="274.355" y="172.742" style="fill:#5EB3D1;" width="20.323" height="20.323"/>
			<rect x="233.71" y="172.742" style="fill:#5EB3D1;" width="20.323" height="20.323"/>
			<circle style="fill:#FDB62F;" cx="355.645" cy="335.323" r="20.323"/>
			<circle style="fill:#DE4C3C;" cx="315" cy="335.323" r="20.323"/>
			<polygon style="fill:#FFA230;" points="50.806,218.468 50.806,233.71 111.774,233.71 111.774,172.742 96.532,172.742 			"/>
			<path style="fill:#FFB782;" d="M574.377,360.319l-96.796-106.287v132.097l-35.565-35.565
				c-14.256-13.799-37.007-13.433-50.806,0.823c-13.484,13.931-13.484,36.052,0,49.983l86.371,86.371l-6.015,12.021
				c-15.567,31.134-17.071,67.441-4.146,99.753v10.161h132.097V427.221C599.516,402.611,590.584,378.843,574.377,360.319z"/>
			<path style="fill:#F2A46F;" d="M538.548,457.258c-2.693,0-5.284-1.067-7.184-2.977l-60.968-60.968
				c-3.902-4.034-3.79-10.466,0.244-14.368c3.943-3.8,10.182-3.8,14.124,0l60.968,60.968c3.963,3.973,3.963,10.405,0,14.368
				C543.822,456.191,541.241,457.258,538.548,457.258z"/>
			<rect x="294.677" y="548.71" width="20.323" height="20.323"/>
			<path d="M487.742,250.09V50.806C487.711,22.761,464.981,0.03,436.935,0H172.742c-28.045,0.03-50.776,22.761-50.806,50.806v50.806
				h20.323V81.29h325.161V361.6L449.2,343.38c-6.158-6.137-13.931-10.395-22.426-12.275V172.742
				c-0.03-28.045-22.761-50.776-50.806-50.806H50.806C22.761,121.966,0.03,144.697,0,172.742v182.903
				c0.03,28.045,22.761,50.776,50.806,50.806h325.161c1.961-0.081,3.922-0.274,5.863-0.579c0.762,0.884,1.362,1.849,2.195,2.683
				l81.189,81.189l-2.733,5.477c-2.093,4.176-3.953,8.464-5.579,12.844H142.258v-81.29h-20.323v132.097
				c0.03,28.045,22.761,50.776,50.806,50.806h264.194c7.011-0.061,13.931-1.575,20.323-4.44v4.44h20.323v-10.161
				c0-1.29-0.244-2.571-0.721-3.77c-11.858-29.63-10.476-62.909,3.8-91.452l6.016-12.031c1.951-3.912,1.179-8.637-1.91-11.726
				l-86.371-86.371c-9.907-10.222-9.643-26.531,0.579-36.438c9.989-9.684,25.871-9.684,35.859,0l106.694,106.694l14.368-14.368
				l-68.152-68.131V280.309l78.984,86.727c14.581,16.665,22.619,38.054,22.629,60.195v182.446h20.323V427.231
				c-0.01-27.141-9.887-53.357-27.781-73.761L487.742,250.09z M172.742,589.355c-16.837,0-30.484-13.647-30.484-30.484v-30.484
				h309.025c-3.78,18.768-3.435,38.135,1.016,56.761c-4.654,2.744-9.958,4.186-15.364,4.207H172.742z M385.215,342.435
				c0.589-2.327,0.894-4.715,0.915-7.113c0.071-16.766-13.454-30.413-30.22-30.484c-7.611-0.03-14.968,2.794-20.587,7.926
				c-12.458-11.32-31.734-10.405-43.064,2.053c-11.32,12.458-10.405,31.734,2.053,43.064c11.625,10.568,29.376,10.568,41.011,0
				c10.598,9.765,26.643,10.619,38.217,2.032c-3.109,8.383-3.719,17.488-1.748,26.216H50.806c-16.837,0-30.484-13.647-30.484-30.484
				V172.742c0-16.837,13.647-30.484,30.484-30.484h325.161c16.837,0,30.484,13.647,30.484,30.484v158.364
				C398.485,332.914,391.149,336.826,385.215,342.435z M365.806,335.323c0,5.609-4.552,10.161-10.161,10.161
				c-5.609,0-10.161-4.552-10.161-10.161s4.552-10.161,10.161-10.161C361.254,325.161,365.806,329.714,365.806,335.323z
				 M325.161,335.323c0,5.609-4.552,10.161-10.161,10.161s-10.161-4.552-10.161-10.161s4.552-10.161,10.161-10.161
				S325.161,329.714,325.161,335.323z M142.258,60.968V50.806c0-16.837,13.647-30.484,30.484-30.484h264.194
				c16.837,0,30.484,13.647,30.484,30.484v10.161H142.258z"/>
			<path d="M111.774,243.871c5.609,0,10.161-4.552,10.161-10.161v-60.968c0-5.609-4.552-10.161-10.161-10.161H50.806
				c-5.609,0-10.161,4.552-10.161,10.161v60.968c0,5.609,4.552,10.161,10.161,10.161H111.774z M60.968,182.903h40.645v40.645H60.968
				V182.903z"/>
			<rect x="50.806" y="264.194" width="40.645" height="20.323"/>
			<rect x="50.806" y="315" width="40.645" height="20.323"/>
			<rect x="223.548" y="315" width="40.645" height="20.323"/>
			<rect x="111.774" y="264.194" width="40.645" height="20.323"/>
			<rect x="172.742" y="264.194" width="40.645" height="20.323"/>
			<rect x="233.71" y="264.194" width="40.645" height="20.323"/>
			<rect x="294.677" y="264.194" width="40.645" height="20.323"/>
			<rect x="355.645" y="172.742" width="20.323" height="20.323"/>
			<rect x="315" y="172.742" width="20.323" height="20.323"/>
			<rect x="274.355" y="172.742" width="20.323" height="20.323"/>
			<rect x="233.71" y="172.742" width="20.323" height="20.323"/>
		</g>
	</g>
</g>
<g>
</g>
<g>
</g>
<g>
</g>
<g>
</g>
<g>
</g>
<g>
</g>
<g>
</g>
<g>
</g>
<g>
</g>
<g>
</g>
<g>
</g>
<g>
</g>
<g>
</g>
<g>
</g>
<g>
</g>
</svg>
