<svg width="72" height="72" xmlns="http://www.w3.org/2000/svg"><defs><filter x="-31.9%" y="-31.9%" width="163.9%" height="163.9%" filterUnits="objectBoundingBox" id="a"><feOffset dy="4" in="SourceAlpha" result="shadowOffsetOuter1"/><feGaussianBlur stdDeviation="4" in="shadowOffsetOuter1" result="shadowBlurOuter1"/><feColorMatrix values="0 0 0 0 0.11372549 0 0 0 0 0.168627451 0 0 0 0 0.298039216 0 0 0 0.16 0" in="shadowBlurOuter1" result="shadowMatrixOuter1"/><feMerge><feMergeNode in="shadowMatrixOuter1"/><feMergeNode in="SourceGraphic"/></feMerge></filter></defs><path d="M28 33v-4a4 4 0 1 1 8 0v14a4 4 0 1 0 8 0v-4m-16-3a3 3 0 0 1 3 3v4h-6v-4a3 3 0 0 1 3-3zm16 0a3 3 0 0 1-3-3v-4h6v4a3 3 0 0 1-3 3z" filter="url(#a)" stroke="#FFF" stroke-width="2" fill="none" stroke-linecap="square"/></svg>