<svg width="64" height="64" xmlns="http://www.w3.org/2000/svg"><defs><linearGradient x1="15.283%" y1="12.726%" x2="85.242%" y2="83.844%" id="a"><stop stop-color="#0091ea" offset="0%"/><stop stop-color="#0091ea" offset="100%"/></linearGradient></defs><g fill="none" fill-rule="evenodd"><g><rect fill="url(#a)" width="64" height="64" rx="16"/><path d="M10.613 25.521l-.04-.147c-.016.006-.024.021-.05.014-.057-.114-.003-.164-.006-.248.004 0 .007.005.01.005l-.038-.138c.113-.032.22.05.261.198l-.135.036.006.013.129-.05a.303.303 0 0 1-.017.222.196.196 0 0 1-.12.095zM4.34 46.517l.044.162a.209.209 0 0 1-.201-.053.27.27 0 0 1-.074-.128l.159-.045-.159.045c-.041-.149.026-.289.156-.324l.046.167c.016-.006.027-.017.052-.01.042.088-.027.114-.01.189-.005.002-.008-.004-.013-.003zm36.537-15.47l-.172.048-.16-.076c-.068-.158-.033-.269-.009-.349a.245.245 0 0 0 .018-.083l.207-.116c.075.045.098.122.122.197a.806.806 0 0 0 .074.178l-.08.202zm10.084 25.719l-.1.068c-.064.008-.279.01-.33-.312l.115-.157c0 .003-.017.026-.016.045l.113-.134c.083-.014.16.02.206.086.085.124.046.342.012.404zm-12.356.031l-.07-.113-.023-.077c-.003-.11.033-.308.33-.39l.064-.016.167.027.18.161.048.16a.473.473 0 0 1-.323.344.414.414 0 0 1-.315-.039l-.058-.057zm3.987-9.247l-.183-.118c0 .004 0 .013.005.02l-.078-.05c-.024-.17.144-.222.198-.239a.245.245 0 0 0 .04-.013l.171.064a.23.23 0 0 1 .02.19c-.036.092-.125.127-.173.146zm6.405-8.315a.39.39 0 0 0 .042-.033c-.028.028-.072.073-.167.1l-.175-.17c.016-.046.02-.07.009-.108l.083-.167.038-.012a.28.28 0 0 1 .232.025c.067.043.11.116.126.218l-.188.147zm-4.364 22.751a.25.25 0 0 1-.18.3.26.26 0 0 1-.221-.038.286.286 0 0 1-.111-.22l.073-.13a.422.422 0 0 1 .075-.029c.082-.023.145-.007.187.002a.17.17 0 0 0 .04.008l.137.107zM2.574 36.526c-.119.016-.195-.045-.242-.083a.141.141 0 0 0-.036-.025l-.15-.15c.01-.09.06-.157.139-.179.159-.044.358.13.4.261l-.111.176zm4.938 17.642l-.016-.025c-.008-.167.046-.41.35-.616l.053.034.23-.165.546-.063c.274.107.466.292.545.518.128.375-.098.678-.219.84l-.049.068-.126.149-.207.155-.314.11c-.306.014-.584-.103-.742-.313-.196-.26-.133-.518-.05-.692zm5.613-15.735l-.079-.09-.034-.064-.031-.115.009-.11.072-.158.087-.084.062-.022a.41.41 0 0 1 .267.019l.209.162.058.123c.001.31-.207.392-.27.41-.133.036-.252-.013-.29-.029l-.06-.042zm-4.432 1.9l-.175-.113-.066-.091-.03-.115.014-.122.094-.167.096-.075.17-.048.108.01.158.072.077.076c.08.167.027.301.01.346l-.157.207-.117.059c-.087.003-.15-.025-.182-.039zM3.862 57.261l.055-.086a.623.623 0 0 1 .224-.128c.174-.048.33.025.428.2l.065.112.02.063c.012.097-.005.274-.241.381l-.02-.004-.038.053-.12.064c-.197.01-.33-.111-.393-.36l-.018-.14.038-.155zM1.73 53.245l-.13.055c-.33-.023-.032-.855.066-.793.179.112.219.326.24.44l-.036.136-.14.162zm24.206-9.777l-.085-.065-.166-.299a.727.727 0 0 1 .526-.816l.338.005.23.124.17.229.09.008.198.099.195.216a.88.88 0 0 1 .02.64l-.058.114-.16.232-.292.173a.66.66 0 0 1-.334-.074l-.063-.037-.185-.136-.1-.155a.742.742 0 0 1-.337-.24l.013-.018zm7.86 5.86a.378.378 0 0 1-.253.204.414.414 0 0 1-.404-.092.376.376 0 0 1-.082-.376l.04-.068.094-.091.068-.04.116-.032.137.027.098.073.018-.017.083.037.076.074a.35.35 0 0 1 .009.3zm-3.747 8.336a.973.973 0 0 1-.402.236c-.53.153-1.058-.205-1.233-.833l.04-.36.13-.248.274-.225.483-.14.342.045.233.14.212.284.11.424-.002.258-.056.204-.13.215zm-4.004-9.963l-.219-.198a1.051 1.051 0 0 1-.063-.952.988.988 0 0 1 .656-.547c.229-.06.472-.04.697.059l.227.205.115.215.044.295-.018.08c-.036.205-.138.774-.822.953l-.4-.012-.217-.098zm2.306-20.521l-.16.169c-.064-.015-.13.008-.189.033-.155.063-.288.067-.41-.031l-.027-.188c.083-.112.167-.165.248-.216a.97.97 0 0 0 .216-.171l.228.058.094.346zm-9.76 23.727l.326-.254.292-.081.369.03.268.124.262.26c.178.38.062.69.024.791l-.082.147-.22.281-.396.206a.91.91 0 0 1-.446-.093l-.328-.206-.228-.311-.053-.197.052-.412.16-.285zm-1.991-4.591l-.045-.291c.078-.693.507-.888.688-.942.266-.076.543-.024.83.156l.224.3.082.29-.026.382a1.18 1.18 0 0 1-.732.64.87.87 0 0 1-.733-.098l-.19-.22-.098-.217zm-.214-11.925c.017.061.01.125-.02.177-.077.138-.313.17-.448.068a.3.3 0 0 1-.115-.242l.069-.12a.363.363 0 0 1 .074-.032c.12-.033.199.032.237.064l.203.085zm3.742 1.082a.394.394 0 0 1-.283.26.392.392 0 0 1-.376-.078.382.382 0 0 1-.108-.36l.04-.079.096-.104.074-.046.171-.047h.087l.136.041.074.048c.093.107.126.24.089.365zM40.8 41.11a.746.746 0 0 1-.068.015l-.05.011-.197-.147c.015-.078.052-.261.204-.304a.248.248 0 0 1 .194.035l.044.04c.05.078.063.15.038.216-.035.098-.133.125-.165.134zm-29.06 8.528l-.253-.086a.903.903 0 0 1-.389-.923 1 1 0 0 1 .725-.788.945.945 0 0 1 .917.26l.126.238.04.215-.034.272c-.107.238-.254.566-.653.77l-.261.055-.218-.013zm7.921 4.792l.335.27.204.38c.018.179.023.773-.702 1.014l-.457-.008-.304-.157-.279-.356-.078-.305.087-.488.216-.303.42-.224c.28-.001.474.123.558.177zm-9.23 6.997l-.194-.242c-.1-.27-.087-.558.03-.812.13-.27.366-.473.65-.556a.953.953 0 0 1 .707.06l.19.18.111.192.07.268c-.01.392-.238.872-.85 1.052a1.93 1.93 0 0 1-.21.048l-.295-.06-.208-.13zm21.05-23.87l-.186-.148-.057-.117c-.005-.092.026-.16.04-.191l.154-.193.117-.057c.094-.003.163.032.189.045l.183.147.058.114a.386.386 0 0 1-.042.197l-.143.186-.116.06a.387.387 0 0 1-.198-.043z" fill-opacity=".32" fill="#FFF"/><path d="M61.103 21.675c.289.698-.371.237-.77.632-.302-.562.446-1.017.77-.632zm-.05 7.772c.199 1.197-.595 2.297-1.04 3.432l-.95-1.152c.88-.504 1.139-1.068.522-1.717.476-.05.954-.112 1.468-.563zM38 48.413c.31.62-.7 1.11-1.22 1.648-.31-.619.7-1.109 1.22-1.648zM24.417 60.876l.632.77-.77.631-.631-.769c.257-.21.513-.42.769-.632zm36.34-24.743l-1.154.948c-.912-.678.283-1.15-.179-1.784.5-.31.9.434 1.332.836zm-2.15 7.568c1.208-2.61-.51-3.331.929-5.918 1.163 2.115.712 4.074-.93 5.918zm-2.962 5.013c-.28-.616.179-1.16-.18-1.784 1.085-.632 1.249 1.471.18 1.784zm-11.843 9.1c.483.046-.645 2.306-.837 1.332-.03-.151.242-1.391.837-1.332zm14.712-9.527c-.204-.956-.358-2.187.905-2.033.171.724-.233 1.391-.905 2.033zm4.134 1.11c.58 1.59-1.402.531-1.717-.522.625-.368 1.077 1.036 1.717.521zM15.042 11.892c-.91.55-.695-1.666.204-2.102.555.762-1.05 1.312-.204 2.102zm-1.114 15.09c-1.226.107-.712-1.633-2.281-1.987 2.099-1.132 1.607.709 2.28 1.988zM4.842 33.17c-1.1.63-.04-1.353.521-1.716.014.59-.219 1.157-.52 1.716zm8.088.433c-.514-.323-2.231 1.09-.768.632.252-.171.503-.316.7.068-.386.316-.2.688-.451 1.016-.175-.214-.67-.18-.385.316 1.263.155 1.109-1.077.904-2.032zm2.801.273c.273 1.005-.569-.228-1.084.248-1.597.478.687-1.414 1.084-.248zm42.973-5.718c.815-1.003.951-1.881 2.17-.496-.815 1.003-.952 1.88-2.17.496zm-21.18 25.157c-1.721-.874 1.114-1.306.204-2.102.91-.549.694 1.667-.204 2.102zM57.59 43.248c-1.086.631-1.249-1.47-.18-1.784.071.596-.557 1.123.18 1.784zm1.487 6.508c.63 1.1-1.353.04-1.716-.521.59-.013 1.157.22 1.716.52z" fill-opacity=".32" fill="#FFF"/></g><g transform="translate(16 16)" fill="#FFF" fill-rule="nonzero"><path d="M16 8c.712-.003 1.41-.2 2.019-.567l5.1 5.1a6.007 6.007 0 0 1 1.414-1.414l-5.1-5.1c.368-.61.564-1.307.567-2.019a4 4 0 1 0-4 4z"/><circle cx="16" cy="16" r="4"/><path d="M7.433 13.981l5.1-5.1a6.007 6.007 0 0 1-1.414-1.414l-5.1 5.1A3.947 3.947 0 0 0 4 12a4 4 0 1 0 4 4 3.947 3.947 0 0 0-.567-2.019z" fill-opacity=".72"/><path d="M16 24c-.712.003-1.41.2-2.019.567l-5.1-5.1a6.007 6.007 0 0 1-1.414 1.414l5.1 5.1A3.947 3.947 0 0 0 12 28a4 4 0 1 0 4-4z"/><path d="M28 12a4 4 0 0 0-4 4c.003.712.2 1.41.567 2.019l-5.1 5.1a6.007 6.007 0 0 1 1.414 1.414l5.1-5.1c.61.368 1.307.564 2.019.567a4 4 0 1 0 0-8z" fill-opacity=".72"/></g></g></svg>