<svg height="512pt" viewBox="-84 0 512 512" width="512pt" xmlns="http://www.w3.org/2000/svg"><path d="m308.859375 224.210938h-274.71875c-10.402344-10.402344-16.238281-16.234376-26.640625-26.640626v-190.570312h40v177.210938h248v-177.210938h40v190.570312c-10.402344 10.40625-16.238281 16.238282-26.640625 26.640626zm0 0" fill="#e2e8ed"/><path d="m220.5 505h-98v-159.753906c6.066406-6.066406 9.472656-9.46875 15.539062-15.539063h66.921876c6.066406 6.070313 9.472656 9.472657 15.539062 15.539063zm0 0" fill="#ff3f62"/><path d="m150.003906 224.210938h42.996094v105.496093h-42.996094zm0 0" fill="#e2e8ed"/><path d="m37.5 197.570312v-190.570312h-30v190.570312l26.640625 26.640626h30zm0 0" fill="#c6c5ca"/><path d="m168.039062 329.707031h-30l-15.539062 15.539063v159.753906h30v-159.753906zm0 0" fill="#c70024"/><path d="m150.003906 224.210938h20v105.496093h-20zm0 0" fill="#c6c5ca"/><path d="m288 0v176.710938h-233v-176.710938h-55v200.675781l31.035156 31.039063h111.46875v77.992187h15v-77.992187h27.996094v77.992187h15v-77.992187h111.464844l31.035156-31.039063v-200.675781zm40 194.464844-22.246094 22.25h-268.503906l-22.25-22.25v-179.464844h25v176.710938h263v-176.710938h25zm0 0"/><path d="m134.933594 322.207031-19.933594 19.933594v169.859375h113v-169.859375l-19.933594-19.933594zm78.066406 174.792969h-83v-148.648438l11.144531-11.144531h60.710938l11.144531 11.144531zm0 0"/><path d="m179 475h-15v-63.179688h15zm0-73.179688h-15v-15h15zm0-25h-15v-15h15zm0 0" fill="#fff"/></svg>