<?xml version="1.0" encoding="iso-8859-1"?>
<!-- Generator: Adobe Illustrator 21.0.0, SVG Export Plug-In . SVG Version: 6.00 Build 0)  -->
<svg version="1.1" id="Capa_1" xmlns="http://www.w3.org/2000/svg" xmlns:xlink="http://www.w3.org/1999/xlink" x="0px" y="0px"
	 viewBox="0 0 511.999 511.999" style="enable-background:new 0 0 511.999 511.999;" xml:space="preserve">
<path style="fill:#EFEDEE;" d="M256,168.826L256,168.826c-9.82,0-17.781-7.961-17.781-17.781V97.427
	c0-9.82,7.961-17.781,17.781-17.781l0,0c9.82,0,17.781,7.961,17.781,17.781v53.617C273.781,160.864,265.82,168.826,256,168.826z"/>
<path style="fill:#D4D2D3;" d="M256.255,151.044V97.427c0-6.524,3.525-12.212,8.763-15.306c-2.646-1.563-5.722-2.476-9.018-2.476
	c-9.82,0-17.781,7.961-17.781,17.781v53.617c0,9.82,7.961,17.781,17.781,17.781c3.296,0,6.372-0.913,9.018-2.476
	C259.78,163.256,256.255,157.568,256.255,151.044z"/>
<path style="fill:#FFCE1C;" d="M299.834,197.884h-87.668v-40.141c0-4.645,3.765-8.41,8.41-8.41h70.848c4.645,0,8.41,3.765,8.41,8.41
	V197.884z"/>
<path style="fill:#ECB000;" d="M250.637,149.334h-30.061c-4.645,0-8.41,3.765-8.41,8.41v40.141h30.061v-40.141
	C242.227,153.099,245.992,149.334,250.637,149.334z"/>
<path style="fill:#DC5A64;" d="M321.359,188.074v-4.628c0-5.433-4.404-9.837-9.837-9.837H200.478c-5.433,0-9.837,4.404-9.837,9.837
	v4.626c0,42.311-13.684,83.272-37.984,117.909c-14.088,20.081-22.472,44.455-22.798,70.77
	c-0.864,69.642,55.587,127.255,125.233,127.745c70.089,0.494,127.06-56.174,127.06-126.148c0-27.384-8.725-52.73-23.547-73.409
	C334.21,270.904,321.359,229.949,321.359,188.074z"/>
<path style="fill:#BF4E57;" d="M158.531,376.752c0.326-26.315,8.71-50.69,22.798-70.77c24.3-34.637,37.984-75.598,37.984-117.909
	v-4.626c0-5.433,4.404-9.837,9.837-9.837h-28.672c-5.433,0-9.837,4.404-9.837,9.837v4.626c0,42.311-13.684,83.272-37.984,117.909
	c-14.088,20.081-22.472,44.455-22.798,70.77c-0.864,69.642,55.587,127.255,125.233,127.745c5.167,0.036,10.26-0.246,15.267-0.813
	C207.02,496.457,157.723,441.865,158.531,376.752z"/>
<path style="fill:#3A484A;" d="M282.241,188.074v-4.628c0-5.433-1.768-9.837-3.95-9.837h-44.582c-2.181,0-3.95,4.404-3.95,9.837
	v4.626c0,42.311-5.494,83.272-15.25,117.909c-5.656,20.081-9.022,44.455-9.153,70.77c-0.347,69.642,22.317,127.255,50.279,127.745
	c28.14,0.494,51.013-56.174,51.013-126.148c0-27.384-3.503-52.73-9.454-73.409C287.4,270.904,282.241,229.949,282.241,188.074z"/>
<path d="M364.7,300.57c-23.447-32.714-35.84-71.615-35.84-112.496v-4.628c0-9.56-7.777-17.337-17.337-17.337h-4.188v-8.365
	c0-8.773-7.137-15.91-15.91-15.91h-10.143v-28.686c9.661-7.309,15.795-18.433,16.63-30.538c0.946-13.721-4.865-27.058-15.544-35.675
	C270.377,37.259,263.5,22.886,263.5,7.5c0-4.142-3.358-7.5-7.5-7.5s-7.5,3.358-7.5,7.5c0,19.943,8.911,38.571,24.448,51.108
	c6.871,5.544,10.609,14.13,9.999,22.969c-0.229,3.322-1.087,6.531-2.478,9.486C277.64,80.194,267.743,72.146,256,72.146
	c-11.758,0-21.666,8.068-24.481,18.958c-1.644-3.519-2.533-7.41-2.533-11.458c0-4.142-3.358-7.5-7.5-7.5s-7.5,3.358-7.5,7.5
	c0,13.358,6.197,25.619,16.732,33.538v28.65h-10.143c-8.772,0-15.91,7.137-15.91,15.91v8.365h-4.188
	c-9.56,0-17.337,7.777-17.337,17.337v4.625c0,40.168-12.664,79.451-36.624,113.602c-15.47,22.05-23.823,47.979-24.158,74.985
	c-0.443,35.71,13.175,69.51,38.346,95.175c25.154,25.648,58.656,39.911,94.333,40.163l0.96,0.003l0,0l0,0H256
	c0.004,0,0.009,0,0.013,0c35.697,0,69.256-13.901,94.496-39.142c25.242-25.243,39.143-58.807,39.143-94.509
	C389.651,350.239,381.024,323.344,364.7,300.57z M245.718,97.427c0-5.669,4.612-10.281,10.282-10.281
	c5.669,0,10.281,4.612,10.281,10.281v44.407h-20.563V97.427z M219.666,157.744c0-0.502,0.408-0.91,0.91-0.91h17.633
	c0.003,0,0.006,0,0.01,0s0.006,0,0.01,0h35.544c0.003,0,0.006,0,0.01,0s0.006,0,0.01,0h17.633c0.501,0,0.91,0.408,0.91,0.91v8.365
	h-72.668v-8.365H219.666z M137.358,376.844c0.297-23.973,7.71-46.988,21.438-66.555c25.739-36.688,39.344-78.95,39.344-122.217
	v-4.625c0-1.289,1.048-2.337,2.337-2.337h21.872c-0.054,0.76-0.091,1.535-0.091,2.337v4.625c0,41.04-5.176,81.109-14.969,115.876
	c-6.042,21.45-9.304,46.612-9.434,72.767c-0.172,34.615,5.171,67.497,15.045,92.588c3.685,9.363,7.891,17.299,12.505,23.695
	c-20.262-5.415-38.832-16.209-53.992-31.667C149.06,438.538,136.965,408.533,137.358,376.844z M339.901,462.251
	c-14.992,14.993-33.291,25.471-53.251,30.769c3.453-4.761,6.673-10.372,9.603-16.79c9.636-21.106,15.837-49.915,17.461-81.119
	c0.215-4.137-2.963-7.665-7.1-7.879c-4.136-0.205-7.665,2.963-7.879,7.1C295.428,457.9,274.02,497,255.985,497
	c-0.072,0-0.146,0-0.218-0.002c-9.992-0.175-20.799-12.582-28.908-33.188c-9.193-23.36-14.166-54.265-14.003-87.021
	c0.124-24.824,3.191-48.605,8.873-68.774c10.16-36.071,15.531-77.547,15.531-119.943v-4.625c0-0.903,0.074-1.68,0.174-2.337h37.133
	c0.1,0.658,0.174,1.435,0.174,2.337v4.628c0,43.151,5.272,84.279,15.246,118.939c5.064,17.6,8.161,38.344,8.955,59.992
	c0.148,4.046,3.475,7.225,7.49,7.225c0.093,0,0.186-0.001,0.28-0.005c4.139-0.152,7.372-3.63,7.22-7.77
	c-0.838-22.847-4.133-44.836-9.53-63.59c-9.591-33.33-14.661-73.024-14.661-114.791v-4.628c0-0.803-0.037-1.577-0.091-2.337h21.872
	c1.289,0,2.337,1.048,2.337,2.337v4.628c0,44.035,13.365,85.957,38.649,121.234c14.486,20.21,22.143,44.084,22.143,69.04
	C374.651,410.044,362.31,439.842,339.901,462.251z"/>
<g>
</g>
<g>
</g>
<g>
</g>
<g>
</g>
<g>
</g>
<g>
</g>
<g>
</g>
<g>
</g>
<g>
</g>
<g>
</g>
<g>
</g>
<g>
</g>
<g>
</g>
<g>
</g>
<g>
</g>
</svg>
