<?xml version="1.0" encoding="iso-8859-1"?>
<!-- Generator: Adobe Illustrator 21.0.0, SVG Export Plug-In . SVG Version: 6.00 Build 0)  -->
<svg version="1.1" id="Capa_1" xmlns="http://www.w3.org/2000/svg" xmlns:xlink="http://www.w3.org/1999/xlink" x="0px" y="0px"
	 viewBox="0 0 512.002 512.002" style="enable-background:new 0 0 512.002 512.002;" xml:space="preserve">
<path style="fill:#EFEDEE;" d="M456.527,351.74H55.473c-7.791,0-14.107-6.316-14.107-14.107V57.324
	c0-7.791,6.316-14.107,14.107-14.107h401.054c7.791,0,14.107,6.316,14.107,14.107v280.308
	C470.635,345.423,464.319,351.74,456.527,351.74z"/>
<path style="fill:#D4D2D3;" d="M92.731,337.632V57.324c0-7.791,6.316-14.107,14.107-14.107H55.473
	c-7.791,0-14.107,6.316-14.107,14.107v280.308c0,7.791,6.316,14.107,14.107,14.107h51.365
	C99.047,351.74,92.731,345.423,92.731,337.632z"/>
<path style="fill:#FFCE1C;" d="M382.967,316.569H128.922c-12.8,0-23.176-10.376-23.176-23.176l0,0
	c0-12.8,10.376-23.176,23.176-23.176h254.045c12.8,0,23.176,10.376,23.176,23.176l0,0
	C406.143,306.192,395.767,316.569,382.967,316.569z"/>
<path style="fill:#ECB000;" d="M155.745,293.392L155.745,293.392c0-12.8,10.376-23.177,23.177-23.177h-50
	c-12.8,0-23.177,10.376-23.177,23.176l0,0c0,12.8,10.376,23.176,23.177,23.176h50C166.122,316.569,155.745,306.192,155.745,293.392z
	"/>
<circle style="fill:#DC5A64;" cx="255.999" cy="116.69" r="109.19"/>
<path style="fill:#BF4E57;" d="M176.811,116.689c0-55.214,40.984-100.848,94.189-108.159c-4.904-0.674-9.91-1.03-15-1.03
	c-60.303,0-109.189,48.886-109.189,109.189S195.697,225.878,256,225.878c5.09,0,10.096-0.356,15-1.03
	C217.795,217.537,176.811,171.903,176.811,116.689z"/>
<path d="M470.635,124.189c4.142,0,7.5-3.358,7.5-7.5V57.324c0-11.915-9.693-21.607-21.607-21.607h-116.59
	C318.702,13.711,288.924,0,256,0s-62.702,13.711-83.938,35.717H55.473c-11.915,0-21.607,9.693-21.607,21.607v280.308
	c0,11.915,9.693,21.607,21.607,21.607h76.249l36.271,147.056c0.843,3.418,3.906,5.706,7.276,5.706c0.595,0,1.199-0.071,1.802-0.22
	c4.022-0.992,6.478-5.056,5.486-9.078l-11.846-48.029h31.198l6.258,50.743c0.468,3.799,3.701,6.583,7.434,6.583
	c0.306,0,0.616-0.019,0.927-0.058c4.111-0.507,7.033-4.25,6.526-8.361l-6.032-48.907h31.422V504.5c0,4.142,3.358,7.5,7.5,7.5
	c4.142,0,7.5-3.358,7.5-7.5v-49.825h31.422l-6.031,48.907c-0.507,4.111,2.415,7.854,6.526,8.361
	c0.312,0.039,0.621,0.058,0.927,0.058c3.732,0,6.966-2.784,7.434-6.583l6.258-50.743h31.198l-11.846,48.029
	c-0.992,4.021,1.464,8.086,5.486,9.078c0.603,0.149,1.207,0.22,1.802,0.22c3.37,0,6.433-2.288,7.276-5.706l36.271-147.056h76.361
	c11.915,0,21.607-9.693,21.607-21.607V144.689c0-4.142-3.358-7.5-7.5-7.5s-7.5,3.358-7.5,7.5v192.943
	c0,3.644-2.964,6.607-6.607,6.607h-72.661l5.122-20.768c8.653-1.73,16-7.111,20.367-14.463h21.048c4.142,0,7.5-3.358,7.5-7.5V83.447
	c0-4.142-3.358-7.5-7.5-7.5h-65.06c-3.359-8.984-7.795-17.446-13.15-25.23h104.332c3.644,0,6.607,2.964,6.607,6.607v59.365
	C463.135,120.831,466.493,124.189,470.635,124.189z M185.682,190.076c15.227-18.795,24.189-41.746,25.731-65.888H248.5V218.1
	C224.212,216.322,202.267,205.975,185.682,190.076z M154.588,124.189h41.768c-1.46,19.884-8.687,38.801-20.852,54.561
	C163.66,163.423,156.086,144.638,154.588,124.189z M263.5,109.189V15.277c24.288,1.779,46.233,12.126,62.818,28.024
	c-15.227,18.795-24.189,41.746-25.731,65.888H263.5z M248.5,109.189h-37.087c-1.542-24.142-10.505-47.093-25.731-65.888
	c16.586-15.898,38.531-26.245,62.818-28.024V109.189z M196.356,109.189h-41.768c1.498-20.449,9.072-39.234,20.916-54.561
	C187.669,70.388,194.896,89.305,196.356,109.189z M263.5,124.189h37.087c1.542,24.142,10.505,47.093,25.731,65.888
	c-16.586,15.898-38.531,26.245-62.818,28.024V124.189z M336.496,178.75c-12.165-15.761-19.392-34.677-20.852-54.561h41.768
	C355.914,144.638,348.34,163.423,336.496,178.75z M357.412,109.189h-41.768c1.46-19.884,8.687-38.801,20.852-54.561
	C348.34,69.955,355.914,88.74,357.412,109.189z M55.473,344.24c-3.644,0-6.607-2.964-6.607-6.607V57.324
	c0-3.644,2.964-6.607,6.607-6.607h104.332c-5.355,7.784-9.791,16.246-13.15,25.23h-65.06c-4.142,0-7.5,3.358-7.5,7.5V301.51
	c0,4.142,3.358,7.5,7.5,7.5h20.937c4.367,7.352,11.714,12.733,20.367,14.462l5.122,20.768L55.473,344.24L55.473,344.24z
	 M310.974,324.069l-2.488,20.171h-45.042v-20.171H310.974z M359.742,379.411h-40.48l2.488-20.171h42.967L359.742,379.411z
	 M263.444,359.24h43.192l-2.488,20.171h-40.704V359.24z M248.444,379.411H207.74l-2.488-20.171h43.192V379.411z M323.6,344.24
	l2.488-20.171h47.305l-4.975,20.171H323.6z M248.444,344.24h-45.042l-2.488-20.171h47.53V344.24z M185.801,324.069l2.488,20.171
	h-44.817l-4.975-20.171H185.801z M190.139,359.24l2.488,20.171h-40.48l-4.975-20.171H190.139z M167.011,439.675l-11.164-45.265
	h38.63l5.582,45.265H167.011z M215.172,439.675l-5.582-45.265h38.855v45.265H215.172z M263.444,439.675V394.41h38.855l-5.582,45.265
	H263.444z M311.83,439.675l5.582-45.265h38.63l-11.164,45.265H311.83z M422.904,90.947V294.01h-9.276
	c0.004-0.206,0.016-0.41,0.016-0.617c0-16.915-13.762-30.676-30.677-30.676H177.622c-4.142,0-7.5,3.358-7.5,7.5s3.358,7.5,7.5,7.5
	h205.345c8.644,0,15.677,7.032,15.677,15.676s-7.033,15.677-15.677,15.677H128.922c-8.644,0-15.676-7.033-15.676-15.677
	s7.032-15.676,15.676-15.676h20.699c4.142,0,7.5-3.358,7.5-7.5s-3.358-7.5-7.5-7.5h-20.699c-16.915,0-30.676,13.761-30.676,30.676
	c0,0.207,0.012,0.411,0.016,0.617h-9.166V90.947h53.082c-1.873,8.285-2.867,16.899-2.867,25.742c0,30.006,11.388,57.4,30.064,78.096
	c0.3,0.42,0.646,0.817,1.042,1.18c0.062,0.057,0.128,0.105,0.191,0.159c21.319,22.902,51.709,37.253,85.392,37.253
	s64.072-14.351,85.392-37.253c0.063-0.054,0.129-0.103,0.191-0.159c0.396-0.363,0.742-0.76,1.042-1.18
	c18.676-20.696,30.064-48.09,30.064-78.096c0-8.843-0.994-17.457-2.867-25.742C369.822,90.947,422.904,90.947,422.904,90.947z"/>
<g>
</g>
<g>
</g>
<g>
</g>
<g>
</g>
<g>
</g>
<g>
</g>
<g>
</g>
<g>
</g>
<g>
</g>
<g>
</g>
<g>
</g>
<g>
</g>
<g>
</g>
<g>
</g>
<g>
</g>
</svg>
