<?xml version="1.0" encoding="iso-8859-1"?>
<!-- Generator: Adobe Illustrator 21.0.0, SVG Export Plug-In . SVG Version: 6.00 Build 0)  -->
<svg version="1.1" id="Capa_1" xmlns="http://www.w3.org/2000/svg" xmlns:xlink="http://www.w3.org/1999/xlink" x="0px" y="0px"
	 viewBox="0 0 512 512" style="enable-background:new 0 0 512 512;" xml:space="preserve">
<rect x="342.456" y="324.82" transform="matrix(0.7071 -0.7071 0.7071 0.7071 -152.4237 367.9851)" style="fill:#EFEDEE;" width="51.059" height="86.329"/>
<rect x="346.262" y="334.022" transform="matrix(0.7071 -0.7071 0.7071 0.7071 -161.6217 364.1831)" style="fill:#D4D2D3;" width="25.07" height="86.329"/>
<path style="fill:#3A484A;" d="M266.472,63.038C200.245-3.19,101.017-11.339,44.84,44.838
	c-56.176,56.176-48.028,155.404,18.2,221.632c10.954,10.954,22.814,20.309,35.23,28.057
	c90.919,58.922,232.922,72.765,232.922,72.765l18.052-18.052l18.052-18.052c0,0-13.853-142.091-72.822-233.008
	c-6.812-10.902-14.868-21.372-24.155-31.177c-0.008-0.009-0.016-0.017-0.024-0.026c-1.126-1.188-2.266-2.369-3.428-3.537
	c-0.132-0.133-0.26-0.272-0.392-0.405L266.472,63.038z M316.986,236.25c9.195,35.073,14.253,66.029,16.663,83.367l-14.019,14.019
	c-17.547-2.446-49.013-7.593-84.314-16.902c-1.019-0.269-2.01-0.549-3.021-0.821c19.543-5.966,37.476-16.34,52.378-31.243
	c14.903-14.903,25.277-32.836,31.243-52.378C316.271,233.615,316.636,234.916,316.986,236.25z M262.063,262.06
	c-43.619,43.619-122.758,35.455-176.413-18.2c-53.656-53.656-61.82-132.794-18.201-176.414s122.758-35.455,176.414,18.201
	C297.518,139.302,305.682,218.442,262.063,262.06z"/>
<path style="fill:#313D40;" d="M235.316,316.734c-1.019-0.269-2.01-0.549-3.021-0.821c0.482-0.147,0.958-0.309,1.437-0.461
	c-26.039-7.746-53.252-17.674-78.499-30.283c-24.649-6.836-48.992-20.718-69.583-41.309c-24.729-24.729-39.786-54.87-44.573-84.453
	C27.74,114.448,33.4,67.689,59.155,32.563c-5.021,3.682-9.808,7.769-14.314,12.275c-56.176,56.176-48.028,155.404,18.2,221.632
	c10.954,10.954,22.815,20.309,35.23,28.057c90.919,58.922,232.922,72.765,232.922,72.765l18.052-18.052l8.538-8.538
	c0,0-42.228-4.118-95.369-17.416C253.771,321.374,244.686,319.205,235.316,316.734z"/>
<path style="fill:#3A484A;" d="M502.073,468.595L468.6,502.068c-3.244,3.244-8.503,3.244-11.747,0l-87.736-87.735
	c-3.244-3.244-3.244-8.503,0-11.747l33.473-33.473c3.244-3.244,8.503-3.244,11.747,0l87.735,87.735
	C505.317,460.092,505.317,465.351,502.073,468.595z"/>
<path style="fill:#313D40;" d="M474.579,484.341l-87.735-87.735c-3.244-3.244-3.244-8.503,0-11.747l-17.726,17.726
	c-3.244,3.244-3.244,8.503,0,11.747l87.736,87.735c3.244,3.244,8.503,3.244,11.747,0l17.726-17.726
	C483.083,487.585,477.823,487.585,474.579,484.341z"/>
<circle style="fill:#2FC8B4;" cx="347.018" cy="173.069" r="115.179"/>
<path style="fill:#00AE95;" d="M261.84,173.069c0-58.528,43.655-106.855,100.178-114.207c-4.91-0.639-9.916-0.972-15-0.972
	c-63.612,0-115.178,51.568-115.178,115.178c0,63.612,51.568,115.178,115.178,115.178c5.084,0,10.09-0.333,15-0.972
	C305.495,279.924,261.84,231.597,261.84,173.069z"/>
<g>
	<path style="fill:#EFEDEE;" d="M427.014,263.428c-1.875,0-3.753-0.699-5.209-2.105c-24.161-23.332-37.466-54.675-37.466-88.254
		s13.306-64.923,37.467-88.254c2.979-2.879,7.728-2.796,10.605,0.185c2.877,2.979,2.794,7.728-0.185,10.604
		c-21.208,20.48-32.887,47.992-32.887,77.466s11.679,56.985,32.886,77.466c2.979,2.877,3.063,7.625,0.185,10.604
		C430.939,262.662,428.978,263.428,427.014,263.428z"/>
	<path style="fill:#EFEDEE;" d="M267.035,263.444c-1.964,0-3.925-0.767-5.397-2.291c-2.877-2.98-2.793-7.729,0.187-10.604
		c21.217-20.482,32.901-47.998,32.901-77.48c0-29.48-11.684-56.996-32.899-77.478c-2.979-2.877-3.063-7.625-0.186-10.604
		c2.876-2.979,7.625-3.063,10.604-0.187c24.17,23.334,37.48,54.682,37.48,88.268c0,33.589-13.312,64.938-37.483,88.27
		C270.787,262.745,268.91,263.444,267.035,263.444z"/>
</g>
<path d="M507.376,451.544L419.64,363.81c-2.985-2.986-6.955-4.63-11.177-4.63c-0.803,0-1.593,0.078-2.373,0.195l-31.618-31.618
	c-0.575-5.142-2.057-17.289-4.885-34.093c51.718-9.653,92.691-51.876,99.213-105.691c0.499-4.112-2.431-7.85-6.543-8.348
	c-4.119-0.501-7.85,2.431-8.348,6.543c-6.535,53.92-52.488,94.579-106.891,94.579c-59.375,0-107.678-48.305-107.678-107.679
	c0-59.374,48.305-107.678,107.678-107.678c54.405,0,100.357,40.661,106.891,94.581c0.498,4.111,4.231,7.037,8.348,6.543
	c4.112-0.498,7.042-4.235,6.543-8.348c-7.445-61.443-59.8-107.776-121.782-107.776c-23.785,0-46.005,6.811-64.828,18.574
	c-2.081-2.409-4.216-4.783-6.4-7.091c-0.019-0.021-0.038-0.041-0.054-0.058c-1.167-1.231-2.349-2.455-3.547-3.659l-0.402-0.416
	c-0.058-0.058-0.117-0.115-0.176-0.171C240.496,26.524,200.897,6.563,160.084,1.356c-41.01-5.229-79.833,4.772-109.318,28.168
	c-3.245,2.574-3.788,7.292-1.214,10.537c2.575,3.244,7.292,3.787,10.537,1.213C115.404-2.616,201.85,9.022,261.169,68.341
	c0.026,0.025,0.053,0.052,0.079,0.078l0.302,0.311c1.113,1.118,2.205,2.249,3.274,3.377c0.017,0.018,0.033,0.035,0.05,0.053
	c1.718,1.814,3.407,3.669,5.057,5.553c-4.408,3.57-8.563,7.438-12.437,11.575c-2.669-3.063-5.44-6.055-8.315-8.931
	c-0.005-0.005-0.008-0.01-0.013-0.014c-0.004-0.004-0.009-0.008-0.013-0.012c-14.572-14.568-30.956-25.917-48.046-33.957
	c-0.314-0.176-0.637-0.328-0.968-0.455c-26.599-12.299-54.852-16.576-80.619-12.435c-0.465,0.032-0.926,0.107-1.38,0.225
	c-21.185,3.666-40.627,13.064-55.995,28.433c-0.01,0.01-0.02,0.021-0.03,0.031c-0.002,0.002-0.003,0.003-0.005,0.004
	c-0.003,0.003-0.005,0.006-0.008,0.009C46.854,77.454,37.486,96.735,33.777,117.75c-0.251,0.763-0.384,1.557-0.384,2.353
	c-3.983,25.607,0.323,53.63,12.526,80.026c0.129,0.337,0.284,0.665,0.463,0.984c8.042,17.092,19.393,33.479,33.966,48.051
	c27.165,27.164,61.437,44.117,96.503,47.734c4.669,0.482,9.276,0.721,13.812,0.721c6.718,0,13.273-0.527,19.626-1.561
	c0.253-0.03,0.505-0.074,0.754-0.129c21.777-3.69,41.124-13.385,56.283-28.526c0.002-0.002,0.004-0.003,0.006-0.005
	c0.001-0.001,0.002-0.002,0.003-0.003c0.011-0.011,0.022-0.021,0.032-0.032c0.192-0.192,0.376-0.396,0.567-0.59
	c4.359,3.685,8.976,7.072,13.822,10.129c-0.786,0.833-1.58,1.657-2.387,2.465c-13.69,13.691-30.265,23.573-49.265,29.374
	c-3.199,0.977-5.364,3.953-5.309,7.297c0.056,3.345,2.318,6.248,5.548,7.118l1.195,0.326c0.619,0.17,1.237,0.34,1.865,0.505
	c36.412,9.602,69.003,14.821,85.19,17.077c0.346,0.049,0.692,0.072,1.036,0.072c1.975,0,3.887-0.78,5.303-2.196l14.019-14.019
	c1.662-1.662,2.449-4.008,2.125-6.337c-1.049-7.545-2.275-15.323-3.641-23.208c3.163,0.246,6.358,0.373,9.583,0.373
	c2.573,0,5.128-0.087,7.665-0.245c2.645,15.654,4.128,27.406,4.765,32.925l-31.013,31.013
	c-22.228-2.596-145.532-19.004-226.088-71.209c-0.036-0.023-0.072-0.046-0.108-0.068c-12.179-7.601-23.584-16.684-33.897-26.998
	C8.894,201.715-2.662,115.168,41.466,59.849c2.583-3.238,2.052-7.957-1.187-10.54c-3.238-2.582-7.957-2.051-10.54,1.187
	C6.226,79.97-3.86,118.828,1.338,159.908c5.181,40.948,25.211,80.676,56.4,111.865c11.102,11.102,23.383,20.885,36.506,29.08
	c47.874,31.01,109.565,49.449,152.895,59.459c40.03,9.247,71.446,13.135,80.625,14.157l31.624,31.624
	c-0.721,4.795,0.743,9.859,4.427,13.543l87.737,87.735c2.985,2.984,6.954,4.629,11.176,4.629c4.222,0,8.19-1.645,11.176-4.629
	l33.474-33.474C513.538,467.736,513.538,457.708,507.376,451.544z M211.901,280.501l-36.572-36.572l28.964-28.964l46.89,46.89
	C240.056,271.157,226.707,277.455,211.901,280.501z M96.382,243.734l28.769-28.77l28.964,28.964l-23.595,23.594
	C118.409,261.329,106.899,253.335,96.382,243.734z M62,198.977l23.581-23.582l28.964,28.964l-28.769,28.769
	C76.06,222.479,68.117,210.935,62,198.977z M46.891,136.706l28.083,28.083l-19.5,19.5C49.465,168.44,46.565,152.229,46.891,136.706z
	 M67.657,78.33l46.888,46.887l-28.964,28.964l-36.568-36.568C52.019,103.085,58.194,89.655,67.657,78.33z M117.501,49.034
	l36.614,36.614l-28.964,28.964L78.258,67.719C89.569,58.245,102.984,52.055,117.501,49.034z M233.13,85.772l-28.838,28.838
	l-28.964-28.963l23.651-23.651C210.938,68.115,222.481,76.056,233.13,85.772z M193.686,125.217l-28.964,28.964l-28.964-28.964
	l28.964-28.964L193.686,125.217z M236.199,225.659l-21.3-21.3l11.11-11.11C227.905,204.657,231.377,215.538,236.199,225.659z
	 M224.348,173.697l-20.056,20.056l-28.964-28.964l28.964-28.964l21.11,21.11c-0.697,5.281-1.062,10.666-1.062,16.135
	C224.34,173.279,224.347,173.487,224.348,173.697z M154.115,164.788l-28.964,28.964l-28.964-28.964l28.964-28.964L154.115,164.788z
	 M135.758,204.359l28.964-28.964l28.964,28.964l-28.964,28.964L135.758,204.359z M229.048,139.367l-14.15-14.149l28.829-28.829
	c1.386,1.52,2.747,3.059,4.069,4.624C239.456,112.466,233.042,125.409,229.048,139.367z M184.291,55.472L164.722,75.04l-28.15-28.15
	C152.137,46.546,168.397,49.444,184.291,55.472z M178.39,281.977c-11.219-1.157-22.36-3.849-33.174-7.935l19.506-19.506
	l28.059,28.059C188.078,282.686,183.274,282.482,178.39,281.977z M325.697,316.962l-8.72,8.719
	c-13.463-1.96-35.31-5.579-60.477-11.426c12.388-6.277,23.593-14.398,33.477-24.282c1.831-1.831,3.609-3.731,5.334-5.673
	c8.367,3.905,17.241,6.896,26.498,8.837C323.264,301.22,324.572,309.206,325.697,316.962z M367.297,341.795l26.002,26.003
	l-25.496,25.497L341.8,367.293L367.297,341.795z M496.77,463.292l-33.473,33.472c-0.313,0.313-0.828,0.313-1.141,0l-87.736-87.734
	c-0.314-0.314-0.314-0.827,0-1.141l33.473-33.473c0.157-0.157,0.349-0.236,0.57-0.236s0.413,0.079,0.57,0.236l87.735,87.734
	C497.084,462.465,497.084,462.978,496.77,463.292z"/>
<g>
</g>
<g>
</g>
<g>
</g>
<g>
</g>
<g>
</g>
<g>
</g>
<g>
</g>
<g>
</g>
<g>
</g>
<g>
</g>
<g>
</g>
<g>
</g>
<g>
</g>
<g>
</g>
<g>
</g>
</svg>
