<?xml version="1.0" encoding="iso-8859-1"?>
<!-- Generator: Adobe Illustrator 21.0.0, SVG Export Plug-In . SVG Version: 6.00 Build 0)  -->
<svg version="1.1" id="Capa_1" xmlns="http://www.w3.org/2000/svg" xmlns:xlink="http://www.w3.org/1999/xlink" x="0px" y="0px"
	 viewBox="0 0 512.001 512.001" style="enable-background:new 0 0 512.001 512.001;" xml:space="preserve">
<path style="fill:#AD5645;" d="M38.829,14.122L14.125,38.826c-5.87,5.87-8.048,14.487-5.673,22.442l0,0
	c5.067,16.968,14.276,32.409,26.798,44.93l77.243,77.243c9.867,9.867,20.12,19.341,30.734,28.399l118.829,91.72
	c21.148,18.048,41.576,36.924,61.234,56.583L456.669,493.52l18.428-18.428l18.428-18.428L360.145,323.287
	c-19.659-19.659-38.535-40.087-56.583-61.235l-91.72-118.829c-9.058-10.614-18.532-20.867-28.399-30.734L106.2,35.247
	C93.679,22.725,78.239,13.516,61.271,8.449l0,0C53.316,6.074,44.7,8.252,38.829,14.122z"/>
<path style="fill:#964035;" d="M280.109,285.507l-118.829-91.72c-10.614-9.058-20.867-18.532-30.734-28.399L53.303,88.144
	c-12.522-12.522-21.731-27.962-26.798-44.93c-2.375-7.955-0.197-16.571,5.673-22.442L14.125,38.826
	c-5.87,5.87-8.048,14.487-5.673,22.442c5.067,16.968,14.276,32.408,26.798,44.93l77.243,77.243
	c9.867,9.867,20.12,19.341,30.734,28.399l118.829,91.72c21.148,18.048,41.576,36.924,61.234,56.583L456.669,493.52l18.053-18.053
	L341.344,342.089C321.685,322.43,301.257,303.554,280.109,285.507z"/>
<path style="fill:#C86D5C;" d="M469.108,413.383l-55.722,55.722c-2.061,2.061-2.061,5.403,0,7.464l26.386,26.386
	c2.061,2.061,5.403,2.061,7.464,0l55.722-55.722c2.061-2.061,2.061-5.403,0-7.464l-26.386-26.386
	C474.51,411.322,471.169,411.322,469.108,413.383z"/>
<path style="fill:#AD5645;" d="M457.825,484.901l-26.386-26.386c-2.061-2.061-2.061-5.403,0-7.464l-18.053,18.053
	c-2.061,2.061-2.061,5.403,0,7.464l26.386,26.386c2.061,2.061,5.403,2.061,7.464,0l18.053-18.053
	C463.228,486.962,459.886,486.962,457.825,484.901z"/>
<rect x="356.265" y="338.569" transform="matrix(0.7071 -0.7071 0.7071 0.7071 -158.3631 382.3243)" style="fill:#EFEDEE;" width="52.119" height="87.508"/>
<rect x="360.156" y="347.968" transform="matrix(0.7071 -0.7071 0.7071 0.7071 -167.7635 378.4279)" style="fill:#D4D2D3;" width="25.531" height="87.508"/>
<circle style="fill:#EFEDEE;" cx="339.768" cy="165.819" r="115.179"/>
<path style="fill:#D4D2D3;" d="M254.593,165.824c0-58.528,43.655-106.855,100.178-114.207c-4.91-0.639-9.916-0.972-15-0.972
	c-63.612,0-115.178,51.568-115.178,115.178c0,63.612,51.568,115.178,115.178,115.178c5.084,0,10.09-0.333,15-0.972
	C298.248,272.678,254.593,224.35,254.593,165.824z"/>
<g>
	<path style="fill:#DC5A64;" d="M419.767,256.183c-1.875,0-3.753-0.699-5.209-2.105c-24.161-23.332-37.466-54.675-37.466-88.254
		c0-33.579,13.306-64.922,37.467-88.254c2.98-2.879,7.728-2.796,10.605,0.185c2.877,2.979,2.794,7.728-0.185,10.604
		c-21.208,20.481-32.887,47.992-32.887,77.465s11.679,56.985,32.886,77.465c2.979,2.877,3.063,7.625,0.185,10.604
		C423.691,255.416,421.73,256.183,419.767,256.183z"/>
	<path style="fill:#DC5A64;" d="M404.792,173.322h-38.673c-4.142,0-7.5-3.357-7.5-7.5c0-4.143,3.358-7.5,7.5-7.5h38.673
		c4.142,0,7.5,3.357,7.5,7.5C412.292,169.966,408.934,173.322,404.792,173.322z"/>
	<path style="fill:#DC5A64;" d="M380.433,233.491c-2.742,0-5.384-1.51-6.703-4.126c-1.864-3.698-0.377-8.208,3.321-10.073
		l34.533-17.409c3.698-1.865,8.208-0.379,10.074,3.321c1.864,3.698,0.377,8.208-3.321,10.073l-34.533,17.409
		C382.72,233.232,381.568,233.491,380.433,233.491z"/>
	<path style="fill:#DC5A64;" d="M414.774,130.929c-1.125,0-2.267-0.254-3.342-0.791l-34.606-17.264
		c-3.707-1.849-5.212-6.353-3.363-10.059c1.85-3.707,6.351-5.216,10.06-3.363l34.606,17.264c3.707,1.849,5.212,6.353,3.363,10.059
		C420.178,129.406,417.527,130.929,414.774,130.929z"/>
	<path style="fill:#DC5A64;" d="M259.788,256.198c-1.964,0-3.925-0.767-5.397-2.291c-2.877-2.98-2.793-7.729,0.187-10.604
		c21.217-20.482,32.901-47.999,32.901-77.479c0-29.48-11.684-56.996-32.899-77.477c-2.979-2.877-3.063-7.625-0.186-10.604
		c2.876-2.98,7.625-3.063,10.604-0.187c24.17,23.334,37.48,54.682,37.48,88.268c0,33.589-13.312,64.938-37.483,88.27
		C263.54,255.499,261.663,256.198,259.788,256.198z"/>
	<path style="fill:#DC5A64;" d="M313.452,173.322h-38.673c-4.142,0-7.5-3.357-7.5-7.5c0-4.143,3.358-7.5,7.5-7.5h38.673
		c4.142,0,7.5,3.357,7.5,7.5C320.952,169.966,317.594,173.322,313.452,173.322z"/>
	<path style="fill:#DC5A64;" d="M299.138,233.491c-1.135,0-2.288-0.259-3.371-0.805l-34.533-17.409
		c-3.698-1.865-5.185-6.375-3.321-10.073c1.865-3.7,6.374-5.186,10.074-3.321l34.533,17.409c3.698,1.865,5.185,6.375,3.321,10.073
		C304.522,231.981,301.88,233.491,299.138,233.491z"/>
	<path style="fill:#DC5A64;" d="M264.797,130.929c-2.754,0-5.404-1.522-6.717-4.154c-1.849-3.706-0.343-8.21,3.363-10.059
		l34.606-17.264c3.708-1.851,8.21-0.344,10.06,3.363c1.849,3.706,0.343,8.21-3.363,10.059l-34.606,17.264
		C267.064,130.675,265.922,130.929,264.797,130.929z"/>
</g>
<path d="M508.26,434.464l-26.386-26.386c-2.414-2.413-5.622-3.741-9.035-3.741c-3.413,0-6.621,1.328-9.035,3.741l-4.13,4.13
	l-94.225-94.225c-9.601-9.601-19.093-19.492-28.366-29.517c0.894,0.019,1.789,0.034,2.688,0.034
	c62.036,0,114.396-46.38,121.794-107.883c0.495-4.112-2.438-7.847-6.551-8.342c-4.119-0.499-7.848,2.438-8.342,6.551
	c-6.493,53.974-52.451,94.674-106.902,94.674c-59.375,0-107.679-48.305-107.679-107.679c0-59.374,48.305-107.678,107.679-107.678
	c54.452,0,100.409,40.701,106.902,94.673c0.495,4.112,4.226,7.036,8.342,6.551c4.113-0.495,7.045-4.229,6.551-8.342
	c-7.398-61.502-59.759-107.88-121.794-107.88c-59.15,0-108.655,42.078-120.157,97.872l-1.835-2.377
	c-0.075-0.097-0.152-0.192-0.232-0.285c-9.148-10.72-18.838-21.207-28.801-31.17l-77.243-77.242
	C98.144,16.585,81.517,6.667,63.417,1.263C52.805-1.906,41.354,0.99,33.526,8.818L8.822,33.522
	c-7.829,7.83-10.724,19.284-7.556,29.891c5.405,18.103,15.323,34.731,28.681,48.089l37.204,37.203c2.929,2.928,7.678,2.928,10.606,0
	c2.929-2.93,2.929-7.678,0-10.607l-37.204-37.203C28.949,89.291,20.334,74.846,15.639,59.12c-1.589-5.32-0.137-11.065,3.79-14.991
	l24.704-24.704c3.926-3.927,9.673-5.38,14.993-3.79c15.723,4.694,30.168,13.31,41.773,24.915l77.243,77.242
	c9.642,9.641,19.02,19.787,27.877,30.159l11.127,14.415c-0.032,1.148-0.051,2.3-0.051,3.456c0,58.958,41.809,108.33,97.334,120.04
	c0.04,0.047,0.074,0.097,0.116,0.143c12.983,14.5,26.542,28.828,40.301,42.586l4.361,4.361l-26.249,26.249l-4.362-4.362
	c-19.715-19.715-40.464-38.888-61.67-56.984c-0.093-0.08-0.189-0.157-0.286-0.232l-118.683-91.607
	c-10.375-8.86-20.52-18.239-30.159-27.879l-20.245-20.244c-2.929-2.928-7.678-2.928-10.606,0c-2.929,2.93-2.929,7.678,0,10.607
	l20.245,20.243c9.96,9.961,20.446,19.651,31.168,28.802c0.093,0.079,0.188,0.157,0.286,0.232l118.683,91.607
	c20.859,17.807,41.266,36.667,60.661,56.063l94.225,94.225l-4.129,4.129c-2.414,2.413-3.744,5.622-3.744,9.036
	c0,3.413,1.33,6.622,3.743,9.036l26.385,26.385c2.413,2.414,5.622,3.743,9.036,3.743s6.623-1.329,9.035-3.742l55.723-55.723
	C513.242,447.553,513.242,439.447,508.26,434.464z M369.811,343.559l51.275,51.275l-26.249,26.249l-51.275-51.275L369.811,343.559z
	 M405.444,431.688l26.249-26.249l17.376,17.375l-26.248,26.249L405.444,431.688z M443.504,496.079l-23.243-23.243l7.78-7.78
	c0.028-0.027,0.058-0.05,0.085-0.077c0.027-0.027,0.05-0.058,0.077-0.085l36.696-36.696c0.027-0.026,0.055-0.048,0.082-0.074
	c0.026-0.026,0.048-0.055,0.074-0.082l7.784-7.784l23.244,23.243L443.504,496.079z"/>
<g>
</g>
<g>
</g>
<g>
</g>
<g>
</g>
<g>
</g>
<g>
</g>
<g>
</g>
<g>
</g>
<g>
</g>
<g>
</g>
<g>
</g>
<g>
</g>
<g>
</g>
<g>
</g>
<g>
</g>
</svg>
