<?xml version="1.0" encoding="iso-8859-1"?>
<!-- Generator: Adobe Illustrator 21.0.0, SVG Export Plug-In . SVG Version: 6.00 Build 0)  -->
<svg version="1.1" id="Capa_1" xmlns="http://www.w3.org/2000/svg" xmlns:xlink="http://www.w3.org/1999/xlink" x="0px" y="0px"
	 viewBox="0 0 511.998 511.998" style="enable-background:new 0 0 511.998 511.998;" xml:space="preserve">
<path style="fill:#3A484A;" d="M492.454,297.618l-325.415,32.951v-98.034l325.64,38.521c6.742,0.798,11.821,6.498,11.821,13.269l0,0
	C504.5,291.182,499.295,296.925,492.454,297.618z"/>
<path style="fill:#DC5A64;" d="M437.124,251.904c-5.945-113.224-100-203.178-215.075-202.963
	C105.128,49.16,7.536,146.636,7.5,263.228c-0.01,33.328,7.607,64.881,21.206,93.018c5.133,10.62,19.184,13.151,27.82,5.1l0,0
	c8.836-8.237,23.18-5.33,28.091,5.693l21.067,47.292c13.198,29.628,42.658,48.724,75.17,48.724l0,0
	c45.426,0,82.252-36.722,82.252-82.02V274.127c0-5.982,4.863-10.831,10.862-10.831h152.299
	C432.484,263.296,437.449,258.097,437.124,251.904z"/>
<path style="fill:#BF4E57;" d="M58.706,356.245c-13.599-28.137-21.216-59.69-21.206-93.017
	c0.035-111.783,89.748-205.979,200.191-213.753c-5.166-0.361-10.381-0.544-15.641-0.534C105.128,49.159,7.536,146.636,7.5,263.228
	c-0.01,33.328,7.607,64.881,21.206,93.018c5.133,10.619,19.184,13.151,27.819,5.1c1.134-1.057,2.36-1.928,3.644-2.624
	C59.627,357.951,59.133,357.129,58.706,356.245z"/>
<ellipse style="fill:#EFEDEE;" cx="181.2" cy="383.238" rx="38.18" ry="38.07"/>
<path style="fill:#D4D2D3;" d="M173.022,383.233c0-15.716,9.551-29.205,23.18-35.018c-4.605-1.964-9.674-3.054-15-3.054
	c-21.086,0-38.18,17.046-38.18,38.072s17.094,38.072,38.18,38.072c5.326,0,10.395-1.09,15-3.054
	C182.574,412.438,173.022,398.949,173.022,383.233z"/>
<path d="M493.563,263.629l-49.735-5.883c0.609-2.006,0.897-4.112,0.785-6.233c-3.034-57.793-28.196-111.365-70.85-150.844
	c-3.038-2.809-7.782-2.634-10.6,0.394s-2.641,7.759,0.395,10.57c39.78,36.819,63.246,86.774,66.076,140.664
	c0.064,1.242-0.548,2.08-0.918,2.47c-0.374,0.392-1.189,1.052-2.451,1.052H273.967c-10.125,0-18.362,8.214-18.362,18.311v46.69
	c0,0.01,0,0.021,0,0.031v60.187c0,41.103-33.533,74.541-74.752,74.541c-29.518,0-56.333-17.382-68.315-44.281l-21.066-47.293
	c-3.289-7.384-9.993-12.753-17.934-14.362c-7.94-1.608-16.214,0.724-22.134,6.242c-2.38,2.218-5.587,3.146-8.795,2.549
	c-3.157-0.589-5.762-2.57-7.146-5.435C21.874,324.885,14.99,294.683,15,263.23c0.035-111.892,94.858-206.6,207.063-206.81
	c0.136,0,0.264,0,0.398,0c43.322,0,84.819,13.175,120.016,38.11c3.379,2.393,8.059,1.601,10.458-1.765
	c2.398-3.367,1.606-8.036-1.771-10.428c-37.751-26.745-82.246-40.874-128.702-40.874c-0.143,0-0.285,0-0.427,0
	c-58.549,0.11-114.093,23.442-156.401,65.699C23.328,149.417,0.019,204.842,0,263.226c-0.011,33.722,7.374,66.111,21.95,96.266
	c3.478,7.196,10.002,12.17,17.899,13.643c7.945,1.483,15.895-0.822,21.798-6.326c2.416-2.253,5.661-3.167,8.902-2.51
	c3.241,0.657,5.87,2.763,7.212,5.777l21.066,47.293c14.388,32.297,46.584,53.166,82.024,53.166
	c49.489,0,89.752-40.149,89.752-89.499v-53.435l222.608-22.541c10.71-1.086,18.787-10,18.787-20.734
	C512,273.77,504.073,264.872,493.563,263.629z M491.696,290.178l-221.092,22.387v-38.438c0-1.848,1.509-3.353,3.362-3.353h152.299
	c0.084,0,0.167-0.012,0.251-0.013l65.278,7.722c2.968,0.351,5.205,2.862,5.205,5.842C497,287.356,494.72,289.872,491.696,290.178z"
	/>
<path d="M181.202,337.681c-25.188,0-45.68,20.435-45.68,45.552c0,25.116,20.492,45.551,45.68,45.551s45.68-20.435,45.68-45.551
	C226.882,358.116,206.39,337.681,181.202,337.681z M181.202,413.826c-16.917,0-30.68-13.724-30.68-30.593
	s13.763-30.594,30.68-30.594s30.68,13.725,30.68,30.594S198.119,413.826,181.202,413.826z"/>
<g>
</g>
<g>
</g>
<g>
</g>
<g>
</g>
<g>
</g>
<g>
</g>
<g>
</g>
<g>
</g>
<g>
</g>
<g>
</g>
<g>
</g>
<g>
</g>
<g>
</g>
<g>
</g>
<g>
</g>
</svg>
