<svg height="512pt" viewBox="0 0 512 512.00035" width="512pt" xmlns="http://www.w3.org/2000/svg"><path d="m400.371094 400.371094c36.335937-36.339844 64.191406-79.617188 83.09375-129.007813l-43.695313-90.632812 62.78125 24.867187c11.859375-57.78125 12.566407-120.113281 2.054688-185.765625l-1.714844-10.722656-289.316406 204.464844-204.464844 289.316406 10.722656 1.714844c65.632813 10.507812 127.945313 9.808593 185.710938-2.039063l-24.855469-62.769531 90.628906 43.6875c49.410156-18.902344 92.703125-46.761719 129.054688-83.113281zm0 0" fill="#732a04"/><path d="m492.167969 7.394531c-65.652344-10.511719-127.984375-9.804687-185.765625 2.054688l24.867187 62.78125-90.632812-43.695313c-49.390625 18.902344-92.667969 46.757813-129.007813 83.09375-36.351562 36.351563-64.210937 79.648438-83.113281 129.054688l43.6875 90.628906-62.765625-24.855469c-11.847656 57.765625-12.550781 120.078125-2.042969 185.710938l1.714844 10.722656 493.78125-493.78125zm0 0" fill="#9e3802"/><path d="m502.550781 205.597656-98.074219-98.074218-63.640624-21.214844 21.214843 63.640625 121.414063 121.414062c4.386718-11.46875 8.296875-23.269531 11.714844-35.390625 2.8125-9.976562 5.265624-20.105468 7.371093-30.375zm0 0" fill="#ffd567"/><path d="m107.488281 404.511719 98.054688 98.050781c10.289062-2.109375 20.4375-4.566406 30.429687-7.382812 12.105469-3.414063 23.886719-7.316407 35.34375-11.695313l-121.402344-121.398437-49.496093-7.074219zm0 0" fill="#ffd567"/><g fill="#ffe7ad"><path d="m404.476562 107.523438-98.074218-98.074219c-10.269532 2.105469-20.398438 4.558593-30.375 7.375-12.121094 3.414062-23.917969 7.320312-35.390625 11.710937l121.414062 121.414063zm0 0"/><path d="m149.914062 362.085938-121.398437-121.402344c-4.378906 11.457031-8.28125 23.238281-11.695313 35.34375-2.816406 9.992187-5.273437 20.140625-7.382812 30.429687l98.050781 98.054688zm0 0"/><path d="m298.425781 277.246094-31.820312-31.820313-24.746094-3.535156 3.535156 24.75 31.820313 31.820313zm0 0"/></g><path d="m213.570312 234.820312 21.214844-21.210937 31.816406 31.816406-21.210937 21.214844zm0 0" fill="#fff"/><path d="m340.855469 234.820312-31.820313-31.820312-24.75-3.535156 3.535156 24.75 31.820313 31.820312zm0 0" fill="#ffe7ad"/><path d="m255.996094 192.394531 21.214844-21.214843 31.820312 31.820312-21.214844 21.214844zm0 0" fill="#fff"/><path d="m256 319.675781-31.820312-31.820312-24.75-3.535157 3.535156 24.746094 31.820312 31.820313zm0 0" fill="#ffe7ad"/><path d="m171.144531 277.246094 21.210938-21.210938 31.820312 31.816406-21.210937 21.214844zm0 0" fill="#fff"/></svg>