<?xml version="1.0" encoding="iso-8859-1"?>
<!-- Generator: Adobe Illustrator 21.0.0, SVG Export Plug-In . SVG Version: 6.00 Build 0)  -->
<svg version="1.1" id="Capa_1" xmlns="http://www.w3.org/2000/svg" xmlns:xlink="http://www.w3.org/1999/xlink" x="0px" y="0px"
	 viewBox="0 0 512 512" style="enable-background:new 0 0 512 512;" xml:space="preserve">
<path style="fill:#EFEDEE;" d="M7.5,76.922v297.523c0,4.008,3.249,7.258,7.258,7.258h33.863c4.008,0,7.258-3.249,7.258-7.258
	V118.043h400.242v256.402c0,4.008,3.249,7.258,7.258,7.258h33.863c4.008,0,7.258-3.249,7.258-7.258V76.922
	c0-4.008-3.249-7.258-7.258-7.258H14.758C10.749,69.664,7.5,72.913,7.5,76.922z"/>
<path style="fill:#D4D2D3;" d="M32,103.375v278.328h16.621c4.008,0,7.258-3.25,7.258-7.258V118.043h400.242v256.402
	c0,4.008,3.249,7.258,7.258,7.258H480V103.375c0-3.512-2.847-6.358-6.358-6.358H38.358C34.847,97.017,32,99.863,32,103.375z"/>
<circle style="fill:#EFEDEE;" cx="256" cy="307.65" r="134.69"/>
<path style="fill:#D4D2D3;" d="M142.29,307.65c0-70.856,54.715-128.93,124.198-134.282c-3.461-0.267-6.959-0.404-10.488-0.404
	c-74.385,0-134.686,60.301-134.686,134.686S181.615,442.336,256,442.336c3.53,0,7.027-0.137,10.488-0.404
	C197.005,436.58,142.29,378.505,142.29,307.65z"/>
<g>
	<polygon style="fill:#3A484A;" points="226.405,353.192 208.114,296.898 256,262.107 303.886,296.898 285.595,353.192 	"/>
	<path style="fill:#3A484A;" d="M215.43,179.187L256,208.663l40.57-29.476c-12.804-4.04-26.431-6.224-40.57-6.224
		S228.234,175.147,215.43,179.187z"/>
</g>
<path style="fill:#313D40;" d="M266.492,173.367c-3.462-0.267-6.961-0.404-10.492-0.404c-14.139,0-27.766,2.184-40.57,6.224
	l7.174,5.212C236.202,178.392,250.977,174.562,266.492,173.367z"/>
<path style="fill:#3A484A;" d="M121.326,306.664l40.496-29.494l-15.543-47.649C130.74,251.306,121.533,277.915,121.326,306.664z"/>
<path style="fill:#313D40;" d="M153.899,252.881l-7.62-23.36c-15.54,21.784-24.747,48.393-24.953,77.143l22.032-16.046
	C145.034,277.339,148.648,264.665,153.899,252.881z"/>
<path style="fill:#3A484A;" d="M198.003,387.866l-50.115,0.116c16.337,21.951,39.203,38.752,65.722,47.539L198.003,387.866z"/>
<path style="fill:#313D40;" d="M168.829,387.934l-20.941,0.049c16.337,21.951,39.203,38.752,65.722,47.539l-3.598-10.988
	C193.89,415.277,179.868,402.781,168.829,387.934z"/>
<g>
	<path style="fill:#3A484A;" d="M299.129,435.282c26.457-8.937,49.225-25.874,65.442-47.927l-50.109,0.174L299.129,435.282z"/>
	<path style="fill:#3A484A;" d="M390.664,305.882c-0.37-28.727-9.729-55.284-25.4-76.988L350,276.624L390.664,305.882z"/>
</g>
<path d="M497.242,62.164H102.85c-4.142,0-7.5,3.357-7.5,7.5s3.358,7.5,7.5,7.5H497v297.039h-33.379v-12.217
	c0.001-0.058,0.001-0.116,0-0.174v-96.319c0-0.003,0-0.007,0-0.01v-55.477c0-0.017,0-0.034,0-0.051v-91.912
	c0-4.143-3.357-7.5-7.5-7.5h-2.883c-0.956-0.187-1.941-0.187-2.897,0h-149.02c-0.956-0.187-1.941-0.187-2.897,0H55.879
	c-4.142,0-7.5,3.357-7.5,7.5v91.933c0,0.002,0,0.003,0,0.005v55.43c0,0.05,0,0.099,0,0.148v96.323c0,0.009,0,0.017,0,0.026v12.295
	H15V77.164h59.85c4.142,0,7.5-3.357,7.5-7.5s-3.358-7.5-7.5-7.5H14.758C6.62,62.164,0,68.784,0,76.922v297.523
	c0,8.138,6.62,14.758,14.758,14.758h33.863c8.138,0,14.758-6.62,14.758-14.758v-9.443l40.703-40.703l12.807,12.807
	c4.238,20.035,12.707,38.524,24.426,54.49c0.323,0.586,0.725,1.122,1.187,1.599c17.158,22.708,40.961,40.126,68.492,49.336
	c0.206,0.077,0.414,0.145,0.626,0.204c13.971,4.601,28.888,7.101,44.38,7.101c15.767,0,30.941-2.584,45.126-7.344
	c0.241-0.067,0.475-0.148,0.707-0.238c27.479-9.382,51.195-26.956,68.222-49.797c0.413-0.444,0.776-0.935,1.072-1.469
	c11.489-15.827,19.798-34.101,23.982-53.882l12.808-12.808l40.704,40.704v9.442c0,8.138,6.62,14.758,14.758,14.758h33.863
	c8.138,0,14.758-6.62,14.758-14.758V76.922C512,68.784,505.38,62.164,497.242,62.164z M433.541,125.543l-25.624,25.624
	l-25.624-25.624C382.293,125.543,433.541,125.543,433.541,125.543z M302.839,125.543h58.239l36.231,36.232L354.184,204.9
	c-15.393-14.715-34.077-26.009-54.82-32.666c-0.329-0.132-0.664-0.244-1.007-0.328c-8.756-2.738-17.874-4.646-27.261-5.641
	l-4.49-4.49L302.839,125.543z M248.5,212.484v45.802l-41.356,30.046l-39.248-16.727l-13.269-40.676
	c15.007-19.781,35.66-35.05,59.539-43.391L248.5,212.484z M232.859,182.579c7.507-1.386,15.24-2.116,23.141-2.116
	c7.902,0,15.635,0.731,23.142,2.116L256,199.393L232.859,182.579z M256,271.378l39.07,28.386l-14.924,45.929h-48.292l-14.923-45.929
	L256,271.378z M263.5,258.286v-45.802l34.333-24.945c23.643,8.258,44.123,23.31,59.092,42.808l-13.039,40.772l-39.076,17.18
	L263.5,258.286z M281.624,125.543L256,151.167l-25.624-25.625L281.624,125.543L281.624,125.543z M209.162,125.543l36.231,36.232
	l-4.49,4.49c-9.385,0.995-18.502,2.903-27.256,5.64c-0.345,0.084-0.682,0.197-1.013,0.329
	c-20.742,6.658-39.426,17.952-54.818,32.666l-43.126-43.126l36.231-36.231L209.162,125.543L209.162,125.543z M129.707,125.543
	l-25.624,25.625l-25.624-25.625H129.707z M63.379,131.678l30.097,30.097l-30.097,30.097
	C63.379,191.872,63.379,131.678,63.379,131.678z M63.379,343.788v-60.193l30.096,30.096L63.379,343.788z M114.615,292.552
	l-10.533,10.533l-40.703-40.703v-49.296l40.703-40.704l43.448,43.448c-2.337,2.757-4.571,5.602-6.696,8.533
	c-0.459,0.485-0.844,1.031-1.157,1.615C126.125,245.22,117.223,267.959,114.615,292.552z M153.002,274.315l-23.12,16.839
	c2.048-15.744,6.984-30.594,14.261-43.997L153.002,274.315z M151.787,380.473c-13.966-19.926-22.371-44.018-22.938-70.01
	l33.948-24.725l39.238,16.722l15.97,49.15l-23.561,28.764L151.787,380.473z M164.06,395.445l28.511-0.066l8.893,27.156
	C187.382,415.823,174.718,406.601,164.06,395.445z M293.176,429.288c-11.765,3.603-24.247,5.548-37.176,5.548
	c-12.672,0-24.913-1.872-36.472-5.338l-13.118-40.059l23.547-28.747h52.145l23.951,28.491L293.176,429.288z M311.199,422.221
	l8.737-27.211l28.505-0.099C337.845,406.13,325.239,415.43,311.199,422.221z M360.633,379.868l-42.689,0.149l-23.929-28.466
	l15.966-49.139l39.116-17.198l34.063,24.507C382.742,335.734,374.478,359.871,360.633,379.868z M358.803,273.72l8.699-27.202
	c7.355,13.362,12.375,28.18,14.513,43.902L358.803,273.72z M448.621,343.788l-30.096-30.096l30.096-30.096V343.788z
	 M448.621,262.381l-40.704,40.704l-10.533-10.533c-2.642-24.913-11.74-47.927-25.591-67.329c-0.297-0.529-0.654-1.025-1.073-1.47
	c-1.991-2.716-4.077-5.358-6.251-7.923l43.447-43.447l40.704,40.705v49.293H448.621z M448.621,191.872l-30.097-30.097l30.097-30.097
	L448.621,191.872L448.621,191.872z"/>
<g>
</g>
<g>
</g>
<g>
</g>
<g>
</g>
<g>
</g>
<g>
</g>
<g>
</g>
<g>
</g>
<g>
</g>
<g>
</g>
<g>
</g>
<g>
</g>
<g>
</g>
<g>
</g>
<g>
</g>
</svg>
