<?xml version="1.0" encoding="iso-8859-1"?>
<!-- Generator: Adobe Illustrator 21.0.0, SVG Export Plug-In . SVG Version: 6.00 Build 0)  -->
<svg version="1.1" id="Capa_1" xmlns="http://www.w3.org/2000/svg" xmlns:xlink="http://www.w3.org/1999/xlink" x="0px" y="0px"
	 viewBox="0 0 512 512" style="enable-background:new 0 0 512 512;" xml:space="preserve">
<g>
	<circle style="fill:#CC9883;" cx="421.248" cy="205.74" r="34.379"/>
	<circle style="fill:#CC9883;" cx="90.748" cy="205.74" r="34.379"/>
</g>
<path style="fill:#FBC4AC;" d="M94.568,504.499c0-89.155,72.275-161.43,161.43-161.43s161.43,72.275,161.43,161.43H94.568z"/>
<path style="fill:#E3B098;" d="M271.156,343.783c-4.991-0.465-10.046-0.714-15.159-0.714c-89.155,0-161.43,72.275-161.43,161.43
	h30.317C124.885,420.457,189.111,351.425,271.156,343.783z"/>
<path style="fill:#DC5A64;" d="M153.432,379.836v124.663h205.131V379.836c-27.887-22.971-63.615-36.767-102.565-36.767
	C217.047,343.069,181.32,356.865,153.432,379.836z"/>
<path style="fill:#BF4E57;" d="M271.183,343.78c-5-0.467-10.064-0.711-15.186-0.711c-38.951,0-74.678,13.796-102.566,36.767v32.996
	C179.862,374.591,222.366,348.32,271.183,343.78z"/>
<path style="fill:#EFEDEE;" d="M319.418,436.634H192.577c-2.181,0-3.949,1.768-3.949,3.949v63.916h134.739v-63.916
	C323.367,438.402,321.599,436.634,319.418,436.634z"/>
<path style="fill:#D4D2D3;" d="M222.894,436.634h-30.317c-2.181,0-3.949,1.768-3.949,3.949v63.916h30.317v-63.916
	C218.945,438.402,220.713,436.634,222.894,436.634z"/>
<path style="fill:#EFEDEE;" d="M255.998,419.743c-31.393,0-56.932-25.54-56.932-56.933s25.54-56.932,56.932-56.932
	s56.932,25.54,56.932,56.932S287.391,419.743,255.998,419.743z"/>
<path style="fill:#BF4E57;" d="M255.998,343.069c-30.116,0-58.3,8.253-82.429,22.612c24.916,12.159,52.888,18.994,82.429,18.994
	s57.512-6.834,82.429-18.994C314.298,351.322,286.113,343.069,255.998,343.069z"/>
<path style="fill:#D4D2D3;" d="M311.282,376.384c1.069-4.353,1.648-8.896,1.648-13.573c0-3.308-0.3-6.546-0.844-9.701
	c-17.473-6.479-36.361-10.04-56.088-10.04s-38.616,3.561-56.088,10.04c-0.544,3.155-0.844,6.393-0.844,9.701
	c0,4.678,0.579,9.221,1.648,13.573c17.492,5.377,36.052,8.291,55.285,8.291S293.79,381.761,311.282,376.384z"/>
<circle style="fill:#E3B098;" cx="255.998" cy="362.81" r="41.774"/>
<path style="fill:#CC9883;" d="M255.998,321.037c-23.071,0-41.774,18.703-41.774,41.774c0,6.477,1.475,12.61,4.106,18.081
	c12.175,2.478,24.772,3.782,37.668,3.782s25.493-1.304,37.668-3.782c2.631-5.472,4.106-11.604,4.106-18.081
	C297.772,339.74,279.069,321.037,255.998,321.037z"/>
<g>
	<path style="fill:#EFEDEE;" d="M343.405,504.499h15.159V379.836c-4.824-3.974-9.889-7.666-15.159-11.067V504.499z"/>
	<path style="fill:#EFEDEE;" d="M168.591,504.499h-15.159V379.836c4.824-3.974,9.889-7.666,15.159-11.067V504.499z"/>
</g>
<path style="fill:#D4D2D3;" d="M168.591,368.769c-2.609,1.684-5.167,3.44-7.671,5.265c-0.088,0.064-0.174,0.129-0.261,0.193
	c-1.052,0.77-2.091,1.555-3.124,2.35c-0.256,0.198-0.513,0.395-0.769,0.594c-1.122,0.875-2.236,1.76-3.334,2.665v32.996
	c4.583-6.631,9.66-12.892,15.159-18.753V368.769z"/>
<circle style="fill:#FBC4AC;" cx="255.998" cy="196.09" r="173.43"/>
<path style="fill:#E3B098;" d="M112.886,196.087c0-90.673,69.589-165.081,158.27-172.762c-4.996-0.433-10.05-0.667-15.159-0.667
	c-95.782,0-173.429,77.647-173.429,173.429s77.648,173.429,173.43,173.429c5.109,0,10.162-0.234,15.159-0.667
	C182.475,361.168,112.886,286.76,112.886,196.087z"/>
<path style="fill:#3A484A;" d="M374.234,141.195l14.227,47.192c-74.355-2.221-124.884-46.687-124.884-46.687l25.264,52.044
	c-111.163,5.742-146.532-50.023-146.532-50.023c-35.875,34.813-74.208,36.163-74.208,36.163C76.344,83.453,157.468,7.5,255.998,7.5
	s179.654,75.953,187.898,172.384C443.896,179.884,397.477,169.491,374.234,141.195z"/>
<path style="fill:#313D40;" d="M431.894,128.059c-5.992-15.441-13.966-29.899-23.601-43.069H134.034
	c31.53-43.101,80.882-72.38,137.122-76.875c-5.002-0.4-10.055-0.615-15.158-0.615c-62.482,0-117.954,30.55-152.291,77.49h-0.005
	c-0.043,0.058-0.083,0.119-0.125,0.177c-2.299,3.151-4.502,6.374-6.607,9.668c-0.614,0.96-1.196,1.937-1.96,2.812
	c-0.595,0.682-0.966,1.502-1.259,2.359c-0.046,0.136-0.121,0.245-0.19,0.361c-0.989,1.672-1.951,3.363-2.89,5.067
	c-0.113,0.206-0.224,0.413-0.336,0.619c-0.811,1.497-1.61,3.001-2.385,4.516c-0.148,0.289-0.298,0.576-0.444,0.866
	c-0.853,1.69-1.684,3.393-2.487,5.111c-0.055,0.118-0.108,0.237-0.162,0.355c-0.668,1.478-1.346,2.951-1.989,4.44
	c-0.223,0.516-0.445,1.031-0.664,1.549c-0.723,1.711-1.43,3.43-2.104,5.166l-0.001,0.002l0,0
	c-6.328,16.307-10.452,33.704-12.001,51.825c0,0,13.109-0.473,31.159-7.811c1.771-13.874,5.06-27.28,9.688-40.05
	c0.859-2.37,3.093-3.963,5.614-3.963L431.894,128.059L431.894,128.059z"/>
<path style="fill:#EFEDEE;" d="M87.942,112.901h336.112c2.857,0,4.705-3.049,3.356-5.568c-9.823-18.338-22.589-34.872-37.664-48.968
	c-0.888-0.831-2.065-1.286-3.282-1.286H125.531c-1.216,0-2.393,0.455-3.282,1.286c-15.075,14.096-27.841,30.63-37.664,48.968
	C83.237,109.852,85.085,112.901,87.942,112.901z"/>
<path style="fill:#D4D2D3;" d="M114.903,107.333c9.823-18.338,22.589-34.872,37.664-48.968c0.888-0.831,2.065-1.286,3.282-1.286
	h-30.317c-1.216,0-2.393,0.455-3.282,1.286c-15.075,14.096-27.841,30.63-37.664,48.968c-1.349,2.518,0.5,5.567,3.356,5.567h30.317
	C115.403,112.901,113.554,109.851,114.903,107.333z"/>
<g>
	<path style="fill:#DC5A64;" d="M325.365,251.576H314.01c-4.142,0-7.5-3.358-7.5-7.5s3.358-7.5,7.5-7.5h11.355
		c4.142,0,7.5,3.358,7.5,7.5S329.507,251.576,325.365,251.576z"/>
	<path style="fill:#DC5A64;" d="M197.986,251.576h-11.355c-4.142,0-7.5-3.358-7.5-7.5s3.358-7.5,7.5-7.5h11.355
		c4.142,0,7.5,3.358,7.5,7.5S202.128,251.576,197.986,251.576z"/>
</g>
<path d="M451.09,176.38c-2.167-21.635-7.86-42.524-16.958-62.217c1.658-3.281,1.645-7.096-0.11-10.371
	c-10.179-19.003-23.352-36.131-39.152-50.905c-2.281-2.133-5.266-3.308-8.404-3.308h-0.284C350.223,17.591,304.117,0,255.998,0
	s-94.225,17.591-130.182,49.58h-0.284c-3.138,0-6.122,1.174-8.404,3.308c-15.8,14.774-28.972,31.901-39.151,50.904
	c-1.754,3.274-1.768,7.086-0.114,10.366c-9.099,19.696-14.789,40.591-16.955,62.223c-7.676,7.807-12.035,18.336-12.035,29.359
	c0,19.855,14.207,37.058,33.428,41.014c14.025,48.003,47.444,87.812,91.172,110.32c-8.738,4.901-16.945,10.53-24.559,16.789
	c-0.162,0.123-0.318,0.251-0.469,0.386C110.221,405.902,87.07,453.489,87.07,504.5c0,4.142,3.358,7.5,7.5,7.5h228.79
	c0.003,0,0.006,0,0.01,0s0.006,0,0.01,0h94.051c4.142,0,7.5-3.358,7.5-7.5c0-51.095-23.187-98.704-61.48-130.347
	c-0.083-0.072-0.168-0.141-0.255-0.209c-7.644-6.292-15.886-11.95-24.666-16.872c43.726-22.507,77.143-62.314,91.168-110.315
	c19.283-3.945,33.429-20.997,33.429-41.017C463.124,194.69,458.771,184.187,451.09,176.38z M145.932,496.999H102.25
	c1.861-38.022,17.803-73.497,43.682-100.051V496.999z M366.064,396.932c25.884,26.547,41.822,62.018,43.681,100.067h-43.681V396.932
	z M126.589,64.58h165.413c4.142,0,7.5-3.358,7.5-7.5s-3.358-7.5-7.5-7.5H149.686C180.488,27.163,217.55,15,255.998,15
	s75.51,12.163,106.312,34.58h-42.309c-4.142,0-7.5,3.358-7.5,7.5s3.358,7.5,7.5,7.5h65.405
	c12.729,12.042,23.584,25.748,32.338,40.821H94.252C103.006,90.327,113.862,76.621,126.589,64.58z M63.871,205.739
	c0-6.956,2.706-13.607,7.482-18.593c1.07-0.112,2.4-0.277,3.968-0.519c-0.162,3.151-0.252,6.313-0.252,9.46
	c0,11.406,1.073,22.564,3.101,33.39C69.624,224.911,63.871,215.863,63.871,205.739z M315.867,496.999H196.129v-52.865h119.739
	v52.865H315.867z M351.064,383.425v113.574h-20.196v-56.416c0-6.313-5.136-11.449-11.449-11.449H192.577
	c-6.313,0-11.449,5.136-11.449,11.449v56.416h-20.196V383.437c9.168-7.22,19.243-13.443,30.082-18.499
	c5.318,2.054,10.755,3.866,16.3,5.417c3.665,23.685,24.343,41.73,48.684,41.73c24.449,0,45.037-18.004,48.691-41.731
	c5.542-1.551,10.976-3.362,16.291-5.414C331.818,369.995,341.896,376.208,351.064,383.425z M223.652,374.116
	c10.498,1.902,21.308,2.9,32.346,2.9c11.042,0,21.854-0.998,32.355-2.902c-4.695,13.414-17.499,22.971-32.355,22.971
	C241.209,397.085,228.366,387.512,223.652,374.116z M255.998,362.016c-91.493,0-165.929-74.435-165.929-165.929
	c0-4.322,0.177-8.67,0.509-12.97c13.797-4.147,32.357-12.314,50.868-28.419c13.093,14.63,51.113,46.969,131.479,46.965
	c5.247,0,10.69-0.139,16.302-0.428c2.512-0.13,4.791-1.51,6.07-3.675s1.388-4.828,0.29-7.09l-12.653-26.065
	c22.521,13.441,59.391,30.108,105.302,31.479c2.43,0.076,4.71-1.02,6.177-2.934c1.467-1.915,1.924-4.418,1.228-6.727l-6.617-21.949
	c10.899,7.367,22.556,12.696,32.186,16.357c0.472,5.124,0.716,10.304,0.716,15.458C421.926,287.581,347.491,362.016,255.998,362.016
	z M380.029,136.435c-2.27-2.762-6.173-3.539-9.327-1.856s-4.682,5.358-3.649,8.781l11.129,36.916
	c-64.92-5.648-109.194-43.806-109.651-44.206c-2.681-2.359-6.654-2.5-9.497-0.338c-2.842,2.163-3.765,6.03-2.205,9.244l20.22,41.652
	c-48.442,0.642-80.078-11.201-98.463-21.691c-21.297-12.151-29.881-25.136-29.944-25.232c-1.209-1.906-3.212-3.167-5.454-3.431
	c-2.244-0.264-4.483,0.494-6.103,2.066c-23.25,22.562-47.764,30.217-60.463,32.783c2.429-17.583,7.421-34.586,14.88-50.721h328.989
	c7.245,15.671,12.165,32.161,14.666,49.208C420.797,164.977,394.956,154.605,380.029,136.435z M433.82,229.509
	c2.032-10.836,3.107-22.005,3.107-33.422c0-3.443-0.106-6.897-0.3-10.343c1.457,0.411,2.659,0.728,3.587,0.963
	c5.046,5.031,7.911,11.852,7.911,19.031C448.124,215.957,442.388,224.972,433.82,229.509z"/>
<path d="M276.495,235.684c-3.59-2.065-8.176-0.828-10.24,2.763c-2.107,3.665-6.038,5.941-10.257,5.941s-8.149-2.277-10.256-5.941
	c-2.065-3.591-6.65-4.829-10.24-2.765c-3.591,2.064-4.829,6.649-2.765,10.24c4.775,8.306,13.688,13.466,23.261,13.466
	c9.572,0,18.485-5.159,23.26-13.464C281.323,242.333,280.086,237.748,276.495,235.684z"/>
<path d="M319.687,203.755c-4.142,0-7.5,3.358-7.5,7.5v11.355c0,4.142,3.358,7.5,7.5,7.5s7.5-3.358,7.5-7.5v-11.355
	C327.187,207.113,323.829,203.755,319.687,203.755z"/>
<path d="M192.308,203.755c-4.142,0-7.5,3.358-7.5,7.5v11.355c0,4.142,3.358,7.5,7.5,7.5s7.5-3.358,7.5-7.5v-11.355
	C199.808,207.113,196.45,203.755,192.308,203.755z"/>
<g>
</g>
<g>
</g>
<g>
</g>
<g>
</g>
<g>
</g>
<g>
</g>
<g>
</g>
<g>
</g>
<g>
</g>
<g>
</g>
<g>
</g>
<g>
</g>
<g>
</g>
<g>
</g>
<g>
</g>
</svg>
