<?xml version="1.0" encoding="iso-8859-1"?>
<!-- Generator: Adobe Illustrator 21.0.0, SVG Export Plug-In . SVG Version: 6.00 Build 0)  -->
<svg version="1.1" id="Capa_1" xmlns="http://www.w3.org/2000/svg" xmlns:xlink="http://www.w3.org/1999/xlink" x="0px" y="0px"
	 viewBox="0 0 511.998 511.998" style="enable-background:new 0 0 511.998 511.998;" xml:space="preserve">
<g>
	<circle style="fill:#966D50;" cx="426.449" cy="196.34" r="35.46"/>
	<circle style="fill:#966D50;" cx="85.549" cy="196.34" r="35.46"/>
</g>
<path style="fill:#C39772;" d="M89.49,504.499c0-91.96,74.548-166.508,166.508-166.508s166.508,74.548,166.508,166.508H89.49z"/>
<path style="fill:#B48764;" d="M271.634,338.727c-5.148-0.479-10.362-0.736-15.635-0.736c-91.96,0-166.508,74.548-166.508,166.508
	h31.271C120.761,417.813,187.007,346.61,271.634,338.727z"/>
<path style="fill:#3A484A;" d="M150.206,375.914v128.585h211.585V375.914c-28.765-23.693-65.616-37.924-105.792-37.924
	C215.823,337.991,178.971,352.221,150.206,375.914z"/>
<path style="fill:#EFEDEE;" d="M271.616,504.499H240.38v-60.474c0-2.109,1.71-3.819,3.819-3.819h23.598
	c2.109,0,3.819,1.71,3.819,3.819V504.499z"/>
<path style="fill:#313D40;" d="M271.662,338.724c-5.157-0.481-10.381-0.734-15.663-0.734c-40.176,0-77.027,14.23-105.792,37.924
	v34.034C177.468,370.505,221.309,343.406,271.662,338.724z"/>
<path style="fill:#EFEDEE;" d="M255.998,417.077c-32.38,0-58.723-26.344-58.723-58.724s26.343-58.723,58.723-58.723
	s58.723,26.343,58.723,58.723S288.379,417.077,255.998,417.077z"/>
<path style="fill:#313D40;" d="M255.998,337.991c-31.063,0-60.134,8.513-85.022,23.323c25.7,12.542,54.552,19.591,85.022,19.591
	s59.322-7.049,85.022-19.591C316.133,346.504,287.061,337.991,255.998,337.991z"/>
<path style="fill:#D4D2D3;" d="M313.022,372.353c1.103-4.489,1.7-9.176,1.7-14c0-3.412-0.309-6.752-0.87-10.007
	c-18.022-6.683-37.505-10.356-57.853-10.356s-39.831,3.673-57.853,10.356c-0.561,3.254-0.87,6.594-0.87,10.007
	c0,4.825,0.597,9.511,1.7,14c18.042,5.546,37.187,8.552,57.024,8.552S294.98,377.9,313.022,372.353z"/>
<circle style="fill:#B48764;" cx="255.999" cy="358.35" r="43.09"/>
<path style="fill:#966D50;" d="M255.998,315.265c-23.797,0-43.088,19.291-43.088,43.088c0,6.681,1.521,13.007,4.235,18.65
	c12.558,2.556,25.551,3.901,38.853,3.901s26.294-1.345,38.853-3.901c2.714-5.644,4.235-11.969,4.235-18.65
	C299.087,334.557,279.795,315.265,255.998,315.265z"/>
<g>
	<path style="fill:#EFEDEE;" d="M346.155,504.499h15.635V375.914c-4.976-4.099-10.2-7.907-15.635-11.415V504.499z"/>
	<path style="fill:#EFEDEE;" d="M165.842,504.499h-15.635V375.914c4.976-4.099,10.2-7.907,15.635-11.415V504.499z"/>
</g>
<path style="fill:#D4D2D3;" d="M165.842,364.499c-2.691,1.737-5.329,3.548-7.912,5.431c-0.09,0.066-0.179,0.133-0.27,0.2
	c-1.085,0.794-2.157,1.604-3.222,2.424c-0.264,0.204-0.53,0.407-0.793,0.612c-1.158,0.903-2.306,1.816-3.439,2.748v34.034
	c4.727-6.84,9.964-13.298,15.635-19.342v-26.107H165.842z"/>
<circle style="fill:#C39772;" cx="255.999" cy="186.38" r="178.88"/>
<g>
	<path style="fill:#B48764;" d="M77.123,185.685c84.732,0.065,272.999,0.208,357.755,0.273c-0.036-15.324-1.995-30.197-5.656-44.386
		H82.775C79.136,155.676,77.181,170.457,77.123,185.685z"/>
	<path style="fill:#B48764;" d="M108.385,186.385c0-93.526,71.778-170.274,163.249-178.197C266.48,7.741,261.268,7.5,255.998,7.5
		c-98.795,0-178.885,80.089-178.885,178.885S157.202,365.27,255.998,365.27c5.269,0,10.482-0.241,15.635-0.688
		C180.162,356.659,108.385,279.91,108.385,186.385z"/>
</g>
<path style="fill:#3A484A;" d="M84.946,112.788c-2.325,0-4.392,1.444-5.231,3.612c-5.762,14.891-9.746,30.661-11.68,47.05
	c-0.391,3.312,2.215,6.223,5.551,6.229l364.885,0.676c3.336,0.006,5.952-2.896,5.573-6.211
	c-1.902-16.636-5.913-32.641-11.755-47.742c-0.839-2.169-2.905-3.614-5.231-3.614C427.059,112.788,84.946,112.788,84.946,112.788z"
	/>
<path style="fill:#313D40;" d="M104.856,169.679c-3.335-0.006-5.942-2.916-5.551-6.229c1.935-16.389,5.918-32.159,11.68-47.05
	c0.839-2.168,2.906-3.612,5.23-3.612h-31.27c-2.325,0-4.392,1.444-5.23,3.612c-5.763,14.891-9.746,30.661-11.68,47.05
	c-0.391,3.312,2.216,6.223,5.551,6.229l364.885,0.676c0.254,0,0.502-0.021,0.746-0.053L104.856,169.679z"/>
<path d="M340.622,352.426c45.277-23.17,79.883-64.324,94.351-113.975c19.911-3.967,34.432-21.351,34.432-42.112
	c0-13.979-6.882-27.059-18.173-35.062c-2.03-16.292-6.032-32.291-11.948-47.581c-1.977-5.108-6.775-8.408-12.226-8.408h-3.206
	C392.827,41.168,327.478,0,255.999,0S119.17,41.168,88.144,105.288h-3.198c-5.45,0-10.249,3.299-12.226,8.406
	c-5.92,15.3-9.932,31.305-11.961,47.588c-11.294,8.003-18.167,21.056-18.167,35.058c0,20.789,14.512,38.148,34.432,42.11
	c14.467,49.651,49.073,90.806,94.351,113.976c-9.148,5.1-17.735,10.974-25.693,17.516c-0.158,0.12-0.312,0.246-0.46,0.378
	c-39.381,32.603-63.232,81.623-63.232,134.178c0,4.142,3.358,7.5,7.5,7.5h333.017c4.143,0,7.5-3.358,7.5-7.5
	c0-52.519-23.837-101.53-63.188-134.138c-0.174-0.158-0.356-0.308-0.545-0.449C358.328,363.382,349.755,357.518,340.622,352.426z
	 M439.086,221.319c2.156-11.32,3.298-22.996,3.298-34.934c0-3.015-0.081-6.048-0.226-9.073c1.154-0.339,2.254-0.833,3.274-1.472
	c5.635,5.237,8.974,12.651,8.974,20.501C454.405,207.239,448.259,216.709,439.086,221.319z M86.257,120.288h80.305
	c4.142,0,7.5-3.358,7.5-7.5s-3.358-7.5-7.5-7.5H104.98C134.682,50.075,192.729,15,255.999,15s121.316,35.075,151.019,90.288H194.561
	c-4.142,0-7.5,3.358-7.5,7.5s3.358,7.5,7.5,7.5h224.514c0.007,0,0.014,0.001,0.021,0.001c0.009,0,0.019-0.001,0.028-0.001h6.622
	c5.193,13.701,8.752,28.003,10.589,42.563l-360.586-0.668C77.609,147.863,81.14,133.786,86.257,120.288z M57.592,196.34
	c0-8.079,3.515-15.677,9.435-20.93c0.896,0.519,1.855,0.918,2.848,1.213c-0.168,3.252-0.261,6.514-0.261,9.761
	c0,11.941,1.142,23.619,3.299,34.941C63.735,216.721,57.592,207.256,57.592,196.34z M84.614,186.385
	c0-3.056,0.091-6.126,0.252-9.185l342.299,0.634c0.14,2.851,0.219,5.709,0.219,8.551c0,94.502-76.883,171.385-171.385,171.385
	S84.614,280.887,84.614,186.385z M289.729,369.703c-4.758,14.136-18.145,24.238-33.73,24.238c-15.636,0-28.993-10.09-33.737-24.239
	c10.946,2.009,22.22,3.068,33.737,3.068C267.514,372.77,278.785,371.712,289.729,369.703z M205.977,365.943
	c3.671,24.475,24.763,42.998,50.022,42.998c25.18,0,46.329-18.551,50.013-42.996c5.794-1.616,11.473-3.507,17.027-5.655
	c11.266,5.246,21.732,11.716,31.252,19.226v117.482h-75.174v-52.974c0-6.241-5.078-11.319-11.319-11.319h-23.599
	c-6.241,0-11.318,5.078-11.318,11.319v52.974h-75.175V379.512c9.52-7.508,19.989-13.974,31.255-19.22
	C194.511,362.438,200.188,364.328,205.977,365.943z M264.117,496.999h-16.236v-49.292h16.236V496.999z M142.706,392.993v104.006
	H97.167C99.042,457.43,115.681,420.523,142.706,392.993z M414.83,496.999h-45.539V392.998
	C396.313,420.532,412.954,457.443,414.83,496.999z"/>
<path d="M279.259,245.924c2.064-3.591,0.827-8.176-2.764-10.24c-3.588-2.065-8.175-0.828-10.24,2.763
	c-2.107,3.665-6.037,5.941-10.257,5.941c-4.219,0-8.149-2.277-10.256-5.941c-2.065-3.591-6.65-4.829-10.24-2.765
	c-3.591,2.064-4.829,6.649-2.765,10.24c4.775,8.306,13.688,13.466,23.261,13.466C265.571,259.388,274.484,254.229,279.259,245.924z"
	/>
<path d="M319.688,230.11c4.143,0,7.5-3.358,7.5-7.5v-11.355c0-4.142-3.357-7.5-7.5-7.5s-7.5,3.358-7.5,7.5v11.355
	C312.188,226.752,315.545,230.11,319.688,230.11z"/>
<path d="M192.309,203.755c-4.142,0-7.5,3.358-7.5,7.5v11.355c0,4.142,3.358,7.5,7.5,7.5s7.5-3.358,7.5-7.5v-11.355
	C199.809,207.113,196.451,203.755,192.309,203.755z"/>
<g>
	<path style="fill:#DC5A64;" d="M325.366,251.576h-11.355c-4.143,0-7.5-3.358-7.5-7.5s3.357-7.5,7.5-7.5h11.355
		c4.143,0,7.5,3.358,7.5,7.5S329.508,251.576,325.366,251.576z"/>
	<path style="fill:#DC5A64;" d="M197.987,251.576h-11.355c-4.142,0-7.5-3.358-7.5-7.5s3.358-7.5,7.5-7.5h11.355
		c4.142,0,7.5,3.358,7.5,7.5S202.129,251.576,197.987,251.576z"/>
</g>
<g>
</g>
<g>
</g>
<g>
</g>
<g>
</g>
<g>
</g>
<g>
</g>
<g>
</g>
<g>
</g>
<g>
</g>
<g>
</g>
<g>
</g>
<g>
</g>
<g>
</g>
<g>
</g>
<g>
</g>
</svg>
