<?xml version="1.0" encoding="iso-8859-1"?>
<!-- Generator: Adobe Illustrator 21.0.0, SVG Export Plug-In . SVG Version: 6.00 Build 0)  -->
<svg version="1.1" id="Capa_1" xmlns="http://www.w3.org/2000/svg" xmlns:xlink="http://www.w3.org/1999/xlink" x="0px" y="0px"
	 viewBox="0 0 512.001 512.001" style="enable-background:new 0 0 512.001 512.001;" xml:space="preserve">
<g>
	<circle style="fill:#CC9883;" cx="421.25" cy="205.74" r="34.379"/>
	<circle style="fill:#CC9883;" cx="90.749" cy="205.74" r="34.379"/>
</g>
<path style="fill:#FBC4AC;" d="M94.569,504.5c0-89.155,72.275-161.43,161.43-161.43s161.43,72.275,161.43,161.43H94.569z"/>
<path style="fill:#E3B098;" d="M271.159,343.783c-4.991-0.465-10.046-0.714-15.159-0.714c-89.155,0-161.43,72.275-161.43,161.43
	h30.317C124.886,420.457,189.113,351.426,271.159,343.783z"/>
<path style="fill:#EFEDEE;" d="M255.999,343.07c-74.256,0-136.792,50.141-155.624,118.409h53.058V504.5h205.132v-43.021h53.058
	C392.792,393.21,330.255,343.07,255.999,343.07z"/>
<path style="fill:#D4D2D3;" d="M271.159,343.781c-4.991-0.465-10.046-0.711-15.159-0.711c-74.256,0-136.792,50.141-155.624,118.409
	h30.317C148.227,397.911,203.658,350.069,271.159,343.781z"/>
<path style="fill:#2FC8B4;" d="M296.779,328.656h-81.56c-0.637,0-1.25,0.243-1.714,0.679l-35.051,32.943
	c-0.911,0.857-1.05,2.255-0.325,3.274l50.856,71.502c1.011,1.421,3.129,1.398,4.109-0.044l20.834-30.674
	c0.993-1.462,3.147-1.462,4.14,0l20.835,30.674c0.98,1.443,3.098,1.466,4.109,0.044l50.856-71.502
	c0.725-1.019,0.586-2.417-0.325-3.274l-35.051-32.942C298.029,328.899,297.417,328.656,296.779,328.656z"/>
<g>
	<path style="fill:#00AE95;" d="M186.636,377.513c27.447-21.575,62.061-34.443,99.68-34.443c10.148,0,20.074,0.946,29.702,2.737
		l-17.526-16.472c-0.464-0.436-1.077-0.679-1.714-0.679h-81.559c-0.637,0-1.25,0.243-1.714,0.679l-35.051,32.943
		c-0.911,0.857-1.05,2.255-0.325,3.274L186.636,377.513z"/>
	<path style="fill:#00AE95;" d="M298.493,329.335c-0.464-0.436-1.077-0.679-1.714-0.679h-81.56c-0.637,0-1.25,0.243-1.714,0.679
		l-35.051,32.943c-0.911,0.857-1.05,2.255-0.325,3.274l2.37,3.332c23.131,10.146,48.667,15.792,75.5,15.792
		s52.369-5.646,75.5-15.792l2.37-3.332c0.725-1.019,0.586-2.417-0.326-3.274L298.493,329.335z"/>
</g>
<path style="fill:#E3B098;" d="M214.229,328.656v34.155l39.555,39.558c1.224,1.224,3.208,1.224,4.431,0l39.555-39.558v-34.155
	L214.229,328.656L214.229,328.656z"/>
<path style="fill:#CC9883;" d="M214.229,362.812l20.676,20.677c6.928,0.775,13.964,1.186,21.095,1.186s14.167-0.412,21.095-1.186
	l20.676-20.677v-34.155h-83.542V362.812z"/>
<circle style="fill:#FBC4AC;" cx="255.999" cy="196.09" r="173.43"/>
<g>
	<path style="fill:#E3B098;" d="M82.579,195.409c82.148,0.063,264.673,0.202,346.844,0.264c-0.035-14.857-1.934-29.276-5.483-43.033
		H88.058C84.531,166.316,82.635,180.646,82.579,195.409z"/>
	<path style="fill:#E3B098;" d="M112.887,196.088c0-90.673,69.589-165.081,158.271-172.762c-4.996-0.433-10.05-0.667-15.159-0.667
		c-95.782,0-173.429,77.647-173.429,173.429s77.647,173.429,173.429,173.429c5.109,0,10.162-0.234,15.159-0.667
		C182.477,361.169,112.887,286.761,112.887,196.088z"/>
</g>
<path style="fill:#AD5645;" d="M68.102,179.881C76.347,83.451,157.47,7.5,255.999,7.5c98.759,0,180.031,76.306,187.955,173.057"/>
<path style="fill:#994136;" d="M98.419,179.881c7.818-91.436,81.164-164.447,172.739-171.766c-5.002-0.4-10.056-0.615-15.159-0.615
	c-98.529,0-179.652,75.951-187.897,172.381l375.852,0.676c-0.001-0.018-0.004-0.036-0.005-0.055L98.419,179.881z"/>
<path style="fill:#2FC8B4;" d="M448.415,174.525c-1.844-16.129-5.732-31.646-11.397-46.286c-0.813-2.103-2.817-3.504-5.071-3.504
	h-58.816c10.89,18.218,12.691,33.489,12.691,33.489c-60.298,1.622-96.076-16.391-116.316-33.489H80.057
	c-2.254,0-4.258,1.4-5.071,3.502c-5.587,14.437-9.449,29.726-11.324,45.615c-0.379,3.211,2.148,6.033,5.381,6.039l373.968,0.655
	C446.247,180.552,448.782,177.738,448.415,174.525z"/>
<path style="fill:#00AE95;" d="M99.361,179.891c-3.234-0.006-5.761-2.827-5.381-6.039c1.875-15.889,5.737-31.178,11.324-45.615
	c0.813-2.102,2.817-3.502,5.071-3.502H80.057c-2.254,0-4.258,1.4-5.071,3.502c-5.587,14.437-9.449,29.726-11.324,45.615
	c-0.379,3.211,2.148,6.033,5.381,6.039l373.968,0.655c0.246,0,0.486-0.021,0.724-0.052L99.361,179.891z"/>
<circle style="fill:#2FC8B4;" cx="256.5" cy="456.83" r="12.13"/>
<path d="M454.717,180.601c1.004-2.142,1.423-4.535,1.149-6.927c-1.886-16.489-5.874-32.686-11.853-48.139
	c-1.468-3.794-4.514-6.576-8.224-7.722c-10.726-24.569-26.507-46.908-46.653-65.568C352.763,18.554,305.48,0,255.999,0
	c-44.552,0-86.571,14.623-121.515,42.287c-3.248,2.571-3.796,7.288-1.225,10.536c2.572,3.249,7.288,3.795,10.535,1.225
	C176.063,28.502,214.861,15,255.999,15c70.7,0,133.229,41.674,162.869,102.235H373.13c-2.7,0-5.191,1.451-6.523,3.799
	c-1.332,2.348-1.3,5.231,0.086,7.549c5.173,8.654,8.132,16.616,9.776,22.236c-53.669-0.382-85.133-17.46-102.123-31.813
	c-1.354-1.143-3.068-1.771-4.84-1.771H93.073c7.941-16.363,18.334-31.574,30.904-44.968c2.835-3.021,2.684-7.767-0.336-10.601
	c-3.022-2.835-7.769-2.683-10.602,0.336c-15.409,16.419-27.8,35.361-36.73,55.785c-3.752,1.127-6.838,3.92-8.317,7.744
	c-5.899,15.245-9.862,31.207-11.778,47.443c-0.299,2.53,0.181,5.063,1.308,7.3c-5.557,7.253-8.649,16.183-8.649,25.465
	c0,20.203,14.086,37.105,33.431,41.022c13.997,47.9,47.308,87.638,90.901,110.17c-0.207,0.201-0.406,0.408-0.592,0.624
	c-38.901,22.11-67.16,58.676-79.158,101.016c-0.236,0.561-0.398,1.16-0.492,1.781c-3.855,14.194-5.894,29.017-5.894,44.149
	c0,4.142,3.357,7.5,7.5,7.5H417.43c4.143,0,7.5-3.358,7.5-7.5c0-15.161-2.046-30.011-5.914-44.23
	c-0.089-0.546-0.233-1.072-0.432-1.572c-11.976-42.398-40.253-79.011-79.197-101.144c-0.186-0.215-0.385-0.422-0.592-0.624
	c43.593-22.531,76.904-62.269,90.901-110.17c19.353-3.912,33.431-20.792,33.431-41.022
	C463.127,196.639,460.115,187.803,454.717,180.601z M63.872,205.739c0-6.84,2.613-13.387,7.24-18.344l4.167,0.007
	c-0.137,2.895-0.208,5.797-0.208,8.685c0,11.426,1.077,22.604,3.112,33.448C69.595,225.031,63.872,216.057,63.872,205.739z
	 M145.926,497h-43.675c0.466-9.538,1.833-18.908,4.002-28.021h39.673V497z M409.747,497h-43.683v-28.021h39.681
	C407.914,478.092,409.281,487.462,409.747,497z M401.364,453.979h-35.299v-9.275c0-4.142-3.357-7.5-7.5-7.5s-7.5,3.358-7.5,7.5V497
	H160.926v-52.296c0-4.142-3.357-7.5-7.5-7.5s-7.5,3.358-7.5,7.5v9.275h-35.29c11.492-32.983,33.998-61.486,64.115-80.236
	l48.122,67.657c1.897,2.668,4.99,4.248,8.258,4.205c3.273-0.035,6.327-1.672,8.168-4.382l16.7-24.587l16.701,24.589
	c1.84,2.708,4.894,4.346,8.167,4.38c0.036,0,0.071,0.001,0.106,0.001c3.234,0,6.274-1.567,8.15-4.205l48.124-67.659
	C367.367,392.491,389.872,420.994,401.364,453.979z M255.999,393.979l-17.84-17.841c5.87,0.577,11.82,0.88,17.84,0.88
	c6.02,0,11.97-0.302,17.84-0.88L255.999,393.979z M299.463,371.727c7.359-1.822,14.541-4.093,21.516-6.786
	c1.031,0.481,2.066,0.957,3.084,1.459l-42.994,60.449l-14.855-21.871L299.463,371.727z M245.785,404.978l-14.855,21.87
	l-42.995-60.45c1.017-0.502,2.053-0.977,3.084-1.458c6.976,2.694,14.158,4.965,21.518,6.787L245.785,404.978z M255.999,362.017
	c-91.493,0-165.929-74.436-165.929-165.929c0-2.88,0.082-5.773,0.23-8.659l331.428,0.58c0.129,2.692,0.199,5.391,0.199,8.078
	C421.928,287.581,347.492,362.017,255.999,362.017z M429.633,173.023c-0.51-0.062-1.033-0.074-1.564-0.026
	c-0.054,0.005-0.107,0.017-0.161,0.022l-343.833-0.602c-0.022-0.002-0.044-0.007-0.066-0.01c-0.474-0.043-0.94-0.036-1.396,0.007
	l-6.149-0.011c1.818-13.752,5.241-27.238,10.14-40.169h180.21c19.543,15.735,54.327,33.593,111.501,33.591
	c2.536,0,5.131-0.036,7.709-0.105c2.106-0.057,4.092-0.997,5.471-2.59c1.379-1.594,2.023-3.693,1.776-5.786
	c-0.064-0.548-1.373-11.064-7.755-25.11h39.867c4.935,12.954,8.419,26.616,10.236,40.798L429.633,173.023z M433.815,229.54
	c2.036-10.845,3.113-22.025,3.113-33.452c0-2.678-0.06-5.368-0.178-8.052l4.734,0.008c4.302,4.892,6.642,11.078,6.642,17.695
	C448.127,216.071,442.406,225.04,433.815,229.54z"/>
<path d="M256.505,437.204c-10.822,0-19.626,8.804-19.626,19.626s8.804,19.627,19.626,19.627s19.627-8.805,19.627-19.627
	S267.326,437.204,256.505,437.204z M256.505,461.457c-2.551,0-4.626-2.076-4.626-4.627s2.075-4.626,4.626-4.626
	c2.552,0,4.627,2.075,4.627,4.626S259.057,461.457,256.505,461.457z"/>
<path d="M276.497,235.684c-3.589-2.065-8.175-0.828-10.24,2.763c-2.107,3.665-6.037,5.941-10.257,5.941
	c-4.22,0-8.149-2.277-10.257-5.942c-2.065-3.59-6.649-4.829-10.24-2.764c-3.591,2.064-4.828,6.649-2.764,10.24
	c4.775,8.306,13.688,13.465,23.261,13.465c9.573,0,18.485-5.159,23.261-13.464C281.325,242.333,280.088,237.748,276.497,235.684z"/>
<path d="M319.688,203.755c-4.143,0-7.5,3.358-7.5,7.5v11.355c0,4.142,3.357,7.5,7.5,7.5s7.5-3.358,7.5-7.5v-11.355
	C327.188,207.113,323.831,203.755,319.688,203.755z"/>
<path d="M192.311,203.755c-4.143,0-7.5,3.358-7.5,7.5v11.355c0,4.142,3.357,7.5,7.5,7.5s7.5-3.358,7.5-7.5v-11.355
	C199.811,207.113,196.452,203.755,192.311,203.755z"/>
<g>
	<path style="fill:#DC5A64;" d="M325.367,251.576h-11.355c-4.143,0-7.5-3.358-7.5-7.5s3.357-7.5,7.5-7.5h11.355
		c4.143,0,7.5,3.358,7.5,7.5S329.51,251.576,325.367,251.576z"/>
	<path style="fill:#DC5A64;" d="M197.988,251.576h-11.355c-4.143,0-7.5-3.358-7.5-7.5s3.357-7.5,7.5-7.5h11.355
		c4.143,0,7.5,3.358,7.5,7.5S202.13,251.576,197.988,251.576z"/>
</g>
<g>
</g>
<g>
</g>
<g>
</g>
<g>
</g>
<g>
</g>
<g>
</g>
<g>
</g>
<g>
</g>
<g>
</g>
<g>
</g>
<g>
</g>
<g>
</g>
<g>
</g>
<g>
</g>
<g>
</g>
</svg>
