<svg height="480pt" viewBox="0 -108 480 480" width="480pt" xmlns="http://www.w3.org/2000/svg"><path d="m32 176v-24l88-32h88c10.207031-.890625 19.253906-6.921875 24-16l8-24c61.53125-7.507812 123.757812 6.636719 176 40v56zm0 0" fill="#ffd782"/><path d="m313.433594 81.3125c-24.269532-4.191406-49.03125-4.632812-73.433594-1.3125l-8 24c-4.746094 9.078125-13.792969 15.109375-24 16h-88l-88 32v24h186.742188zm0 0" fill="#dd3e46"/><path d="m383.089844 102.167969-73.832032 73.832031h106.742188v-56c-10.539062-6.707031-21.539062-12.664062-32.910156-17.832031zm0 0" fill="#dd3e46"/><path d="m8 176h464v32h-464zm0 0" fill="#b5554e"/><path d="m464 96h-31.496094c-9.113281 0-16.503906 7.390625-16.503906 16.503906v63.496094h32v-32c0-8.835938 7.164062-16 16-16zm0 0" fill="#7fcac9"/><path d="m408 48h-120c-4.417969 0-8-3.582031-8-8s3.582031-8 8-8h120c4.417969 0 8 3.582031 8 8s-3.582031 8-8 8zm0 0" fill="#5a6470"/><path d="m456 16h-120c-4.417969 0-8-3.582031-8-8s3.582031-8 8-8h120c4.417969 0 8 3.582031 8 8s-3.582031 8-8 8zm0 0" fill="#5a6470"/><path d="m120 120 48-48v48zm0 0" fill="#7fcac9"/><path d="m184 192c0 35.347656-28.652344 64-64 64s-64-28.652344-64-64 28.652344-64 64-64 64 28.652344 64 64zm0 0" fill="#5a6470"/><path d="m392 192c0 35.347656-28.652344 64-64 64s-64-28.652344-64-64 28.652344-64 64-64 64 28.652344 64 64zm0 0" fill="#5a6470"/><path d="m152 192c0 17.671875-14.328125 32-32 32s-32-14.328125-32-32 14.328125-32 32-32 32 14.328125 32 32zm0 0" fill="#cfdfe8"/><path d="m360 192c0 17.671875-14.328125 32-32 32s-32-14.328125-32-32 14.328125-32 32-32 32 14.328125 32 32zm0 0" fill="#cfdfe8"/><path d="m120 152c-22.089844 0-40 17.910156-40 40s17.910156 40 40 40 40-17.910156 40-40c-.027344-22.082031-17.917969-39.972656-40-40zm0 64c-13.253906 0-24-10.746094-24-24s10.746094-24 24-24 24 10.746094 24 24-10.746094 24-24 24zm0 0"/><path d="m328 152c-22.089844 0-40 17.910156-40 40s17.910156 40 40 40 40-17.910156 40-40c-.027344-22.082031-17.917969-39.972656-40-40zm0 64c-13.253906 0-24-10.746094-24-24s10.746094-24 24-24 24 10.746094 24 24-10.746094 24-24 24zm0 0"/><path d="m288 48h120c4.417969 0 8-3.582031 8-8s-3.582031-8-8-8h-120c-4.417969 0-8 3.582031-8 8s3.582031 8 8 8zm0 0"/><path d="m336 16h120c4.417969 0 8-3.582031 8-8s-3.582031-8-8-8h-120c-4.417969 0-8 3.582031-8 8s3.582031 8 8 8zm0 0"/><path d="m472 168h-16v-24c0-4.417969 3.582031-8 8-8s8-3.582031 8-8v-32c0-4.417969-3.582031-8-8-8h-31.496094c-11.148437.035156-20.867187 7.601562-23.640625 18.398438-51.488281-29.734376-111.308593-41.773438-170.296875-34.269532-.546875.117188-1.085937.292969-1.597656.519532-.144531.0625-.3125.078124-.449219.144531-.511719.265625-.992187.582031-1.441406.941406-.101563.082031-.230469.136719-.324219.21875-1.085937.941406-1.898437 2.15625-2.355468 3.519531l-7.703126 23.113282c-3.421874 6.25-9.625 10.492187-16.695312 11.414062h-32v-40c0-3.234375-1.949219-6.152344-4.9375-7.390625s-6.429688-.550781-8.71875 1.734375l-46.742188 46.746094-86.335937 31.390625c-3.164063 1.148437-5.265625 4.15625-5.265625 7.519531v16h-16c-4.417969 0-8 3.582031-8 8v32c0 4.417969 3.582031 8 8 8h44.199219c10.128906 28.765625 37.304687 48.007812 67.800781 48.007812s57.671875-19.242187 67.800781-48.007812h72.398438c10.128906 28.765625 37.304687 48.007812 67.800781 48.007812s57.671875-19.242187 67.800781-48.007812h76.199219c4.417969 0 8-3.582031 8-8v-32c0-4.417969-3.582031-8-8-8zm-48-55.496094c.003906-4.695312 3.808594-8.5 8.503906-8.503906h23.496094v17.367188c-9.582031 3.402343-15.988281 12.464843-16 22.632812v24h-16zm-28.199219 55.496094c-5.503906-15.445312-16.097656-28.554688-30.039062-37.183594l18.949219-18.960937c2.132812 1.035156 4.289062 2.101562 6.464843 3.199219 1.417969.730468 2.847657 1.425781 4.25 2.175781 4.183594 2.25 8.375 4.625 12.574219 7.203125v43.566406zm-135.601562 0h-22.144531l78.050781-78.046875c18.109375 3.136719 35.84375 8.148437 52.917969 14.957031l-18.671876 18.683594c-37.128906-12.210938-77.203124 7.527344-90.152343 44.40625zm-21.34375-59.878906c.304687-.503906.550781-1.042969.738281-1.601563l6.398438-19.289062 2.144531-.222657 1.496093-.160156 2.121094-.175781c.902344-.070313 1.804688-.152344 2.8125-.214844l2.152344-.136719c1.273438-.074218 2.585938-.144531 4-.199218l1.984375-.066406c1.722656-.050782 3.535156-.089844 5.433594-.109376h1.449219c2.398437 0 4.933593 0 7.605468.085938h.136719c5.769531.152344 12.097656.519531 18.878906 1.191406l-80.773437 80.777344h-27.632813c-6.164062-17.292969-18.679687-31.59375-35-40h55.199219c13.003906-.925781 24.640625-8.421875 30.855469-19.878906zm-78.855469-16.808594v20.6875h-20.6875zm-120 66.289062 21.910156-8c-4.109375 5.628907-7.382812 11.828126-9.710937 18.398438h-12.199219zm-24 42.398438v-16h32.472656c-.628906 5.316406-.628906 10.683594 0 16zm104 48c-30.929688 0-56-25.070312-56-56s25.070312-56 56-56 56 25.070312 56 56c-.035156 30.914062-25.085938 55.964844-56 56zm71.527344-48c.628906-5.316406.628906-10.683594 0-16h64.945312c-.628906 5.316406-.628906 10.683594 0 16zm136.472656 48c-30.929688 0-56-25.070312-56-56s25.070312-56 56-56 56 25.070312 56 56c-.035156 30.914062-25.085938 55.964844-56 56zm136-48h-64.472656c.628906-5.316406.628906-10.683594 0-16h64.472656zm0 0"/></svg>