<?xml version="1.0" encoding="iso-8859-1"?>
<!-- Generator: Adobe Illustrator 21.0.0, SVG Export Plug-In . SVG Version: 6.00 Build 0)  -->
<svg version="1.1" id="Capa_1" xmlns="http://www.w3.org/2000/svg" xmlns:xlink="http://www.w3.org/1999/xlink" x="0px" y="0px"
	 viewBox="0 0 511.999 511.999" style="enable-background:new 0 0 511.999 511.999;" xml:space="preserve">
<g>
	<circle style="fill:#966D50;" cx="418.849" cy="210.079" r="33.879"/>
	<circle style="fill:#966D50;" cx="93.159" cy="210.079" r="33.879"/>
</g>
<path style="fill:#B48764;" d="M96.917,504.499c0-87.859,71.224-159.082,159.082-159.082s159.082,71.223,159.082,159.082H96.917z"/>
<path style="fill:#966D50;" d="M270.937,346.12c-4.919-0.458-9.9-0.703-14.938-0.703c-87.859,0-159.082,71.224-159.082,159.082
	h29.876C126.793,421.679,190.085,353.651,270.937,346.12z"/>
<path style="fill:#DC5A64;" d="M255.999,345.417c-73.176,0-134.803,49.411-153.36,116.687h52.286v42.395h202.148v-42.396h52.286
	C390.802,394.828,329.175,345.417,255.999,345.417z"/>
<g>
	<path style="fill:#BF4E57;" d="M255.999,345.417c-30.346,0-58.702,8.504-82.828,23.25c24.991,12.364,53.109,19.328,82.828,19.328
		s57.837-6.964,82.828-19.328C314.701,353.921,286.345,345.417,255.999,345.417z"/>
	<path style="fill:#BF4E57;" d="M270.937,346.117c-4.919-0.458-9.9-0.701-14.938-0.701c-73.176,0-134.803,49.411-153.36,116.687
		h29.876C149.795,399.46,204.419,352.314,270.937,346.117z"/>
</g>
<path style="fill:#FFCE1C;" d="M199.898,350.228v-33.954h112.203v33.954c0,13.082-4.786,25.712-13.457,35.508l-31.706,35.824
	c-5.814,6.569-16.065,6.569-21.878,0l-31.706-35.824C204.684,375.94,199.898,363.31,199.898,350.228z"/>
<path style="fill:#ECB000;" d="M210.664,382.425c14.523,3.625,29.704,5.569,45.335,5.569s30.812-1.944,45.335-5.569
	c5.9-7.844,9.529-17.152,10.497-26.906c-17.374-6.518-36.181-10.103-55.832-10.103s-38.458,3.585-55.832,10.103
	C201.135,365.274,204.765,374.581,210.664,382.425z"/>
<path style="fill:#B48764;" d="M214.836,331.213v33.659l38.198,43.159c1.576,1.781,4.355,1.781,5.931,0l38.198-43.159v-33.659
	H214.836z"/>
<path style="fill:#966D50;" d="M277.818,386.728l19.345-21.857v-14.049c-13.132-3.511-26.924-5.405-41.163-5.405
	c-14.239,0-28.032,1.894-41.163,5.406v14.049l19.345,21.857c7.159,0.835,14.439,1.266,21.819,1.266
	C263.379,387.995,270.659,387.563,277.818,386.728z"/>
<circle style="fill:#C39772;" cx="255.999" cy="200.569" r="170.91"/>
<path style="fill:#B48764;" d="M114.969,200.572c0-89.355,68.576-162.68,155.969-170.25c-4.924-0.426-9.904-0.657-14.938-0.657
	c-94.389,0-170.907,76.517-170.907,170.907s76.517,170.907,170.906,170.907c5.034,0,10.014-0.231,14.938-0.657
	C183.545,363.253,114.969,289.927,114.969,200.572z"/>
<path style="fill:#FFCE1C;" d="M383.164,405.382h-23.93c-1.194,0-2.161,0.968-2.161,2.161v31.884c0,1.194,0.968,2.161,2.161,2.161
	h42.96c2.329,0,3.882-2.424,2.893-4.533c-5.003-10.671-11.155-20.694-18.298-29.912
	C385.923,406.025,384.578,405.382,383.164,405.382z"/>
<path style="fill:#ECB000;" d="M376.991,439.427v-31.884c0-1.194,0.968-2.161,2.161-2.161h-19.917c-1.194,0-2.161,0.968-2.161,2.161
	v31.884c0,1.194,0.968,2.161,2.161,2.161h19.917C377.958,441.589,376.991,440.621,376.991,439.427z"/>
<g>
	<path style="fill:#FFCE1C;" d="M182.598,437.282v8.822c0,10.675,5.068,20.717,13.657,27.057l2.167,1.6
		c2.272,1.677,5.372,1.677,7.644,0l2.167-1.6c8.589-6.34,13.657-16.381,13.657-27.057v-8.822c0-3.554-2.881-6.436-6.436-6.436
		h-26.421C185.48,430.847,182.598,433.728,182.598,437.282z"/>
	<path style="fill:#FFCE1C;" d="M326.072,20.996l2.427,20.503c-27.955-20.604-72.5-34-72.5-34s-44.545,13.396-72.5,34l2.427-20.503
		c0,0-117.699,52.737-117.699,166.146c0,0,60.223,5.322,90.837-48.738c2.921-5.158,8.354-8.386,14.281-8.386h82.654h82.654
		c5.928,0,11.36,3.228,14.281,8.386c30.614,54.06,90.837,48.738,90.837,48.738C443.771,73.733,326.072,20.996,326.072,20.996z"/>
</g>
<path style="fill:#ECB000;" d="M183.667,40.082l2.259-19.086c0,0-117.699,52.737-117.699,166.146c0,0,13.032,1.147,30.05-3.061
	C99.645,111.465,149.303,64.174,183.667,40.082z"/>
<path d="M427.258,250.593c18.985-3.931,32.965-20.844,32.965-40.509c0-9.412-3.178-18.434-8.989-25.737
	c-0.799-47.452-21.911-91.761-61.204-128.298c-29.988-27.884-59.643-41.337-60.891-41.896c-2.462-1.105-5.33-0.798-7.507,0.8
	c-2.177,1.599-3.325,4.244-3.008,6.925l0.544,4.598c-27.229-15.897-59.42-25.681-61.009-26.158c-1.41-0.424-2.91-0.424-4.32,0
	c-1.589,0.478-33.779,10.261-61.009,26.158l0.544-4.598c0.317-2.681-0.831-5.326-3.008-6.925c-2.176-1.599-5.045-1.904-7.507-0.8
	c-1.248,0.559-30.902,14.012-60.891,41.896c-39.293,36.537-60.405,80.847-61.203,128.3c-5.809,7.303-8.989,16.335-8.989,25.735
	c0,19.886,13.905,36.617,32.968,40.52c13.825,47.243,46.703,86.429,89.722,108.626c-38.658,21.735-66.757,57.907-78.686,99.834
	c-0.287,0.645-0.482,1.338-0.577,2.064c-3.775,13.95-5.785,28.508-5.785,43.371c0,4.142,3.357,7.5,7.5,7.5h318.164
	c4.143,0,7.5-3.358,7.5-7.5c0-20.895-3.812-41.202-11.318-60.449c1.926-3.086,2.161-6.882,0.616-10.179
	c-5.196-11.082-11.643-21.62-19.162-31.322c-2.09-2.697-5.295-4.372-8.698-4.617c-13-15.593-28.834-28.774-46.47-38.711
	C380.563,337.02,413.437,297.835,427.258,250.593z M431.388,233.289c1.975-10.61,3.018-21.543,3.018-32.717
	c0-1.968-0.039-3.942-0.104-5.913c1.889,0.092,3.57,0.128,4.979,0.128c0.367,0,0.713-0.002,1.045-0.006
	c3.174,4.446,4.897,9.769,4.897,15.303C445.223,219.98,439.674,228.786,431.388,233.289z M66.775,210.083
	c0-5.529,1.726-10.857,4.9-15.304c1.606,0.019,3.637-0.003,6.021-0.119c-0.064,1.971-0.104,3.945-0.104,5.912
	c0,11.184,1.045,22.128,3.023,32.748C72.306,228.855,66.775,220.099,66.775,210.083z M108.519,469.603h38.899v27.396h-42.815
	C105.065,487.676,106.403,478.516,108.519,469.603z M397.129,449.088c0.719,1.828,1.407,3.666,2.053,5.515h-34.608v-5.515H397.129z
	 M364.573,496.999v-27.396h38.976c2.11,8.953,3.402,18.102,3.851,27.396H364.573z M395.24,434.088h-30.667v-21.207h17.166
	C386.818,419.566,391.342,426.673,395.24,434.088z M363.716,397.882h-4.481c-5.327,0-9.661,4.334-9.661,9.661v31.884v57.572H162.418
	v-51.427c0-4.142-3.357-7.5-7.5-7.5s-7.5,3.358-7.5,7.5v9.031H112.91c13.289-38.005,41.441-69.959,79.057-87.516
	c6.683,2.578,13.557,4.766,20.597,6.534L247.416,413c2.174,2.456,5.302,3.865,8.582,3.865c3.28,0,6.408-1.409,8.582-3.865
	l34.853-39.379c7.042-1.768,13.919-3.957,20.603-6.536C336.241,374.653,351.09,385.144,363.716,397.882z M236.378,377.895
	c6.446,0.708,12.99,1.084,19.621,1.084s13.176-0.376,19.621-1.084l-19.621,22.169L236.378,377.895z M255.999,363.979
	c-90.103,0-163.406-73.304-163.406-163.407c0-2.548,0.066-5.105,0.183-7.65c3.6-0.651,7.447-1.515,11.46-2.668
	c26.633-7.654,47.849-24.306,61.354-48.154c1.601-2.826,4.571-4.582,7.755-4.582h113.877c4.143,0,7.5-3.358,7.5-7.5
	c0-4.142-3.357-7.5-7.5-7.5H173.345c-8.577,0-16.55,4.671-20.808,12.19c-11.602,20.487-29.07,34.273-51.922,40.978
	c-9.974,2.926-18.891,3.811-24.713,4.031c1.983-41.766,20.779-79.538,55.945-112.371c16.877-15.757,33.928-26.762,44.956-33.083
	l-0.753,6.355c-0.352,2.968,1.094,5.862,3.678,7.365c2.585,1.503,5.813,1.327,8.221-0.446C211.093,30.479,246.895,18.298,256,15.363
	c9.103,2.931,44.868,15.089,68.049,32.174c2.406,1.774,5.636,1.949,8.221,0.446c2.584-1.502,4.029-4.396,3.678-7.365l-0.754-6.369
	c10.934,6.263,27.805,17.147,44.621,32.784c35.384,32.901,54.293,70.778,56.281,112.683c-5.825-0.22-14.743-1.105-24.713-4.03
	c-22.852-6.704-40.32-20.491-51.922-40.978c-4.258-7.519-12.23-12.19-20.808-12.19h-23.427c-4.143,0-7.5,3.358-7.5,7.5
	c0,4.142,3.357,7.5,7.5,7.5h23.427c3.184,0,6.154,1.755,7.755,4.582c13.505,23.848,34.721,40.5,61.354,48.154
	c4.013,1.154,7.86,2.017,11.46,2.668c0.117,2.546,0.183,5.103,0.183,7.651C419.405,290.675,346.102,363.979,255.999,363.979z"/>
<path d="M215.455,423.347h-26.421c-7.685,0-13.936,6.251-13.936,13.936v8.822c0,13,6.244,25.371,16.703,33.091l2.166,1.599
	c2.414,1.782,5.276,2.724,8.277,2.724c3,0,5.862-0.942,8.275-2.724l2.167-1.6c10.459-7.72,16.703-20.091,16.703-33.091v-8.822
	C229.391,429.598,223.14,423.347,215.455,423.347z M214.391,446.104c0,8.259-3.967,16.118-10.611,21.022l-1.534,1.133l-1.535-1.133
	c-6.645-4.905-10.611-12.764-10.611-21.022v-7.758h24.292v7.758H214.391z"/>
<path d="M276.496,235.683c-3.589-2.065-8.175-0.828-10.24,2.763c-2.107,3.665-6.037,5.941-10.257,5.941
	c-4.22,0-8.149-2.277-10.257-5.942c-2.065-3.59-6.649-4.829-10.24-2.764c-3.591,2.064-4.828,6.649-2.764,10.24
	c4.775,8.306,13.688,13.465,23.261,13.465s18.485-5.159,23.261-13.464C281.324,242.332,280.087,237.747,276.496,235.683z"/>
<path d="M319.688,203.754c-4.143,0-7.5,3.358-7.5,7.5v11.355c0,4.142,3.357,7.5,7.5,7.5s7.5-3.358,7.5-7.5v-11.355
	C327.188,207.112,323.831,203.754,319.688,203.754z"/>
<path d="M192.31,203.754c-4.143,0-7.5,3.358-7.5,7.5v11.355c0,4.142,3.357,7.5,7.5,7.5s7.5-3.358,7.5-7.5v-11.355
	C199.81,207.112,196.452,203.754,192.31,203.754z"/>
<g>
	<path style="fill:#DC5A64;" d="M325.366,251.575h-11.355c-4.143,0-7.5-3.358-7.5-7.5s3.357-7.5,7.5-7.5h11.355
		c4.143,0,7.5,3.358,7.5,7.5S329.509,251.575,325.366,251.575z"/>
	<path style="fill:#DC5A64;" d="M197.987,251.575h-11.355c-4.143,0-7.5-3.358-7.5-7.5s3.357-7.5,7.5-7.5h11.355
		c4.143,0,7.5,3.358,7.5,7.5S202.13,251.575,197.987,251.575z"/>
</g>
<g>
</g>
<g>
</g>
<g>
</g>
<g>
</g>
<g>
</g>
<g>
</g>
<g>
</g>
<g>
</g>
<g>
</g>
<g>
</g>
<g>
</g>
<g>
</g>
<g>
</g>
<g>
</g>
<g>
</g>
</svg>
