<?xml version="1.0" encoding="iso-8859-1"?>
<!-- Generator: Adobe Illustrator 21.0.0, SVG Export Plug-In . SVG Version: 6.00 Build 0)  -->
<svg version="1.1" id="Capa_1" xmlns="http://www.w3.org/2000/svg" xmlns:xlink="http://www.w3.org/1999/xlink" x="0px" y="0px"
	 viewBox="0 0 511.998 511.998" style="enable-background:new 0 0 511.998 511.998;" xml:space="preserve">
<path style="fill:#AD5645;" d="M408.824,402.274h-305.65c-11.1,0-20.099-8.999-20.099-20.099V206.343h345.848v175.832
	C428.923,393.276,419.924,402.274,408.824,402.274z"/>
<g>
	<circle style="fill:#CC9883;" cx="421.249" cy="205.74" r="34.379"/>
	<circle style="fill:#CC9883;" cx="90.749" cy="205.74" r="34.379"/>
</g>
<path style="fill:#FBC4AC;" d="M94.569,504.5c0-89.155,72.275-161.43,161.43-161.43s161.43,72.275,161.43,161.43H94.569z"/>
<path style="fill:#E3B098;" d="M271.158,343.783c-4.991-0.465-10.046-0.714-15.159-0.714c-89.155,0-161.43,72.275-161.43,161.43
	h30.317C124.886,420.457,189.112,351.426,271.158,343.783z"/>
<path style="fill:#FFCE1C;" d="M255.999,343.07c-74.256,0-136.792,50.141-155.624,118.409h53.058V504.5h205.132v-43.021h53.058
	C392.791,393.21,330.255,343.07,255.999,343.07z"/>
<path style="fill:#ECB000;" d="M271.158,343.781c-4.991-0.465-10.046-0.711-15.159-0.711c-74.256,0-136.792,50.141-155.624,118.409
	h30.317C148.227,397.911,203.658,350.069,271.158,343.781z"/>
<circle style="fill:#FBC4AC;" cx="255.999" cy="196.09" r="173.43"/>
<path style="fill:#EFEDEE;" d="M90.86,145.676c15.54-10.001,35.045-11.533,51.973-4.121c27.132,11.879,71.438,27.889,113.166,27.889
	s86.035-16.01,113.166-27.889c16.928-7.412,36.433-5.88,51.972,4.121l19.643,12.641C423.238,72.368,347.055,7.5,255.999,7.5
	S88.76,72.368,71.217,158.318L90.86,145.676z"/>
<path style="fill:#D4D2D3;" d="M270.999,8.102c-4.95-0.391-9.951-0.602-15-0.602C164.943,7.5,88.76,72.368,71.217,158.318
	l19.643-12.641c4.831-3.109,10.046-5.397,15.447-6.855C129.146,67.317,193.565,14.226,270.999,8.102z"/>
<path style="fill:#3A484A;" d="M441.536,151.091l-20.399-15.399c-15.539-11.731-35.044-13.528-51.972-4.834
	c-27.132,13.935-71.439,32.715-113.166,32.715s-86.034-18.78-113.166-32.715c-16.928-8.694-36.433-6.897-51.973,4.834
	l-20.398,15.399c-1.471,1.111-2.361,3.023-2.361,5.075v22.076c0,4.777,4.506,7.66,7.93,5.075l14.829-11.195
	c15.54-11.731,35.045-13.528,51.973-4.834c27.132,13.935,71.438,32.715,113.166,32.715s86.035-18.781,113.166-32.715
	c16.928-8.694,36.433-6.897,51.972,4.834l14.83,11.195c3.424,2.585,7.93-0.299,7.93-5.075v-22.076
	C443.897,154.114,443.007,152.202,441.536,151.091z"/>
<path style="fill:#313D40;" d="M441.536,167.694l-20.399-15.399c-15.54-11.731-35.044-13.528-51.972-4.834
	c-27.132,13.935-71.438,32.715-113.166,32.715s-86.034-18.781-113.166-32.715c-16.928-8.694-36.433-6.897-51.973,4.834
	l-20.398,15.399c-1.471,1.111-2.361,3.023-2.361,5.075v5.473c0,4.777,4.506,7.66,7.93,5.075l14.829-11.195
	c15.54-11.731,35.045-13.529,51.973-4.834c27.132,13.935,71.438,32.715,113.166,32.715s86.035-18.781,113.166-32.715
	c16.928-8.694,36.433-6.897,51.972,4.834l14.83,11.195c3.424,2.585,7.93-0.299,7.93-5.075v-5.473
	C443.897,170.717,443.007,168.805,441.536,167.694z"/>
<g>
	<path style="fill:#D4D2D3;" d="M255.999,7.5c-7.831,0-15.548,0.491-23.131,1.423l8.254,109.592
		c0.606,8.048,7.313,14.268,15.383,14.268l0,0c8.07,0,14.777-6.22,15.383-14.268l8.244-109.469
		C272.228,8.031,264.175,7.5,255.999,7.5z"/>
	<path style="fill:#D4D2D3;" d="M188.283,120.165c3.921,7.054,12.616,9.894,19.945,6.513l0,0c7.328-3.38,10.813-11.838,7.993-19.399
		l-31.93-85.609c-13.805,5.697-26.793,12.983-38.73,21.637L188.283,120.165z"/>
	<path style="fill:#D4D2D3;" d="M328.584,22.031l-31.795,85.248c-2.82,7.562,0.664,16.019,7.993,19.399l0,0
		c7.328,3.38,16.024,0.541,19.945-6.513l42.429-76.33C355.272,35.136,342.34,27.789,328.584,22.031z"/>
</g>
<g>
	<path style="fill:#DC5A64;" d="M325.366,251.576h-11.355c-4.143,0-7.5-3.358-7.5-7.5s3.357-7.5,7.5-7.5h11.355
		c4.143,0,7.5,3.358,7.5,7.5S329.509,251.576,325.366,251.576z"/>
	<path style="fill:#DC5A64;" d="M197.987,251.576h-11.355c-4.143,0-7.5-3.358-7.5-7.5s3.357-7.5,7.5-7.5h11.355
		c4.143,0,7.5,3.358,7.5,7.5S202.13,251.576,197.987,251.576z"/>
</g>
<path d="M463.126,205.739c0-10.876-4.244-21.27-11.729-29.044v-20.528c0-4.402-1.997-8.537-5.342-11.062l-1.112-0.84
	c-0.03-0.544-0.115-1.093-0.27-1.639c-6.42-22.629-16.796-43.748-30.839-62.771c-2.46-3.332-7.156-4.04-10.488-1.579
	c-3.333,2.46-4.04,7.156-1.58,10.488c9.119,12.352,16.555,25.663,22.231,39.737c-9.835-6.931-21.09-10.589-32.677-10.589
	c-8.871,0-17.478,2.11-25.582,6.272c-28.323,14.546-70.354,31.887-109.739,31.887c-39.388,0-81.417-17.34-109.739-31.887
	c-8.104-4.162-16.712-6.272-25.582-6.272c-11.588,0-22.841,3.657-32.676,10.588c11.878-29.417,31.165-54.699,55.262-73.888
	l38.464,69.196c4.151,7.468,12.014,11.768,20.121,11.768c3.206,0,6.451-0.673,9.521-2.088c10.827-4.995,16.045-17.659,11.878-28.831
	l-29.309-78.583c10.326-3.799,21.05-6.678,32.057-8.546l7.647,101.548c0.896,11.891,10.938,21.205,22.862,21.205
	c11.924,0,21.966-9.314,22.861-21.205l7.639-101.439c10.965,1.885,21.665,4.774,32,8.612l-29.244,78.407
	c-4.167,11.173,1.051,23.837,11.879,28.831c3.069,1.416,6.313,2.089,9.521,2.088c8.105,0,15.969-4.301,20.12-11.768l38.21-68.739
	c5.413,4.38,10.619,9.087,15.579,14.132c2.906,2.954,7.655,2.993,10.606,0.09c2.954-2.904,2.994-7.652,0.09-10.606
	C358.561,20.841,308.924,0,255.999,0c-41.598,0-81.115,12.818-114.66,37.111c-0.072,0.049-0.141,0.1-0.21,0.151
	c-1.453,1.055-2.898,2.123-4.328,3.221c-33.388,25.637-58.062,61.913-69.476,102.144c-0.155,0.546-0.24,1.094-0.27,1.638
	l-1.112,0.84c-3.345,2.524-5.342,6.66-5.342,11.061v20.527c-7.486,7.775-11.729,18.169-11.729,29.044
	c0,17.682,10.929,32.95,26.703,39.048v137.388c0,15.218,12.381,27.599,27.599,27.599h12.964c-0.567,0.836-1.148,1.662-1.701,2.509
	c-9.449,14.477-16.521,30.204-21.118,46.657c-0.132,0.365-0.24,0.742-0.313,1.131c-3.908,14.375-5.936,29.292-5.936,44.429
	c0,4.142,3.357,7.5,7.5,7.5h322.861c4.143,0,7.5-3.358,7.5-7.5c0-15.045-2.04-29.792-5.868-43.929
	c-0.092-0.762-0.299-1.488-0.602-2.163c-4.955-17.381-12.651-33.793-22.702-48.634h13.067c15.218,0,27.599-12.381,27.599-27.599
	V244.78C452.186,238.668,463.126,223.376,463.126,205.739z M209.192,109.9c1.44,3.863-0.363,8.241-4.106,9.968
	c-3.742,1.728-8.245,0.256-10.248-3.347l-39.373-70.832c7.819-5.235,16.049-9.868,24.613-13.85L209.192,109.9z M318.17,116.521
	c-2.002,3.603-6.504,5.075-10.247,3.347c-3.744-1.727-5.548-6.105-4.107-9.968l29.031-77.835
	c8.489,3.994,16.681,8.654,24.503,13.973L318.17,116.521z M272.108,15.717l-7.699,102.234c-0.311,4.111-3.782,7.332-7.905,7.332
	c-4.122,0-7.594-3.22-7.904-7.331l-7.705-102.314c4.992-0.422,10.03-0.638,15.104-0.638C261.411,15,266.782,15.25,272.108,15.717z
	 M255.999,362.017c-91.493,0-165.929-74.436-165.929-165.929c0-4.821,0.221-9.666,0.633-14.449l4.675-3.53
	c7.595-5.733,16.343-8.764,25.299-8.764c6.464,0,12.766,1.553,18.729,4.615c29.795,15.303,74.208,33.544,116.593,33.544
	c42.383,0,86.797-18.241,116.593-33.544c5.963-3.063,12.264-4.615,18.729-4.615c8.956,0,17.704,3.03,25.299,8.764l4.677,3.531
	c0.412,4.787,0.631,9.631,0.631,14.448C421.928,287.581,347.492,362.017,255.999,362.017z M120.678,132.914
	c6.464,0,12.766,1.553,18.729,4.615c29.795,15.303,74.208,33.544,116.593,33.544c42.383,0,86.797-18.241,116.593-33.544
	c5.963-3.063,12.264-4.615,18.729-4.615c8.956,0,17.704,3.03,25.299,8.764l19.777,14.931v17.637l-3.199-2.415
	c-0.042-0.034-0.087-0.065-0.13-0.098l-7.412-5.595c-10.219-7.714-22.093-11.792-34.336-11.792c-8.871,0-17.478,2.11-25.582,6.272
	c-28.323,14.546-70.354,31.887-109.739,31.887c-39.388,0-81.417-17.34-109.739-31.887c-8.104-4.162-16.712-6.272-25.582-6.272
	c-12.244,0-24.118,4.078-34.336,11.792l-10.74,8.108v-17.637l19.777-14.931C102.974,135.945,111.722,132.914,120.678,132.914z
	 M63.872,205.739c0-5.384,1.621-10.587,4.567-14.977c1.487,0.658,3.114,1.026,4.821,1.026c0.629,0,1.253-0.052,1.867-0.151
	c-0.036,1.484-0.056,2.968-0.056,4.449c0,11.421,1.076,22.594,3.109,33.433C69.602,224.997,63.872,216,63.872,205.739z
	 M103.174,394.774c-6.947,0-12.599-5.652-12.599-12.599V269.331c16.817,37.835,46.237,68.875,82.907,87.747
	c-17.428,9.765-32.95,22.522-45.912,37.696H103.174z M191.001,364.934c17.968,6.94,37.311,11.088,57.498,11.916v53.26h-11.974
	c-4.143,0-7.5,3.358-7.5,7.5s3.357,7.5,7.5,7.5h38.947c4.143,0,7.5-3.358,7.5-7.5s-3.357-7.5-7.5-7.5h-11.973v-53.26
	c20.184-0.827,39.524-4.974,57.49-11.913c38.234,17.836,66.86,50.39,80.349,89.042h-35.274v-9.275c0-4.142-3.357-7.5-7.5-7.5
	s-7.5,3.358-7.5,7.5V497H160.926v-52.296c0-4.142-3.357-7.5-7.5-7.5s-7.5,3.358-7.5,7.5v9.275h-35.254
	C124.169,415.338,152.789,382.761,191.001,364.934z M106.274,468.979h39.652V497h-43.673
	C102.721,487.469,104.097,478.098,106.274,468.979z M366.064,497v-28.021h39.667c2.174,9.118,3.547,18.488,4.014,28.021H366.064z
	 M408.824,394.774h-24.475c-12.786-14.992-28.24-27.82-45.84-37.693c36.673-18.872,66.095-49.913,82.913-87.75v112.844
	C421.423,389.122,415.771,394.774,408.824,394.774z M433.82,229.515c2.033-10.838,3.108-22.009,3.108-33.428
	c0-1.481-0.023-2.966-0.059-4.45c0.615,0.098,1.239,0.151,1.869,0.151c0.001,0,0,0,0.001,0c1.663,0,3.299-0.364,4.817-1.031
	c2.948,4.39,4.57,9.595,4.57,14.982C448.126,215.974,442.392,224.983,433.82,229.515z"/>
<path d="M276.496,235.684c-3.588-2.065-8.175-0.828-10.24,2.763c-2.107,3.665-6.037,5.941-10.257,5.941s-8.149-2.277-10.257-5.942
	c-2.064-3.59-6.65-4.829-10.24-2.764c-3.591,2.064-4.828,6.649-2.764,10.24c4.775,8.306,13.688,13.465,23.261,13.465
	c9.573,0,18.485-5.159,23.261-13.464C281.324,242.333,280.087,237.748,276.496,235.684z"/>
<path d="M319.688,203.755c-4.143,0-7.5,3.358-7.5,7.5v11.355c0,4.142,3.357,7.5,7.5,7.5s7.5-3.358,7.5-7.5v-11.355
	C327.188,207.113,323.831,203.755,319.688,203.755z"/>
<path d="M192.31,203.755c-4.143,0-7.5,3.358-7.5,7.5v11.355c0,4.142,3.357,7.5,7.5,7.5s7.5-3.358,7.5-7.5v-11.355
	C199.81,207.113,196.452,203.755,192.31,203.755z"/>
<g>
</g>
<g>
</g>
<g>
</g>
<g>
</g>
<g>
</g>
<g>
</g>
<g>
</g>
<g>
</g>
<g>
</g>
<g>
</g>
<g>
</g>
<g>
</g>
<g>
</g>
<g>
</g>
<g>
</g>
</svg>
