<?xml version="1.0" encoding="iso-8859-1"?>
<!-- Generator: Adobe Illustrator 21.0.0, SVG Export Plug-In . SVG Version: 6.00 Build 0)  -->
<svg version="1.1" id="Capa_1" xmlns="http://www.w3.org/2000/svg" xmlns:xlink="http://www.w3.org/1999/xlink" x="0px" y="0px"
	 viewBox="0 0 512 512" style="enable-background:new 0 0 512 512;" xml:space="preserve">
<path style="fill:#FFCE1C;" d="M484.748,319.925v-38.954c0-21.992-13.157-41.849-33.408-50.424L241,141.492
	c-5.208-2.205-11.188-1.538-15.782,1.76l-65.568,47.074c-24.28,17.433-58.37,9.339-72.224-17.147l-1.93-3.689
	c-3.933-7.519-11.717-12.232-20.203-12.232l0,0c-11.768,0-21.602,8.956-22.701,20.672l-13.31,141.995H484.748z"/>
<path style="fill:#EFEDEE;" d="M216.628,319.925h268.12v-38.954c0-6.484-1.152-12.779-3.284-18.657H334.827
	c-25.243,0-49.841,7.987-70.269,22.816L216.628,319.925z"/>
<path style="fill:#ECB000;" d="M81.061,163.6c-4.179-4.002-9.795-6.342-15.765-6.342l0,0c-11.768,0-21.602,8.956-22.701,20.672
	L29.284,319.925H60.8L74.112,177.93C74.643,172.273,77.223,167.273,81.061,163.6z"/>
<path style="fill:#EFEDEE;" d="M39.649,238.591h-2.74l-7.625,81.333h84.891l0,0C118.001,276.201,83.539,238.591,39.649,238.591z"/>
<path style="fill:#D4D2D3;" d="M39.649,238.591h-2.74l-7.625,81.333H60.8l7.106-75.797
	C59.205,240.574,49.679,238.591,39.649,238.591z"/>
<path style="fill:#3A484A;" d="M21.032,309.034L7.998,355.306c-2.328,8.266,3.883,16.468,12.47,16.468h58.558
	c5.885,0,11.031-3.967,12.529-9.658l0,0c1.498-5.692,6.644-9.658,12.529-9.658h69.493c5.885,0,11.031,3.967,12.529,9.658l0,0
	c1.498,5.692,6.644,9.658,12.529,9.658h279.864c5.802,0,10.897-3.858,12.47-9.443l13.035-46.272
	c2.328-8.266-3.883-16.468-12.47-16.468H33.503C27.7,299.591,22.606,303.449,21.032,309.034z"/>
<path style="fill:#313D40;" d="M16.055,326.703l-8.058,28.604c-2.328,8.266,3.883,16.468,12.47,16.468h58.558
	c5.885,0,11.031-3.967,12.529-9.658c1.498-5.692,6.644-9.659,12.529-9.659h69.493c5.885,0,11.031,3.967,12.529,9.659
	c1.498,5.692,6.644,9.658,12.529,9.658h279.864c5.802,0,10.897-3.858,12.47-9.443l10.037-35.629H16.055z"/>
<path style="fill:#3A484A;" d="M282.596,149.719l-111.385,86.889c-1.005,0.784-0.451,2.396,0.824,2.396h97.803
	c0.3,0,0.592-0.101,0.828-0.287l76.55-60.229c0.801-0.63,0.633-1.889-0.306-2.286l-62.969-26.66
	C283.494,149.352,282.979,149.42,282.596,149.719z"/>
<path style="fill:#313D40;" d="M201.71,236.608l101.276-79.003l-19.045-8.063c-0.448-0.19-0.963-0.122-1.346,0.177l-111.385,86.889
	c-1.005,0.784-0.451,2.396,0.824,2.396h30.5C201.259,239.004,200.705,237.392,201.71,236.608z"/>
<path d="M507.839,300.198c-3.756-4.961-9.407-7.876-15.59-8.087V280.97c0-25.057-14.91-47.56-37.983-57.33l-99.962-42.323
	c0.757-1.547,1.08-3.301,0.846-5.054c-0.413-3.084-2.449-5.754-5.315-6.969l-62.971-26.66c-2.902-1.227-6.396-0.767-8.882,1.171
	l-4.32,3.37l-29.737-12.591c-7.564-3.201-16.407-2.215-23.079,2.575l-65.568,47.074c-9.807,7.041-22.169,9.479-33.916,6.691
	c-11.747-2.789-21.693-10.524-27.289-21.223l-1.93-3.689c-5.245-10.027-15.533-16.256-26.848-16.256
	c-15.73,0-28.699,11.811-30.167,27.471l-5.681,60.592c0,0.002,0,0.004-0.001,0.006l-5.302,56.555
	c-4.924,2.548-8.763,7.045-10.333,12.617L0.78,353.272c-1.752,6.22-0.52,12.743,3.381,17.895c3.901,5.152,9.846,8.107,16.308,8.107
	h58.558c9.285,0,17.419-6.271,19.782-15.25c0.63-2.395,2.8-4.067,5.276-4.067h69.492c2.476,0,4.646,1.673,5.276,4.067
	c2.362,8.979,10.497,15.25,19.782,15.25h279.864c9.12,0,17.216-6.131,19.689-14.909l13.035-46.272
	C512.973,311.873,511.74,305.351,507.839,300.198z M267.736,292.091l1.228-0.892c19.273-13.991,42.048-21.387,65.864-21.387h141.087
	c0.871,3.6,1.335,7.338,1.335,11.157v11.121L267.736,292.091L267.736,292.091z M284.353,157.86l50.031,21.183l-66.679,52.462
	h-77.757L279.43,161.7c0.026-0.021,0.053-0.04,0.079-0.061L284.353,157.86z M65.296,164.758c5.714,0,10.909,3.146,13.558,8.209
	l1.93,3.688c7.611,14.551,21.139,25.07,37.115,28.863s32.79,0.476,46.128-9.101l65.568-47.074c2.453-1.761,5.704-2.124,8.483-0.947
	l22.051,9.336l-93.529,72.961c-2.975,2.32-4.15,6.276-2.923,9.844c1.227,3.568,4.586,5.965,8.359,5.965h97.803
	c1.974,0,3.915-0.672,5.466-1.892l66.481-52.306l106.633,45.147c8.74,3.7,15.935,9.808,20.953,17.361H334.827
	c-27.001,0-52.824,8.385-74.675,24.247l-17.95,13.03h-123.03c-9.056-33.957-38.855-58.476-74.045-60.799l4.937-52.663
	C50.805,170.722,57.353,164.758,65.296,164.758z M43.726,246.228c27.598,1.657,51.209,19.996,59.804,45.863H39.426L43.726,246.228z
	 M478.497,364.274H198.633c-2.476,0-4.646-1.672-5.276-4.067c-2.363-8.979-10.498-15.25-19.782-15.25h-69.492
	c-9.284,0-17.419,6.271-19.783,15.25c-0.63,2.394-2.799,4.066-5.275,4.066H20.468c-1.724,0-3.309-0.788-4.35-2.162
	c-1.04-1.374-1.369-3.114-0.901-4.772l6.518-23.138h232.519c4.142,0,7.5-3.358,7.5-7.5s-3.358-7.5-7.5-7.5H25.96l2.292-8.135
	c0.659-2.341,2.819-3.977,5.251-3.977h77.99c0.562,0.135,1.144,0.212,1.738,0.212c0.45,0,0.907-0.041,1.365-0.125
	c0.125-0.023,0.245-0.058,0.367-0.087h129.664c0.006,0,0.011,0.001,0.017,0.001c0.004,0,0.008-0.001,0.013-0.001h240.072
	c0.007,0,0.013,0.001,0.019,0.001s0.013-0.001,0.019-0.001h6.763c1.724,0,3.309,0.788,4.349,2.162
	c1.041,1.375,1.37,3.114,0.902,4.773l-1.458,5.177H282.254c-4.142,0-7.5,3.358-7.5,7.5s3.358,7.5,7.5,7.5h208.846l-7.351,26.095
	C483.088,362.639,480.929,364.274,478.497,364.274z"/>
<g>
</g>
<g>
</g>
<g>
</g>
<g>
</g>
<g>
</g>
<g>
</g>
<g>
</g>
<g>
</g>
<g>
</g>
<g>
</g>
<g>
</g>
<g>
</g>
<g>
</g>
<g>
</g>
<g>
</g>
</svg>
