<?xml version="1.0" encoding="iso-8859-1"?>
<!-- Generator: Adobe Illustrator 19.0.0, SVG Export Plug-In . SVG Version: 6.00 Build 0)  -->
<svg xmlns="http://www.w3.org/2000/svg" xmlns:xlink="http://www.w3.org/1999/xlink" version="1.1" id="Layer_1" x="0px" y="0px" viewBox="0 0 512 512" style="enable-background:new 0 0 512 512;" xml:space="preserve" width="512" height="512">
<g>
	<path style="fill:#FFD400;" d="M392.566,0c-21.56,0-39.1,17.54-39.1,39.101v169.767H158.533V39.101   C158.533,17.54,140.994,0,119.435,0C97.874,0,80.334,17.54,80.334,39.101v208.866c0,21.56,17.54,39.101,39.101,39.101H216.9v51.435   c0,8.284,6.715,15,15,15c8.283,0,14.999-6.715,15-14.999l18.199,0.001v0.001c0,8.284,6.716,15,15,15s15-6.716,15-15v-51.438h97.467   c21.56,0,39.1-17.54,39.1-39.101V39.101C431.666,17.54,414.126,0,392.566,0z"/>
	<path style="fill:#FF9F04;" d="M392.566,0c-21.56,0-39.1,17.54-39.1,39.101v169.767H256v129.637h9.1v0.001c0,8.284,6.716,15,15,15   s15-6.716,15-15v-51.438h97.467c21.56,0,39.1-17.54,39.1-39.101V39.101C431.666,17.54,414.126,0,392.566,0z"/>
	<path style="fill:#008ADF;" d="M272.066,321.334h-32.133c-17.131,0-31.066,13.936-31.066,31.066v128.533   c0,17.13,13.936,31.066,31.066,31.066h32.133c17.13,0,31.066-13.936,31.066-31.066V352.4   C303.133,335.271,289.196,321.334,272.066,321.334z"/>
	<path style="fill:#0065A3;" d="M272.066,321.334H256V512h16.066c17.13,0,31.066-13.936,31.066-31.066V352.4   C303.133,335.271,289.196,321.334,272.066,321.334z"/>
</g>















</svg>
