<svg height="496pt" viewBox="-56 0 496 496" width="496pt" xmlns="http://www.w3.org/2000/svg"><path d="m40 488h304c17.671875 0 32-14.328125 32-32v-416c0-17.671875-14.328125-32-32-32h-304c-17.671875 0-32 14.328125-32 32v416c0 17.671875 14.328125 32 32 32zm0 0" fill="#5cd6b3"/><path d="m88 8h208v80h-208zm0 0" fill="#fcd770"/><path d="m88 408h208v80h-208zm0 0" fill="#fcd770"/><path d="m136 456h112v32h-112zm0 0" fill="#37bc9b"/><path d="m136 8h112v32h-112zm0 0" fill="#37bc9b"/><g fill="#ff826e"><path d="m72 168c0 8.835938-7.164062 16-16 16s-16-7.164062-16-16 7.164062-16 16-16 16 7.164062 16 16zm0 0"/><path d="m208 136c0 8.835938-7.164062 16-16 16s-16-7.164062-16-16 7.164062-16 16-16 16 7.164062 16 16zm0 0"/><path d="m336 200c0 8.835938-7.164062 16-16 16s-16-7.164062-16-16 7.164062-16 16-16 16 7.164062 16 16zm0 0"/><path d="m72 360c0 8.835938-7.164062 16-16 16s-16-7.164062-16-16 7.164062-16 16-16 16 7.164062 16 16zm0 0"/><path d="m336 360c0 8.835938-7.164062 16-16 16s-16-7.164062-16-16 7.164062-16 16-16 16 7.164062 16 16zm0 0"/></g><path d="m344 0h-304c-22.054688 0-40 17.945312-40 40v416c0 22.054688 17.945312 40 40 40h304c22.054688 0 40-17.945312 40-40v-416c0-22.054688-17.945312-40-40-40zm-248 16h32v32h128v-32h32v64h-192zm48 0h96v16h-96zm-104 0h40v80h224v-80h40c13.230469 0 24 10.769531 24 24v200h-120.640625c-3.902344-27.089844-27.207031-48-55.359375-48s-51.457031 20.910156-55.359375 48h-26.832031c3.121094-10.6875 7.421875-21.03125 12.984375-30.761719l12.160156-21.269531-13.890625-7.9375-12.160156 21.273438c-6.957032 12.175781-12.222656 25.207031-15.734375 38.695312h-77.167969v-200c0-13.230469 10.769531-24 24-24zm112.808594 224c3.71875-18.230469 19.871094-32 39.191406-32s35.472656 13.769531 39.191406 32zm78.382812 16c-3.71875 18.230469-19.871094 32-39.191406 32s-35.472656-13.769531-39.191406-32zm56.808594 224h-32v-32h-128v32h-32v-64h192zm-48 0h-96v-16h96zm104 0h-40v-80h-224v80h-40c-13.230469 0-24-10.769531-24-24v-200h73.910156c-1.222656 7.929688-1.910156 15.945312-1.910156 24h16c0-8.0625.761719-16.089844 2.113281-24h30.527344c3.902344 27.089844 27.207031 48 55.359375 48s51.457031-20.910156 55.359375-48h120.640625v200c0 13.230469-10.769531 24-24 24zm0 0"/><path d="m56 192c13.230469 0 24-10.769531 24-24s-10.769531-24-24-24-24 10.769531-24 24 10.769531 24 24 24zm0-32c4.414062 0 8 3.585938 8 8s-3.585938 8-8 8-8-3.585938-8-8 3.585938-8 8-8zm0 0"/><path d="m192 160c13.230469 0 24-10.769531 24-24s-10.769531-24-24-24-24 10.769531-24 24 10.769531 24 24 24zm0-32c4.414062 0 8 3.585938 8 8s-3.585938 8-8 8-8-3.585938-8-8 3.585938-8 8-8zm0 0"/><path d="m320 224c13.230469 0 24-10.769531 24-24s-10.769531-24-24-24-24 10.769531-24 24 10.769531 24 24 24zm0-32c4.414062 0 8 3.585938 8 8s-3.585938 8-8 8-8-3.585938-8-8 3.585938-8 8-8zm0 0"/><path d="m56 336c-13.230469 0-24 10.769531-24 24s10.769531 24 24 24 24-10.769531 24-24-10.769531-24-24-24zm0 32c-4.414062 0-8-3.585938-8-8s3.585938-8 8-8 8 3.585938 8 8-3.585938 8-8 8zm0 0"/><path d="m320 336c-13.230469 0-24 10.769531-24 24s10.769531 24 24 24 24-10.769531 24-24-10.769531-24-24-24zm0 32c-4.414062 0-8-3.585938-8-8s3.585938-8 8-8 8 3.585938 8 8-3.585938 8-8 8zm0 0"/><path d="m108.28125 288.40625-11.3125 11.3125-11.3125-11.3125-11.3125 11.3125 11.3125 11.3125-11.3125 11.3125 11.3125 11.3125 11.3125-11.3125 11.3125 11.3125 11.3125-11.3125-11.3125-11.3125 11.3125-11.3125zm0 0"/><path d="m316.28125 311.59375 11.3125-11.3125-11.3125-11.3125 11.3125-11.3125-11.3125-11.3125-11.3125 11.3125-11.3125-11.3125-11.3125 11.3125 11.3125 11.3125-11.3125 11.3125 11.3125 11.3125 11.3125-11.3125zm0 0"/></svg>