<svg height="512pt" viewBox="0 -9 512 512" width="512pt" xmlns="http://www.w3.org/2000/svg"><path d="m447.546875 365.003906v70.996094c8.28125 0 15-6.714844 15-15v-40.996094c0-8.285156-6.71875-15-15-15zm0 0" fill="#c8d2dc"/><path d="m497.433594 89.007812c-16.828125-.484374-62.164063-.40625-119.554688 10.777344-56.457031 11-106.769531 29.101563-149.535156 53.789063-1.824219 1.054687-3.40625 2.480469-4.644531 4.183593l-56.175781 77.4375c-3.308594 4.5625-3.78125 10.597657-1.21875 15.621094 2.5625 5.023438 7.722656 8.1875 13.359374 8.1875h317.335938c8.285156 0 15-6.71875 15-15v-140.003906c0-8.117188-6.453125-14.761719-14.566406-14.992188zm0 0" fill="#00da26"/><path d="m497.433594 89.007812c-16.828125-.484374-62.164063-.40625-119.554688 10.777344-44.71875 8.714844-85.566406 21.898438-121.878906 39.269532v119.945312h241c8.285156 0 15-6.714844 15-15v-140c0-8.117188-6.453125-14.761719-14.566406-14.992188zm0 0" fill="#00c200"/><path d="m380.160156 275.976562-25.421875-57.996093c-.75-1.710938-1.8125-3.265625-3.132812-4.585938-44.976563-44.980469-123.34375-66.679687-166.054688-75.613281-65.949219-13.792969-132.789062-15.425781-174.433593-4.269531-6.558594 1.757812-11.117188 7.699219-11.117188 14.488281v252.503906c0 4.828125 2.328125 9.363282 6.25 12.183594 2.585938 1.851562 5.648438 2.816406 8.75 2.816406 1.609375 0 3.230469-.261718 4.792969-.789062l351.421875-118.5c3.984375-1.347656 7.226562-4.304688 8.925781-8.152344s1.707031-8.230469.019531-12.085938zm0 0" fill="#00ed21"/><path d="m380.160156 275.976562-25.421875-57.996093c-.75-1.710938-1.8125-3.265625-3.132812-4.585938-25.375-25.375-61.375-43.339843-95.605469-55.785156v177.457031l115.214844-38.851562c3.984375-1.347656 7.226562-4.300782 8.925781-8.148438 1.699219-3.851562 1.707031-8.234375.019531-12.089844zm0 0" fill="#008900"/><path d="m497.382812 192.003906c-72.859374-1.855468-135.585937 8.027344-191.804687 30.222656-56.503906 22.308594-108.789063 57.96875-159.839844 109.019532-1.25 1.253906-2.273437 2.71875-3.015625 4.328125l-39.476562 85.648437c-1.988282 4.316406-1.8125 9.320313.472656 13.488282 2.285156 4.167968 6.410156 7.007812 11.117188 7.648437l380.128906 52c.679687.09375 1.359375.140625 2.035156.140625 3.601562 0 7.109375-1.300781 9.859375-3.695312 3.265625-2.851563 5.140625-6.972657 5.140625-11.304688v-272.5c0-8.136719-6.484375-14.789062-14.617188-14.996094zm0 0" fill="#00a600"/><path d="m497.382812 192.003906c-72.859374-1.855468-135.585937 8.027344-191.804687 30.222656-16.875 6.664063-33.375 14.527344-49.578125 23.628907v215.816406l238.96875 32.691406c.675781.089844 1.355469.136719 2.03125.136719 3.605469 0 7.113281-1.296875 9.859375-3.695312 3.265625-2.851563 5.140625-6.96875 5.140625-11.304688v-272.5c0-8.136719-6.484375-14.789062-14.617188-14.996094zm0 0" fill="#006c00"/><path d="m507.984375 451.785156c-33.570313-36.101562-110.082031-72.839844-204.667969-98.265625-102.9375-27.667969-206.042968-36.683593-290.308594-25.386719-7.449218 1-13.007812 7.351563-13.007812 14.867188v136.5c0 8.285156 6.714844 15 15 15h482c8.285156 0 15-6.714844 15-15v-17.5c0-3.789062-1.433594-7.4375-4.015625-10.214844zm0 0" fill="#00da26"/><path d="m507.984375 451.785156c-33.570313-36.101562-110.082031-72.839844-204.667969-98.265625-15.792968-4.242187-31.585937-8.042969-47.316406-11.40625v152.386719h241c8.285156 0 15-6.714844 15-15v-17.5c0-3.789062-1.433594-7.4375-4.015625-10.214844zm0 0" fill="#00c200"/><path d="m191 165.75c-8.285156 0-15-6.714844-15-15v-32.863281c0-8.28125 6.714844-15 15-15s15 6.71875 15 15v32.863281c0 8.285156-6.714844 15-15 15zm0 0" fill="#e1ebf0"/><path d="m229.574219 56.054688c-2.125-3.085938-2.691407-6.089844-1.839844-9.738282.652344-2.804687.984375-5.695312.984375-8.59375 0-20.800781-16.917969-37.722656-37.71875-37.722656s-37.71875 16.921875-37.71875 37.722656c0 2.898438.332031 5.789063.984375 8.589844.851563 3.652344.285156 6.65625-1.839844 9.742188-5.386719 7.824218-8.234375 16.996093-8.234375 26.519531 0 25.8125 21 46.808593 46.808594 46.808593 25.8125 0 46.808594-20.996093 46.808594-46.808593 0-9.523438-2.847656-18.691407-8.234375-26.519531zm0 0" fill="#00da26"/><path d="m447.546875 436c-8.285156 0-15-6.714844-15-15v-40.996094c0-8.285156 6.714844-15 15-15 8.28125 0 15 6.714844 15 15v40.996094c0 8.285156-6.71875 15-15 15zm0 0" fill="#c8d2dc"/><path d="m488.75 312.304688c0-.003907 0-.003907 0 0-2.5625-3.730469-3.277344-7.515626-2.253906-11.914063.695312-2.976563 1.050781-6.042969 1.050781-9.117187 0-22.054688-17.945313-40-40-40-22.058594 0-40.003906 17.945312-40.003906 40 0 3.074218.355469 6.140624 1.046875 9.113281 1.027344 4.402343.3125 8.191406-2.25 11.917969-5.753906 8.355468-8.792969 18.148437-8.792969 28.324218 0 27.570313 22.429687 50 50 50 27.566406 0 50-22.429687 50-50 0-10.171875-3.042969-19.96875-8.796875-28.324218zm0 0" fill="#00c200"/><path d="m158.65625 254.339844-88.167969-50.800782c-4.640625-2.671874-10.355469-2.667968-14.996093.011719-4.636719 2.679688-7.492188 7.628907-7.492188 12.988281v101.601563c0 5.355469 2.855469 10.304687 7.492188 12.984375 2.324218 1.34375 4.914062 2.015625 7.507812 2.015625 2.585938 0 5.171875-.667969 7.488281-2.003906l88.167969-50.800781c4.644531-2.679688 7.511719-7.636719 7.511719-12.996094 0-5.363282-2.863281-10.320313-7.511719-13zm0 0" fill="#f00"/><path d="m63 436.34375c-8.285156 0-15-6.714844-15-15v-204.804688c0-8.285156 6.714844-15 15-15s15 6.714844 15 15v204.804688c0 8.285156-6.714844 15-15 15zm0 0" fill="#e1ebf0"/></svg>