<?xml version="1.0" encoding="iso-8859-1"?>
<!-- Generator: Adobe Illustrator 21.0.0, SVG Export Plug-In . SVG Version: 6.00 Build 0)  -->
<svg version="1.1" id="Capa_1" xmlns="http://www.w3.org/2000/svg" xmlns:xlink="http://www.w3.org/1999/xlink" x="0px" y="0px"
	 viewBox="0 0 511.999 511.999" style="enable-background:new 0 0 511.999 511.999;" xml:space="preserve">
<g>
	<path style="fill:#3A484A;" d="M62.399,364.585H31.841c-3.338,0-6.044-2.706-6.044-6.044v-33.581c0-3.338,2.706-6.044,6.044-6.044
		h30.559c3.338,0,6.044,2.706,6.044,6.044v33.581C68.444,361.878,65.737,364.585,62.399,364.585z"/>
	<path style="fill:#3A484A;" d="M126.539,364.585H95.98c-3.338,0-6.044-2.706-6.044-6.044v-33.581c0-3.338,2.706-6.044,6.044-6.044
		h30.559c3.338,0,6.044,2.706,6.044,6.044v33.581C132.583,361.878,129.877,364.585,126.539,364.585z"/>
	<path style="fill:#3A484A;" d="M333.732,364.585h-30.559c-3.338,0-6.044-2.706-6.044-6.044v-33.581
		c0-3.338,2.706-6.044,6.044-6.044h30.559c3.338,0,6.044,2.706,6.044,6.044v33.581C339.776,361.878,337.07,364.585,333.732,364.585z
		"/>
	<path style="fill:#3A484A;" d="M397.872,364.585h-30.559c-3.338,0-6.044-2.706-6.044-6.044v-33.581
		c0-3.338,2.706-6.044,6.044-6.044h30.559c3.338,0,6.044,2.706,6.044,6.044v33.581C403.916,361.878,401.21,364.585,397.872,364.585z
		"/>
	<path style="fill:#3A484A;" d="M462.01,364.585h-30.559c-3.338,0-6.044-2.706-6.044-6.044v-33.581c0-3.338,2.706-6.044,6.044-6.044
		h30.559c3.338,0,6.044,2.706,6.044,6.044v33.581C468.055,361.878,465.348,364.585,462.01,364.585z"/>
</g>
<path style="fill:#2FC8B4;" d="M221.697,150.737L126,219.442c-13.947,10.013-33.53,5.365-41.488-9.849l-10.95-20.937
	c-7.361-14.073-21.93-22.894-37.812-22.894h-5.573c-3.734,0-6.855,2.842-7.204,6.56L7.657,314.839
	c-0.545,5.068,0.341,10.188,2.557,14.779l3.832,7.939c1.435,2.974,4.446,4.863,7.748,4.863h115.209
	c11.978,0,23.706-3.429,33.797-9.882l0,0c7.397-4.73,15.993-7.244,24.773-7.244h50.654c8.78,0,17.376,2.514,24.773,7.244l0,0
	c10.091,6.453,21.819,9.882,33.797,9.882h96.785c13.143,0,26.233-1.678,38.951-4.993l30.665-7.993
	c16.173-4.216,28.748-16.937,32.776-33.158l0,0c2.067-8.324-1.932-16.965-9.615-20.777L239.882,149.259
	C234.014,146.348,227.018,146.916,221.697,150.737z"/>
<path style="fill:#00AE95;" d="M44.047,337.558l-3.832-7.94c-2.216-4.591-3.102-9.711-2.557-14.779l15.315-142.517
	c0.086-0.921,0.344-1.788,0.737-2.571c-5.534-2.571-11.638-3.989-17.961-3.989h-5.573c-3.734,0-6.855,2.842-7.203,6.56
	L7.657,314.839c-0.545,5.068,0.341,10.188,2.557,14.779l3.832,7.94c1.435,2.974,4.446,4.863,7.748,4.863h30.001
	C48.493,342.421,45.483,340.532,44.047,337.558z"/>
<path style="fill:#FF8C4F;" d="M271.001,332.539c10.091,6.453,21.819,9.882,33.797,9.882h96.785c13.143,0,26.233-1.678,38.951-4.993
	l30.665-7.994c9.158-2.387,17.157-7.505,23.11-14.438c-91.38,25.99-480.168-60.469-483.23-31.988l-3.421,31.83
	c-0.545,5.068,0.341,10.188,2.557,14.779l3.832,7.94c1.435,2.974,4.446,4.863,7.748,4.863h115.209
	c11.978,0,23.706-3.429,33.797-9.882l0,0c7.397-4.73,15.993-7.244,24.773-7.244h50.654
	C255.008,325.295,263.604,327.809,271.001,332.539z"/>
<path style="fill:#EE6B28;" d="M44.047,337.558l-3.832-7.94c-2.216-4.591-3.102-9.711-2.557-14.779l3.421-31.83
	c0.294-2.734,4.153-4.405,10.949-5.222c-24.997-1.522-40.352-0.348-40.95,5.222l-3.421,31.83
	c-0.545,5.068,0.341,10.188,2.557,14.779l3.832,7.94c1.435,2.974,4.446,4.863,7.748,4.863h30.001
	C48.493,342.421,45.483,340.532,44.047,337.558z"/>
<path d="M497.691,268.781L362.51,201.719c2.562-2.988,2.393-7.488-0.473-10.262c-2.977-2.882-7.725-2.804-10.605,0.172l-3.005,3.104
	l-24.369-12.089c2.65-2.987,2.508-7.554-0.389-10.358c-2.977-2.882-7.724-2.803-10.605,0.172l-3.095,3.197l-24.363-12.086
	c2.738-2.984,2.622-7.62-0.305-10.453c-2.977-2.882-7.725-2.804-10.605,0.172l-3.184,3.29l-28.296-14.037
	c-3.462-1.717-7.333-2.625-11.196-2.625c-5.305,0-10.387,1.635-14.696,4.729l-95.696,68.705c-3.551,2.55-7.719,3.897-12.052,3.897
	c-7.767,0.001-14.824-4.265-18.417-11.131l-10.95-20.935c-8.684-16.604-25.72-26.919-44.458-26.919h-5.573
	c-7.629,0-13.923,5.713-14.665,13.299L3.621,282.202c0,0.001,0,0.003-0.001,0.004c0,0.001,0,0.002,0,0.003L0.2,314.036
	c-0.695,6.468,0.432,12.982,3.26,18.842l3.833,7.94c2.152,4.458,6.271,7.641,11.004,8.709v9.012c0,7.469,6.076,13.545,13.544,13.545
	H62.4c7.468,0,13.544-6.076,13.544-13.545v-8.618h6.491v8.618c0,7.469,6.076,13.545,13.544,13.545h30.559
	c7.468,0,13.544-6.076,13.544-13.545v-8.693c12.349-0.539,24.307-4.305,34.758-10.989c6.2-3.966,13.369-6.062,20.732-6.062h50.655
	c7.362,0,14.531,2.096,20.732,6.062c6.992,4.472,14.661,7.637,22.669,9.406v10.275c0,7.469,6.076,13.545,13.544,13.545h30.559
	c7.468,0,13.544-6.076,13.544-13.545v-8.618h6.491v8.618c0,7.469,6.076,13.545,13.544,13.545h30.559
	c7.468,0,13.544-6.076,13.544-13.545v-8.924c2.168-0.132,4.331-0.312,6.491-0.531v9.455c0,7.469,6.076,13.545,13.544,13.545h30.559
	c7.468,0,13.544-6.076,13.544-13.545v-22.56c17.647-5.519,31.21-19.827,35.697-37.894
	C514.145,286.437,508.441,274.114,497.691,268.781z M60.943,357.084H33.297v-7.163h27.647V357.084z M97.436,357.084v-7.163h27.647
	v7.163H97.436z M246.228,317.795h-50.655c-10.231,0-20.196,2.913-28.814,8.425c-8.9,5.691-19.19,8.7-29.756,8.7H21.794
	c-0.421,0-0.811-0.245-0.994-0.623l-3.832-7.939c-1.609-3.333-2.25-7.039-1.854-10.718l3.18-29.587
	c3.622-1.169,15.656-2.796,55.134,0.974c4.14,0.403,7.786-2.63,8.179-6.753c0.394-4.123-2.629-7.785-6.753-8.179
	c-20.63-1.97-35.818-2.726-46.431-2.308c-2.164,0.085-5.22,0.207-8.452,0.664l10.444-97.19h5.334c13.136,0,25.079,7.23,31.167,18.87
	l10.951,20.936c6.188,11.83,18.338,19.18,31.708,19.179c7.491,0,14.684-2.321,20.801-6.712l95.696-68.705
	c1.744-1.252,3.801-1.914,5.948-1.914c1.563,0,3.129,0.367,4.53,1.063l24.012,11.911l-31.699,32.747
	c-2.881,2.977-2.804,7.725,0.172,10.605c1.457,1.41,3.337,2.111,5.215,2.111c1.96,0,3.919-0.764,5.39-2.283l35.026-36.184
	l24.353,12.081l-19.333,19.972c-2.881,2.977-2.804,7.725,0.172,10.605c1.457,1.41,3.337,2.111,5.215,2.111
	c1.96,0,3.919-0.764,5.39-2.283l22.66-23.409l24.354,12.081l-13.261,13.699c-2.881,2.977-2.804,7.725,0.172,10.605
	c1.457,1.41,3.337,2.111,5.215,2.111c1.96,0,3.919-0.764,5.39-2.283l16.588-17.136l139.444,69.176
	c4.566,2.266,6.897,7.303,5.669,12.25c-1.275,5.134-3.573,9.842-6.667,13.906c-49.378,12.332-184.05-6.067-292.586-20.895
	c-34.754-4.748-67.582-9.232-95.813-12.519c-4.121-0.476-7.838,2.469-8.317,6.583s2.468,7.838,6.583,8.316
	c28.083,3.269,60.838,7.743,95.517,12.481c87.434,11.943,183.552,25.075,247.774,25.075c2.102,0,4.159-0.019,6.192-0.047
	l-10.736,2.798c-12.092,3.152-24.561,4.751-37.059,4.751h-96.783c-10.566,0-20.856-3.009-29.756-8.7
	C266.424,320.708,256.46,317.795,246.228,317.795z M332.277,357.084H304.63v-7.166c0.056,0,0.112,0.003,0.168,0.003h27.479V357.084z
	 M368.768,357.084v-7.163h27.647v7.163H368.768z M432.908,357.084v-10.23c3.192-0.629,6.366-1.347,9.517-2.168l18.13-4.726v17.124
	L432.908,357.084L432.908,357.084z"/>
<g>
</g>
<g>
</g>
<g>
</g>
<g>
</g>
<g>
</g>
<g>
</g>
<g>
</g>
<g>
</g>
<g>
</g>
<g>
</g>
<g>
</g>
<g>
</g>
<g>
</g>
<g>
</g>
<g>
</g>
</svg>
