<?xml version="1.0" encoding="iso-8859-1"?>
<!-- Generator: Adobe Illustrator 19.0.0, SVG Export Plug-In . SVG Version: 6.00 Build 0)  -->
<svg xmlns="http://www.w3.org/2000/svg" xmlns:xlink="http://www.w3.org/1999/xlink" version="1.1" id="Layer_1" x="0px" y="0px" viewBox="0 0 512 512" style="enable-background:new 0 0 512 512;" xml:space="preserve" width="512" height="512">
<g>
	<path style="fill:#FF9F00;" d="M424.699,481.954h-3.751l-4.666-18.657c6.524-1.628,11.364-7.51,11.364-14.538   c0-8.284-6.716-15-15-15H39.1c-21.56,0-39.1,17.539-39.1,39.098c0,21.559,17.54,39.098,39.1,39.098h385.6c8.284,0,15-6.716,15-15   S432.983,481.954,424.699,481.954z"/>
	<path style="fill:#FF641A;" d="M424.699,481.954h-3.751l-4.666-18.657c6.524-1.628,11.364-7.51,11.364-14.538   c0-8.284-6.716-15-15-15H219.85v78.195h204.85c8.284,0,15-6.716,15-15S432.983,481.954,424.699,481.954z"/>
	<g>
		<path style="fill:#FFD400;" d="M502.955,154.769c-5.232-6.472-13.259-10.184-22.022-10.184H368.467    c-8.763,0-16.789,3.712-22.021,10.184c-5.232,6.474-7.182,15.1-5.363,23.584l65.583,315.312    c3.419,15.953,12.767,18.335,18.034,18.335c5.268,0,14.615-2.382,18.053-18.424L508.3,178.44    C510.137,169.869,508.188,161.242,502.955,154.769z M493.918,173.257L493.918,173.257l0.016,0.001L493.918,173.257z"/>
		<path style="fill:#FF9F00;" d="M502.955,154.769c-5.232-6.472-13.259-10.184-22.022-10.184H424.7v367.414    c5.268,0,14.614-2.383,18.052-18.424L508.3,178.44C510.137,169.869,508.188,161.242,502.955,154.769z M493.918,173.257    L493.918,173.257l0.016,0.001L493.918,173.257z"/>
		<g>
			<path style="fill:#3D5959;" d="M483.228,238.849H366.172c-8.284,0-15-6.716-15-15c0-8.284,6.716-15,15-15h117.057     c8.284,0,15,6.716,15,15C498.228,232.133,491.513,238.849,483.228,238.849z"/>
		</g>
		<g>
			<path style="fill:#3D5959;" d="M469.457,303.109h-89.516c-8.284,0-15-6.716-15-15c0-8.284,6.716-15,15-15h89.516     c8.284,0,15,6.716,15,15C484.457,296.394,477.741,303.109,469.457,303.109z"/>
		</g>
		<g>
			<path style="fill:#3D5959;" d="M455.685,367.37h-61.971c-8.284,0-15-6.716-15-15c0-8.284,6.716-15,15-15h61.971     c8.284,0,15,6.716,15,15C470.685,360.654,463.97,367.37,455.685,367.37z"/>
		</g>
	</g>
	<path style="fill:#FF9F00;" d="M424.699,0.001c-48.137,0-87.299,39.159-87.299,87.293c0,48.133,39.162,87.291,87.299,87.291   c48.138,0,87.301-39.158,87.301-87.291C512,39.16,472.837,0.001,424.699,0.001z"/>
	<path style="fill:#FF641A;" d="M512,87.294c0-48.134-39.162-87.292-87.3-87.293v48.193c21.56,0.001,39.101,17.54,39.101,39.1   c0,21.558-17.541,39.097-39.101,39.098v48.193C472.838,174.584,512,135.426,512,87.294z"/>
	<g>
		<g>
			<path style="fill:#3D5959;" d="M424.699,126.392c-21.56,0-39.1-17.539-39.1-39.098c0-21.56,17.54-39.1,39.1-39.1     c21.561,0,39.102,17.54,39.102,39.1C463.801,108.853,446.26,126.392,424.699,126.392z M424.699,78.194     c-5.018,0-9.1,4.082-9.1,9.1c0,5.017,4.082,9.098,9.1,9.098c5.019,0,9.102-4.081,9.102-9.098     C433.801,82.276,429.718,78.194,424.699,78.194z"/>
		</g>
	</g>
	<path style="fill:#293939;" d="M498.228,223.849c0-8.284-6.716-15-15-15H424.7v30h58.528   C491.513,238.849,498.228,232.133,498.228,223.849z"/>
	<path style="fill:#293939;" d="M469.457,303.109c8.284,0,15-6.716,15-15c0-8.284-6.716-15-15-15H424.7v30H469.457z"/>
	<path style="fill:#293939;" d="M455.685,367.37c8.284,0,15-6.716,15-15c0-8.284-6.716-15-15-15H424.7v30H455.685z"/>
	<path style="fill:#293939;" d="M463.801,87.294c0-21.56-17.541-39.099-39.101-39.1v30c5.019,0.001,9.101,4.083,9.101,9.1   s-4.082,9.097-9.101,9.098v30C446.26,126.391,463.801,108.852,463.801,87.294z"/>
</g>















</svg>
