<svg
    version="1.1"
    id="Layer_1"
    xmlns="http://www.w3.org/2000/svg"
    xmlns:xlink="http://www.w3.org/1999/xlink"
    x="0px"
    y="0px"
    width="60px"
    height="60px"
    viewBox="0 0 512 512"
    enable-background="new 0 0 512 512"
    xml:space="preserve"
  >
    <g>
      <polygon fill="#233540" points="328.795,399 192.064,399 202.582,389 318.278,389 	"></polygon>
      <polygon fill="#3B5666" points="328.202,401 192.52,401 192.064,399 328.795,399 	"></polygon>
      <rect x="253" y="314" fill="#233540" width="15" height="85"></rect>

      <linearGradient
        id="SVGID_1_"
        gradientUnits="userSpaceOnUse"
        x1="260.5"
        y1="124.1929"
        x2="260.5"
        y2="143.3999"
        gradientTransform="matrix(1 0 0 -1 0 513)"
      >
        <stop offset="0" style="stop-color:#FFFFFF;stop-opacity:0"></stop>
        <stop offset="1" style="stop-color:#000000"></stop>
      </linearGradient>
      <rect x="253" y="363" fill="url(#SVGID_1_)" width="15" height="22"></rect>
      <path
        fill="#4D7085"
        d="M451,366.895c0,4.477-3.629,8.105-8.106,8.105H70.106c-4.477,0-8.106-3.63-8.106-8.105V154.107
		c0-4.477,3.629-8.107,8.106-8.107h372.787c4.478,0,8.106,3.63,8.106,8.107L451,366.895L451,366.895z"
      ></path>
      <path
        fill="#233540"
        d="M445,363.895c0,4.478-3.629,8.105-8.106,8.105H71.106c-4.477,0-8.106-3.629-8.106-8.105V158.106
		c0-4.476,3.629-8.106,8.106-8.106h365.787c4.478,0,8.106,3.63,8.106,8.106L445,363.895L445,363.895z"
      ></path>
      <path
        fill="#233540"
        d="M443,358.895c0,4.477-3.629,8.105-8.106,8.105H77.106c-4.477,0-8.106-3.63-8.106-8.105V163.107
		c0-4.477,3.629-8.107,8.106-8.107h357.787c4.478,0,8.106,3.63,8.106,8.107L443,358.895L443,358.895z"
      ></path>
      <path
        fill="#141E24"
        d="M434,349.895c0,4.478-3.63,8.105-8.107,8.105H85.107C80.63,358,77,354.371,77,349.895V170.106
		c0-4.476,3.63-8.106,8.107-8.106h340.785c4.478,0,8.107,3.63,8.107,8.106L434,349.895L434,349.895z"
      ></path>
      <path
        fill="#3B5666"
        d="M431,345.895c0,4.477-3.629,8.105-8.106,8.105H89.106c-4.477,0-8.106-3.63-8.106-8.105V173.107
		c0-4.477,3.629-8.107,8.106-8.107h333.787c4.478,0,8.106,3.63,8.106,8.107L431,345.895L431,345.895z"
      ></path>
      <polygon fill="#4E7287" points="240.819,354 346.648,165 247.815,165 141.987,354 	"></polygon>
      <polygon fill="#4E7287" points="299.704,354 405.657,165 369.778,165 263.95,354 	"></polygon>
    </g>
  </svg>