<?xml version="1.0" encoding="utf-8"?>
<!-- Generator: Adobe Illustrator 15.1.0, SVG Export Plug-In . SVG Version: 6.00 Build 0)  -->
<!DOCTYPE svg PUBLIC "-//W3C//DTD SVG 1.1//EN" "http://www.w3.org/Graphics/SVG/1.1/DTD/svg11.dtd">
<svg version="1.1" id="Capa_1" xmlns="http://www.w3.org/2000/svg" xmlns:xlink="http://www.w3.org/1999/xlink" x="0px" y="0px"
	viewBox="0 0 600 400" enable-background="new 0 0 600 400" xml:space="preserve">
<rect x="186.667" y="46.667" fill="#87CED9" width="226.667" height="293.333"/>
<polygon fill="#71C4D1" points="186.667,326.667 186.667,340 413.334,340 413.334,100 "/>
<path fill="#DADDDF" d="M413.334,33.333c0-14.727-11.939-26.667-26.667-26.667H213.333c-14.727,0-26.667,11.94-26.667,26.667v13.333
	h226.667L413.334,33.333L413.334,33.333z"/>
<path fill="#DADDDF" d="M186.667,340v26.667c0,14.727,11.94,26.667,26.667,26.667h173.333c14.727,0,26.667-11.94,26.667-26.667V340
	H186.667z"/>
<rect x="293.333" y="360" fill="#C1C7C9" width="13.334" height="13.334"/>
<rect x="293.333" y="360" width="13.334" height="13.334"/>
<g>
	<path fill="none" stroke="#000000" stroke-width="14" stroke-miterlimit="10" d="M186.667,326.667V340v26.667
		c0,14.727,11.94,26.667,26.667,26.667h173.333c14.727,0,26.667-11.94,26.667-26.667V340V100V46.667H186.667V326.667z"/>
	<path fill="none" stroke="#000000" stroke-width="14" stroke-miterlimit="10" d="M413.333,33.333L413.333,33.333
		c0.001-14.727-11.938-26.667-26.666-26.667H213.333c-14.727,0-26.667,11.94-26.667,26.667v13.333h226.667V33.333z"/>
</g>
<path fill="#FFB782" stroke="#000000" stroke-width="13" stroke-miterlimit="10" d="M493.334,399.999V280.293
	c0-16.146-5.86-31.74-16.494-43.893l-63.506-69.734v86.667L390,230c-9.354-9.055-24.279-8.812-33.333,0.54
	c-8.847,9.14-8.847,23.653,0,32.793L413.334,320l-3.946,7.887c-10.214,20.426-11.2,44.247-2.721,65.446v6.666"/>
<path d="M453.333,300c-1.767,0-3.467-0.699-4.713-1.953l-40-40c-2.562-2.646-2.487-6.867,0.16-9.427c2.587-2.493,6.68-2.493,9.267,0
	l40,40c2.6,2.606,2.6,6.827,0,9.427C456.794,299.301,455.101,300,453.333,300z"/>
<line fill="none" stroke="#000000" stroke-width="14" stroke-miterlimit="10" x1="186.667" y1="340" x2="401.166" y2="340"/>
</svg>
