<?xml version="1.0" encoding="utf-8"?>
<!-- Generator: Adobe Illustrator 16.0.0, SVG Export Plug-In . SVG Version: 6.00 Build 0)  -->
<!DOCTYPE svg PUBLIC "-//W3C//DTD SVG 1.0//EN" "http://www.w3.org/TR/2001/REC-SVG-20010904/DTD/svg10.dtd">
<svg version="1.0" id="Layer_1" xmlns="http://www.w3.org/2000/svg" xmlns:xlink="http://www.w3.org/1999/xlink" x="0px" y="0px"
	viewBox="0 0 60 60" enable-background="new 0 0 60 60" xml:space="preserve">
<g>
	<path fill="#4D7085" d="M52.852,42.996c0,0.523-0.426,0.949-0.949,0.949H8.215c-0.524,0-0.95-0.426-0.95-0.949V18.06
		c0-0.525,0.425-0.95,0.95-0.95h43.686c0.524,0,0.95,0.425,0.95,0.95V42.996L52.852,42.996z"/>
	<path fill="#233540" d="M52.148,42.645c0,0.524-0.426,0.949-0.949,0.949H8.333c-0.524,0-0.95-0.426-0.95-0.949V18.528
		c0-0.524,0.425-0.95,0.95-0.95h42.866c0.524,0,0.95,0.425,0.95,0.95V42.645L52.148,42.645z"/>
	<path fill="#233540" d="M51.914,42.059c0,0.523-0.426,0.949-0.949,0.949H9.036c-0.524,0-0.95-0.426-0.95-0.949V19.114
		c0-0.525,0.425-0.95,0.95-0.95h41.928c0.524,0,0.95,0.425,0.95,0.95V42.059L51.914,42.059z"/>
	<path fill="#141E24" d="M50.859,41.004c0,0.524-0.426,0.949-0.95,0.949H9.974c-0.525,0-0.95-0.426-0.95-0.949v-21.07
		c0-0.524,0.425-0.95,0.95-0.95h39.936c0.524,0,0.95,0.425,0.95,0.95V41.004L50.859,41.004z"/>
	<path fill="#3B5666" d="M50.508,40.535c0,0.523-0.426,0.949-0.949,0.949H10.442c-0.524,0-0.95-0.426-0.95-0.949V20.286
		c0-0.525,0.425-0.95,0.95-0.95h39.116c0.524,0,0.95,0.425,0.95,0.95V40.535L50.508,40.535z"/>
	<polygon fill="#4E7287" points="28.221,41.484 40.623,19.336 29.041,19.336 16.639,41.484 	"/>
	<polygon fill="#4E7287" points="35.121,41.484 47.538,19.336 43.334,19.336 30.932,41.484 	"/>
</g>
</svg>
