<?xml version="1.0" encoding="iso-8859-1"?>
<!-- Generator: Adobe Illustrator 19.0.0, SVG Export Plug-In . SVG Version: 6.00 Build 0)  -->
<svg version="1.1" id="Capa_1" xmlns="http://www.w3.org/2000/svg" xmlns:xlink="http://www.w3.org/1999/xlink" x="0px" y="0px"
	 viewBox="0 0 512.002 512.002" style="enable-background:new 0 0 512.002 512.002;" xml:space="preserve">
<path style="fill:#41589C;" d="M291.66,77.984c7.719-28.807-9.377-58.416-38.183-66.135c-28.807-7.719-58.416,9.377-66.135,38.183
	L291.66,77.984z"/>
<path style="fill:#DA393F;" d="M291.649,77.984l-15.866,33.005l-9.783,28.768l-15.5-7.833l-12.276,10.556
	c-9.39,8.074-23.025,8.858-33.277,1.913l-10.833-7.338l-34.956,22.107l-83.396,64.813l-65.757,42.03V137.501l126.655-37.266
	c17.412-2.997,32.38-14.055,40.361-29.818l10.321-20.383L291.649,77.984z"/>
<path style="fill:#FFC89F;" d="M187.342,50.032l-10.321,20.384c-3.359,6.634-7.967,12.42-13.462,17.137
	c4.991,20.757,15.868,38.335,30.217,49.716l0.338-0.214l10.833,7.338c0.29,0.196,0.591,0.364,0.886,0.548
	c2.967,1.463,6.032,2.679,9.177,3.643c8.081,1.596,16.676-0.48,23.215-6.103l12.276-10.556l15.5,7.833l9.783-28.768l15.866-33.005
	L187.342,50.032z"/>
<path style="fill:#85E6ED;" d="M274.202,111.865c0,0-35.867,0.809-34.7-47.856l52.159,13.976L274.202,111.865z"/>
<path style="fill:#DA393F;" d="M75.172,176.007v40.994c0,15.361,9.256,29.209,23.45,35.082l113.339,47.963l22.82-9.084
	l-65.066-67.492c-12.719-13.193-18.464-31.617-15.498-49.7l6.522-39.763L75.172,176.007z"/>
<path style="fill:#D87844;" d="M392.999,233.006c0,0-36.499-5.5-27-56.999c-22.209,10.52-32.216,28.673-31.962,48.859l-0.37-1.193
	l0,0c-21.553,0-42.003,9.531-55.864,26.037l-6.808,8.107c-36.537,43.51-92.765,65.349-149.092,57.906L10.005,300.937v201.065
	h171.956h5.381h38.048H289c0-9.598-3.931-18.771-10.885-25.387c-11.01-10.476-28.492-27.023-43.451-40.797l92.215-82.749
	c7.754,14.534,22.987,23.936,39.898,23.936h24.222l56.999,34.999h32.667l21.333-38.332L392.999,233.006z M349.464,269.003
	l-1.158,1.864l-2.212-7.132C347.156,265.503,348.268,267.262,349.464,269.003z"/>
<path style="fill:#41589C;" d="M416.998,271.942h-39.833c0,0,3.518,28.104,57.749,28.104L416.998,271.942z"/>
<path d="M509.901,367.545L400.903,226.88c-1.617-2.088-3.744-3.416-6.357-3.756c-0.882-0.17-8.995-1.935-14.553-9.951
	c-5.599-8.074-6.998-19.969-4.16-35.353c0.681-3.691-0.763-7.454-3.739-9.742c-2.977-2.289-6.982-2.716-10.376-1.11
	c-18.477,8.752-30.768,22.74-35.542,40.45c-0.594,2.202-1.054,4.449-1.399,6.73c-21.201,2.27-40.753,12.603-54.632,29.13
	l-6.808,8.107c-8.307,9.892-17.656,18.568-27.793,25.963l-58.632-60.818c-10.476-10.867-15.271-26.247-12.829-41.141l1.374-8.38
	l28.469-18.004l5.413,3.667c13.955,9.453,32.625,8.378,45.405-2.61l7.21-6.199l9.536,4.819c2.585,1.306,5.607,1.429,8.29,0.333
	c2.681-1.094,4.756-3.297,5.688-6.039l9.589-28.198l15.495-32.231c0.321-0.625,0.583-1.285,0.768-1.975
	c9.134-34.086-11.168-69.249-45.254-78.383c-33.702-9.035-68.442,10.725-78.048,44.12l-9.918,19.588
	c-6.521,12.88-18.909,22.031-33.136,24.481c-0.381,0.065-0.757,0.153-1.126,0.262L7.183,127.907
	c-4.256,1.252-7.178,5.158-7.178,9.593v128.505c0,3.653,1.992,7.016,5.196,8.771c1.5,0.821,3.153,1.229,4.804,1.229
	c1.875,0,3.748-0.527,5.386-1.574l55.174-35.266c5.087,9.794,13.512,17.722,24.159,22.129l93.354,39.505
	c-20.656,6.1-42.684,7.94-64.864,5.01L11.315,291.022c-2.851-0.375-5.734,0.496-7.901,2.394c-2.166,1.899-3.408,4.64-3.408,7.52
	v201.065c0,5.523,4.478,10,10,10h245.996c5.522,0,10-4.477,10-10s-4.478-10-10-10h-68.659h-5.381
	c-9.812,0-18.756-4.979-23.925-13.319l-19.405-31.312c-2.908-4.694-9.071-6.141-13.768-3.232c-4.694,2.909-6.142,9.073-3.232,13.768
	l19.405,31.313c0.592,0.955,1.218,1.88,1.866,2.783H20.006V312.345l100.589,13.292c29.299,3.873,59.347,0.263,86.896-10.438
	c5.596-2.173,11.063-4.646,16.394-7.375l85.829,47.214l-74.98,67.283c-5.297-4.82-9.7-8.746-13.11-11.684
	c-2.829-2.438-5.003-4.226-6.645-5.464c-8.078-6.094-13.312-2.976-15.713-0.576c-3.905,3.905-3.906,10.236-0.002,14.142
	c1.039,1.04,2.25,1.803,3.542,2.289c4.978,3.652,25.354,21.857,68.418,62.831c4.943,4.703,7.778,11.316,7.778,18.143
	c0,5.523,4.478,10,10,10s10-4.477,10-10c0-12.277-5.1-24.171-13.992-32.631c-9.658-9.19-22.911-21.735-35.498-33.438l75.61-67.848
	c10.242,11.785,25.252,18.92,41.658,18.92h21.396l54.592,33.521c1.574,0.966,3.385,1.478,5.232,1.478h32.667
	c3.629,0,6.974-1.966,8.738-5.137l21.333-38.332C512.682,375.034,512.354,370.71,509.901,367.545z M211.871,420
	c0.261-0.174,0.516-0.362,0.764-0.563C212.385,419.64,212.13,419.828,211.871,420z M416.998,281.942c0.41,0,0.811-0.032,1.208-0.08
	l6.012,7.758c-13.321-1.106-21.91-4.244-27.422-7.678H416.998z M345.485,212.627c1.674-6.204,4.697-11.675,9.04-16.376
	c0.609,11.263,3.74,20.903,9.375,28.806c7.618,10.684,17.635,15.086,23.319,16.817l3.331,4.299
	c-13.137-0.057-26.128,3.109-37.742,9.161C344.745,240.528,342.058,225.336,345.485,212.627z M278.653,264.247l6.808-8.106
	c10.065-11.987,24.069-19.659,39.333-21.821c1.535,10.765,5.417,21.81,11.493,32.47c-1.021,0.919-2.026,1.858-3.002,2.834
	c-16.7,16.7-24.992,39.709-23.263,62.758l-66.255-36.447C256.721,286.993,268.494,276.345,278.653,264.247z M192.596,61.793
	l37.036,9.924c0.115,2.055,0.287,4.063,0.536,6.005l-40.057-11.021L192.596,61.793z M253.584,87.999
	c-0.032-0.073-0.068-0.144-0.102-0.216c-1.449-3.044-2.5-6.56-3.164-10.524l27.095,7.26l-7.997,16.635
	c-3.107-0.8-7.291-2.498-10.917-6.128C256.545,93.068,254.907,90.722,253.584,87.999z M250.89,21.508
	c20.113,5.39,33.244,23.96,32.592,43.932l-82.786-22.183C210.117,25.635,230.774,16.12,250.89,21.508z M102.444,242.844
	C91.951,238.501,85.172,228.357,85.172,217v-40.994c0-5.523-4.478-10-10-10c-5.522,0-10,4.477-10,10V217
	c0,0.62,0.012,1.237,0.036,1.852l-45.203,28.893V144.981l118.945-34.998c16.406-2.982,31.063-12.174,40.955-25.348l57.72,15.88
	c1.909,3.183,4.15,6.066,6.723,8.643c5.876,5.884,12.376,9.047,17.842,10.748l-1.95,5.735L255.012,123
	c-3.61-1.825-7.963-1.295-11.03,1.342l-12.276,10.556c-5.954,5.119-14.65,5.618-21.15,1.216l-10.833-7.338
	c-3.292-2.23-7.593-2.297-10.953-0.172l-18.982,12.005l0.817-4.982c0.894-5.45-2.8-10.593-8.25-11.487
	c-5.448-0.894-10.593,2.799-11.486,8.25l-6.521,39.763c-3.459,21.092,3.332,42.871,18.167,58.259l55.788,57.868
	c-1.253,0.683-2.518,1.342-3.788,1.99L102.444,242.844z M335.835,348.63c-0.059-0.119-0.122-0.234-0.186-0.351
	c-0.014-0.027-0.029-0.054-0.043-0.082c-0.034-0.061-0.062-0.124-0.098-0.185c-0.916-1.773-1.697-3.639-2.317-5.594
	c-0.446-1.406-1.18-2.638-2.108-3.667c-3.295-15.698-0.173-31.962,8.443-45.224l35.529,73.476h-8.278
	C353.641,367.004,341.91,359.837,335.835,348.63z M474.785,402.003h-23.963l-52.096-31.989l-44.519-92.067
	c4.051-2.984,8.442-5.431,13.056-7.307c-0.11,0.837-0.128,1.69-0.021,2.544c0.188,1.505,5.332,36.861,67.673,36.861
	c1.562,0,3.034-0.368,4.35-1.006l50.783,65.537L474.785,402.003z"/>
<path d="M107.735,416.502c-4.694,2.909-6.142,9.073-3.232,13.768l0.305,0.492c1.893,3.055,5.162,4.734,8.51,4.734
	c1.797,0,3.617-0.485,5.258-1.501c4.694-2.909,6.142-9.073,3.232-13.768l-0.305-0.492
	C118.595,415.042,112.433,413.595,107.735,416.502z"/>
<path d="M458.998,393.004c6.065,0,11-4.935,11-11s-4.935-11-11-11s-11,4.935-11,11S452.932,393.004,458.998,393.004z"/>
<g>
</g>
<g>
</g>
<g>
</g>
<g>
</g>
<g>
</g>
<g>
</g>
<g>
</g>
<g>
</g>
<g>
</g>
<g>
</g>
<g>
</g>
<g>
</g>
<g>
</g>
<g>
</g>
<g>
</g>
</svg>
