<svg height="504pt" viewBox="-108 0 504 504" width="504pt" xmlns="http://www.w3.org/2000/svg"><path d="m248 152v-128c0-8.839844-7.160156-16-16-16h-208c-8.839844 0-16 7.160156-16 16v240c0 8.839844 7.160156 16 16 16h208.664062c8.472657 0 15.335938-6.863281 15.335938-15.335938zm0 0" fill="#ff826e"/><path d="m232.664062 280c8.472657 0 15.335938-6.863281 15.335938-15.335938v-128.664062c-26.472656 0-48 21.527344-48 48v96zm0 0" fill="#fc6e51"/><path d="m216 280v-96c0-17.671875 14.328125-32 32-32s32 14.328125 32 32v217.519531c0 14.25-6.328125 27.753907-17.273438 36.871094l-30.726562 25.609375v32h-144v-32l-17.945312-17.945312c-9-9-14.054688-21.207032-14.054688-33.933594v-132.121094zm0 0" fill="#f0d0b4"/><path d="m208 86.855469-22.855469-22.855469-57.144531 57.144531-57.144531-57.144531-22.855469 22.855469 57.144531 57.144531-57.144531 57.144531 22.855469 22.855469 57.144531-57.144531 57.144531 57.144531 22.855469-22.855469-57.144531-57.144531zm0 0" fill="#fcd770"/><path d="m56 280h144v16h-144zm0 0" fill="#ecc19c"/><path d="m200 209.144531 8-8-8-8zm0 0" fill="#ffc729"/><path d="m256 144.808594v-120.808594c0-13.230469-10.769531-24-24-24h-208c-13.230469 0-24 10.769531-24 24v240c0 13.230469 10.769531 24 24 24h24v124.121094c0 14.949218 5.824219 29.015625 16.398438 39.597656l15.601562 15.59375v36.6875h160v-36.246094l27.847656-23.210937c12.808594-10.679688 20.152344-26.359375 20.152344-43.03125v-217.511719c0-19.3125-13.769531-35.472656-32-39.191406zm-240 119.191406v-240c0-4.40625 3.59375-8 8-8h208c4.40625 0 8 3.59375 8 8v120.808594c-18.230469 3.71875-32 19.871094-32 39.191406v5.832031l-45.832031-45.832031 57.144531-57.144531-34.167969-34.167969-57.144531 57.144531-57.144531-57.144531-34.167969 34.167969 57.144531 57.144531-57.144531 57.144531 34.167969 34.167969 57.144531-57.144531 57.144531 57.144531 22.855469-22.855469v59.542969h-184c-4.40625 0-8-3.585938-8-8zm180.6875-62.855469-11.542969 11.542969-57.144531-57.144531-57.144531 57.144531-11.542969-11.542969 57.144531-57.144531-57.144531-57.144531 11.542969-11.542969 57.144531 57.144531 57.144531-57.144531 11.542969 11.542969-57.144531 57.144531zm75.3125 200.367188c0 11.902343-5.246094 23.113281-14.390625 30.726562l-33.609375 28.007813v27.753906h-128v-27.3125l-20.28125-20.28125c-7.558594-7.566406-11.71875-17.605469-11.71875-28.285156v-124.121094h125.097656c-28.296875 23.175781-45.097656 57.824219-45.097656 95.550781v24.449219h16v-24.449219c0-41.085937 22.832031-78.023437 59.574219-96.398437l4.425781-2.207032v-100.945312c0-13.230469 10.769531-24 24-24s24 10.769531 24 24zm0 0"/></svg>